<svg version="1.1" xmlns="http://www.w3.org/2000/svg" xmlns:xlink="http://www.w3.org/1999/xlink" width="400" height="400" preserveAspectRatio="xMidYMid meet" viewBox="0 0 400 400">
  <g>
    <path id="path0" d="M186.200 40.800 C 186.064 41.020,184.343 41.200,182.376 41.200 C 180.259 41.200,178.800 41.363,178.800 41.600 C 178.800 41.825,177.675 42.000,176.224 42.000 C 174.807 42.000,173.536 42.180,173.400 42.400 C 173.264 42.620,172.263 42.800,171.176 42.800 C 170.089 42.800,169.200 42.980,169.200 43.200 C 169.200 43.420,168.401 43.600,167.424 43.600 C 166.447 43.600,165.536 43.780,165.400 44.000 C 165.264 44.220,164.443 44.400,163.576 44.400 C 162.709 44.400,162.000 44.580,162.000 44.800 C 162.000 45.020,161.280 45.200,160.400 45.200 C 159.520 45.200,158.800 45.380,158.800 45.600 C 158.800 45.820,158.181 46.000,157.424 46.000 C 156.667 46.000,155.936 46.180,155.800 46.400 C 155.664 46.620,155.023 46.800,154.376 46.800 C 153.729 46.800,153.200 46.980,153.200 47.200 C 153.200 47.420,152.660 47.600,152.000 47.600 C 151.340 47.600,150.800 47.780,150.800 48.000 C 150.800 48.220,150.260 48.400,149.600 48.400 C 148.940 48.400,148.400 48.580,148.400 48.800 C 148.400 49.020,147.860 49.200,147.200 49.200 C 146.540 49.200,146.000 49.380,146.000 49.600 C 146.000 49.820,145.460 50.000,144.800 50.000 C 144.140 50.000,143.600 50.180,143.600 50.400 C 143.600 50.620,143.161 50.800,142.624 50.800 C 142.087 50.800,141.536 50.980,141.400 51.200 C 141.264 51.420,140.803 51.600,140.376 51.600 C 139.949 51.600,139.600 51.780,139.600 52.000 C 139.600 52.220,139.240 52.400,138.800 52.400 C 138.360 52.400,138.000 52.580,138.000 52.800 C 138.000 53.020,137.460 53.200,136.800 53.200 C 136.140 53.200,135.600 53.380,135.600 53.600 C 135.600 53.820,135.240 54.000,134.800 54.000 C 134.360 54.000,134.000 54.180,134.000 54.400 C 134.000 54.620,133.640 54.800,133.200 54.800 C 132.760 54.800,132.400 54.980,132.400 55.200 C 132.400 55.420,132.040 55.600,131.600 55.600 C 131.160 55.600,130.800 55.780,130.800 56.000 C 130.800 56.220,130.440 56.400,130.000 56.400 C 129.560 56.400,129.200 56.580,129.200 56.800 C 129.200 57.020,128.840 57.200,128.400 57.200 C 127.960 57.200,127.600 57.380,127.600 57.600 C 127.600 57.820,127.240 58.000,126.800 58.000 C 126.360 58.000,126.000 58.180,126.000 58.400 C 126.000 58.620,125.640 58.800,125.200 58.800 C 124.760 58.800,124.400 58.980,124.400 59.200 C 124.400 59.420,124.040 59.600,123.600 59.600 C 123.160 59.600,122.800 59.780,122.800 60.000 C 122.800 60.220,122.480 60.400,122.088 60.400 C 121.697 60.400,121.117 60.760,120.800 61.200 C 120.483 61.640,119.903 62.000,119.512 62.000 C 119.120 62.000,118.800 62.180,118.800 62.400 C 118.800 62.620,118.480 62.800,118.088 62.800 C 117.697 62.800,117.117 63.160,116.800 63.600 C 116.483 64.040,115.903 64.400,115.512 64.400 C 115.120 64.400,114.800 64.580,114.800 64.800 C 114.800 65.020,114.480 65.200,114.088 65.200 C 113.697 65.200,113.117 65.560,112.800 66.000 C 112.483 66.440,111.943 66.800,111.600 66.800 C 111.257 66.800,110.717 67.160,110.400 67.600 C 110.083 68.040,109.575 68.400,109.272 68.400 C 108.969 68.400,108.217 68.940,107.600 69.600 C 106.983 70.260,106.280 70.800,106.036 70.800 C 105.792 70.800,105.028 71.340,104.337 72.000 C 103.646 72.660,102.910 73.200,102.701 73.200 C 102.492 73.200,101.817 73.740,101.200 74.400 C 100.583 75.060,99.870 75.600,99.614 75.600 C 99.358 75.600,98.271 76.500,97.200 77.600 C 96.129 78.700,95.059 79.600,94.823 79.600 C 94.263 79.600,79.600 94.263,79.600 94.823 C 79.600 95.059,78.700 96.129,77.600 97.200 C 76.500 98.271,75.600 99.358,75.600 99.614 C 75.600 99.870,75.060 100.583,74.400 101.200 C 73.740 101.817,73.200 102.492,73.200 102.701 C 73.200 102.910,72.660 103.646,72.000 104.337 C 71.340 105.028,70.800 105.792,70.800 106.036 C 70.800 106.280,70.260 106.983,69.600 107.600 C 68.940 108.217,68.400 108.969,68.400 109.272 C 68.400 109.575,68.040 110.083,67.600 110.400 C 67.160 110.717,66.800 111.257,66.800 111.600 C 66.800 111.943,66.440 112.483,66.000 112.800 C 65.560 113.117,65.200 113.697,65.200 114.088 C 65.200 114.480,65.020 114.800,64.800 114.800 C 64.580 114.800,64.400 115.120,64.400 115.512 C 64.400 115.903,64.040 116.483,63.600 116.800 C 63.160 117.117,62.800 117.697,62.800 118.088 C 62.800 118.480,62.620 118.800,62.400 118.800 C 62.180 118.800,62.000 119.120,62.000 119.512 C 62.000 119.903,61.640 120.483,61.200 120.800 C 60.760 121.117,60.400 121.697,60.400 122.088 C 60.400 122.480,60.220 122.800,60.000 122.800 C 59.780 122.800,59.600 123.160,59.600 123.600 C 59.600 124.040,59.420 124.400,59.200 124.400 C 58.980 124.400,58.800 124.760,58.800 125.200 C 58.800 125.640,58.620 126.000,58.400 126.000 C 58.180 126.000,58.000 126.360,58.000 126.800 C 58.000 127.240,57.820 127.600,57.600 127.600 C 57.380 127.600,57.200 127.960,57.200 128.400 C 57.200 128.840,57.020 129.200,56.800 129.200 C 56.580 129.200,56.400 129.560,56.400 130.000 C 56.400 130.440,56.220 130.800,56.000 130.800 C 55.780 130.800,55.600 131.160,55.600 131.600 C 55.600 132.040,55.420 132.400,55.200 132.400 C 54.980 132.400,54.800 132.760,54.800 133.200 C 54.800 133.640,54.620 134.000,54.400 134.000 C 54.180 134.000,54.000 134.360,54.000 134.800 C 54.000 135.240,53.820 135.600,53.600 135.600 C 53.380 135.600,53.200 136.140,53.200 136.800 C 53.200 137.460,53.020 138.000,52.800 138.000 C 52.580 138.000,52.400 138.360,52.400 138.800 C 52.400 139.240,52.220 139.600,52.000 139.600 C 51.780 139.600,51.600 139.949,51.600 140.376 C 51.600 140.803,51.420 141.264,51.200 141.400 C 50.980 141.536,50.800 142.087,50.800 142.624 C 50.800 143.161,50.620 143.600,50.400 143.600 C 50.180 143.600,50.000 144.140,50.000 144.800 C 50.000 145.460,49.820 146.000,49.600 146.000 C 49.380 146.000,49.200 146.540,49.200 147.200 C 49.200 147.860,49.020 148.400,48.800 148.400 C 48.580 148.400,48.400 148.940,48.400 149.600 C 48.400 150.260,48.220 150.800,48.000 150.800 C 47.780 150.800,47.600 151.340,47.600 152.000 C 47.600 152.660,47.420 153.200,47.200 153.200 C 46.980 153.200,46.800 153.729,46.800 154.376 C 46.800 155.023,46.620 155.664,46.400 155.800 C 46.180 155.936,46.000 156.667,46.000 157.424 C 46.000 158.181,45.820 158.800,45.600 158.800 C 45.380 158.800,45.200 159.520,45.200 160.400 C 45.200 161.280,45.020 162.000,44.800 162.000 C 44.580 162.000,44.400 162.709,44.400 163.576 C 44.400 164.443,44.220 165.264,44.000 165.400 C 43.780 165.536,43.600 166.447,43.600 167.424 C 43.600 168.401,43.420 169.200,43.200 169.200 C 42.980 169.200,42.800 170.089,42.800 171.176 C 42.800 172.263,42.620 173.264,42.400 173.400 C 42.180 173.536,42.000 174.807,42.000 176.224 C 42.000 177.675,41.825 178.800,41.600 178.800 C 41.363 178.800,41.200 180.259,41.200 182.376 C 41.200 184.343,41.020 186.064,40.800 186.200 C 40.254 186.538,40.254 213.462,40.800 213.800 C 41.020 213.936,41.200 215.657,41.200 217.624 C 41.200 219.741,41.363 221.200,41.600 221.200 C 41.822 221.200,42.000 222.259,42.000 223.576 C 42.000 224.883,42.180 226.064,42.400 226.200 C 42.620 226.336,42.800 227.427,42.800 228.624 C 42.800 229.821,42.980 230.800,43.200 230.800 C 43.420 230.800,43.600 231.599,43.600 232.576 C 43.600 233.553,43.780 234.464,44.000 234.600 C 44.220 234.736,44.400 235.557,44.400 236.424 C 44.400 237.291,44.580 238.000,44.800 238.000 C 45.020 238.000,45.200 238.720,45.200 239.600 C 45.200 240.480,45.380 241.200,45.600 241.200 C 45.820 241.200,46.000 241.819,46.000 242.576 C 46.000 243.333,46.180 244.064,46.400 244.200 C 46.620 244.336,46.800 244.977,46.800 245.624 C 46.800 246.271,46.980 246.800,47.200 246.800 C 47.420 246.800,47.600 247.340,47.600 248.000 C 47.600 248.660,47.780 249.200,48.000 249.200 C 48.220 249.200,48.400 249.740,48.400 250.400 C 48.400 251.060,48.580 251.600,48.800 251.600 C 49.020 251.600,49.200 251.960,49.200 252.400 C 49.200 252.840,49.380 253.200,49.600 253.200 C 49.820 253.200,50.000 253.560,50.000 254.000 C 50.000 254.500,50.267 254.800,50.712 254.800 C 51.103 254.800,51.683 255.160,52.000 255.600 C 52.653 256.506,89.200 256.899,89.200 256.000 C 89.200 255.775,90.325 255.600,91.776 255.600 C 93.193 255.600,94.464 255.420,94.600 255.200 C 94.736 254.980,95.557 254.800,96.424 254.800 C 97.291 254.800,98.000 254.620,98.000 254.400 C 98.000 254.180,98.720 254.000,99.600 254.000 C 100.480 254.000,101.200 253.820,101.200 253.600 C 101.200 253.380,101.920 253.200,102.800 253.200 C 103.680 253.200,104.400 253.020,104.400 252.800 C 104.400 252.580,104.940 252.400,105.600 252.400 C 106.260 252.400,106.800 252.220,106.800 252.000 C 106.800 251.780,107.149 251.600,107.576 251.600 C 108.003 251.600,108.464 251.420,108.600 251.200 C 108.736 250.980,109.287 250.800,109.824 250.800 C 110.361 250.800,110.800 250.620,110.800 250.400 C 110.800 250.180,111.160 250.000,111.600 250.000 C 112.040 250.000,112.400 249.820,112.400 249.600 C 112.400 249.380,112.940 249.200,113.600 249.200 C 114.260 249.200,114.800 249.020,114.800 248.800 C 114.800 248.580,115.160 248.400,115.600 248.400 C 116.040 248.400,116.400 248.220,116.400 248.000 C 116.400 247.780,116.760 247.600,117.200 247.600 C 117.640 247.600,118.000 247.420,118.000 247.200 C 118.000 246.980,118.349 246.800,118.776 246.800 C 119.203 246.800,119.664 246.620,119.800 246.400 C 119.936 246.180,120.487 246.000,121.024 246.000 C 121.561 246.000,122.000 245.820,122.000 245.600 C 122.000 245.380,122.360 245.200,122.800 245.200 C 123.240 245.200,123.600 245.020,123.600 244.800 C 123.600 244.580,123.960 244.400,124.400 244.400 C 124.840 244.400,125.200 244.220,125.200 244.000 C 125.200 243.780,125.740 243.600,126.400 243.600 C 127.060 243.600,127.600 243.420,127.600 243.200 C 127.600 242.980,127.960 242.800,128.400 242.800 C 128.840 242.800,129.200 242.620,129.200 242.400 C 129.200 242.180,129.740 242.000,130.400 242.000 C 131.060 242.000,131.600 241.820,131.600 241.600 C 131.600 241.380,132.399 241.200,133.376 241.200 C 134.353 241.200,135.264 241.020,135.400 240.800 C 135.536 240.580,136.897 240.400,138.424 240.400 C 140.008 240.400,141.200 240.228,141.200 240.000 C 141.200 239.472,148.273 239.472,148.600 240.000 C 148.736 240.220,150.187 240.400,151.824 240.400 C 153.541 240.400,154.800 240.569,154.800 240.800 C 154.800 241.020,155.520 241.200,156.400 241.200 C 157.280 241.200,158.000 241.380,158.000 241.600 C 158.000 241.820,158.540 242.000,159.200 242.000 C 159.860 242.000,160.400 242.180,160.400 242.400 C 160.400 242.620,160.760 242.800,161.200 242.800 C 161.640 242.800,162.000 242.980,162.000 243.200 C 162.000 243.420,162.540 243.600,163.200 243.600 C 163.860 243.600,164.400 243.780,164.400 244.000 C 164.400 244.220,164.760 244.400,165.200 244.400 C 165.640 244.400,166.000 244.580,166.000 244.800 C 166.000 245.020,166.540 245.200,167.200 245.200 C 167.860 245.200,168.400 245.380,168.400 245.600 C 168.400 245.820,168.940 246.000,169.600 246.000 C 170.260 246.000,170.800 246.180,170.800 246.400 C 170.800 246.620,171.160 246.800,171.600 246.800 C 172.040 246.800,172.400 246.980,172.400 247.200 C 172.400 247.420,173.120 247.600,174.000 247.600 C 174.880 247.600,175.600 247.780,175.600 248.000 C 175.600 248.220,176.129 248.400,176.776 248.400 C 177.423 248.400,178.064 248.580,178.200 248.800 C 178.336 249.020,179.056 249.200,179.800 249.200 C 180.544 249.200,181.264 249.380,181.400 249.600 C 181.536 249.820,182.627 250.000,183.824 250.000 C 185.021 250.000,186.000 250.180,186.000 250.400 C 186.000 250.640,187.600 250.800,190.000 250.800 C 192.400 250.800,194.000 250.960,194.000 251.200 C 194.000 251.435,195.392 251.600,197.376 251.600 C 199.233 251.600,200.864 251.420,201.000 251.200 C 201.136 250.980,202.846 250.800,204.800 250.800 C 206.754 250.800,208.464 250.620,208.600 250.400 C 208.736 250.180,209.827 250.000,211.024 250.000 C 212.221 250.000,213.200 249.820,213.200 249.600 C 213.200 249.380,213.920 249.200,214.800 249.200 C 215.680 249.200,216.400 249.020,216.400 248.800 C 216.400 248.580,217.120 248.400,218.000 248.400 C 218.880 248.400,219.600 248.220,219.600 248.000 C 219.600 247.780,220.140 247.600,220.800 247.600 C 221.460 247.600,222.000 247.420,222.000 247.200 C 222.000 246.980,222.540 246.800,223.200 246.800 C 223.860 246.800,224.400 246.620,224.400 246.400 C 224.400 246.180,224.940 246.000,225.600 246.000 C 226.260 246.000,226.800 245.820,226.800 245.600 C 226.800 245.380,227.340 245.200,228.000 245.200 C 228.660 245.200,229.200 245.020,229.200 244.800 C 229.200 244.580,229.560 244.400,230.000 244.400 C 230.440 244.400,230.800 244.220,230.800 244.000 C 230.800 243.780,231.340 243.600,232.000 243.600 C 232.660 243.600,233.200 243.420,233.200 243.200 C 233.200 242.980,233.740 242.800,234.400 242.800 C 235.060 242.800,235.600 242.620,235.600 242.400 C 235.600 242.180,236.140 242.000,236.800 242.000 C 237.460 242.000,238.000 241.820,238.000 241.600 C 238.000 241.380,238.540 241.200,239.200 241.200 C 239.860 241.200,240.400 241.020,240.400 240.800 C 240.400 240.580,241.300 240.400,242.400 240.400 C 243.500 240.400,244.400 240.220,244.400 240.000 C 244.400 239.746,247.459 239.600,252.776 239.600 C 257.929 239.600,261.248 239.754,261.400 240.000 C 261.536 240.220,262.447 240.400,263.424 240.400 C 264.401 240.400,265.200 240.580,265.200 240.800 C 265.200 241.020,265.740 241.200,266.400 241.200 C 267.060 241.200,267.600 241.380,267.600 241.600 C 267.600 241.820,268.140 242.000,268.800 242.000 C 269.460 242.000,270.000 242.180,270.000 242.400 C 270.000 242.620,270.360 242.800,270.800 242.800 C 271.240 242.800,271.600 242.980,271.600 243.200 C 271.600 243.420,271.960 243.600,272.400 243.600 C 272.840 243.600,273.200 243.780,273.200 244.000 C 273.200 244.220,273.560 244.400,274.000 244.400 C 274.440 244.400,274.800 244.580,274.800 244.800 C 274.800 245.020,275.160 245.200,275.600 245.200 C 276.040 245.200,276.400 245.380,276.400 245.600 C 276.400 245.820,276.760 246.000,277.200 246.000 C 277.640 246.000,278.000 246.180,278.000 246.400 C 278.000 246.620,278.360 246.800,278.800 246.800 C 279.240 246.800,279.600 246.980,279.600 247.200 C 279.600 247.420,279.960 247.600,280.400 247.600 C 280.840 247.600,281.200 247.780,281.200 248.000 C 281.200 248.220,281.740 248.400,282.400 248.400 C 283.060 248.400,283.600 248.580,283.600 248.800 C 283.600 249.020,284.140 249.200,284.800 249.200 C 285.460 249.200,286.000 249.380,286.000 249.600 C 286.000 249.820,286.360 250.000,286.800 250.000 C 287.240 250.000,287.600 250.180,287.600 250.400 C 287.600 250.620,288.320 250.800,289.200 250.800 C 290.080 250.800,290.800 250.980,290.800 251.200 C 290.800 251.420,291.419 251.600,292.176 251.600 C 292.933 251.600,293.664 251.780,293.800 252.000 C 293.936 252.220,294.757 252.400,295.624 252.400 C 296.491 252.400,297.200 252.580,297.200 252.800 C 297.200 253.020,298.089 253.200,299.176 253.200 C 300.263 253.200,301.264 253.380,301.400 253.600 C 301.553 253.847,305.071 254.000,310.624 254.000 L 319.600 254.000 319.600 255.200 C 319.600 255.860,319.420 256.400,319.200 256.400 C 318.980 256.400,318.800 256.760,318.800 257.200 C 318.800 257.640,318.620 258.000,318.400 258.000 C 318.180 258.000,318.000 258.360,318.000 258.800 C 318.000 259.240,317.820 259.600,317.600 259.600 C 317.380 259.600,317.200 259.920,317.200 260.312 C 317.200 260.703,316.840 261.283,316.400 261.600 C 315.960 261.917,315.600 262.497,315.600 262.888 C 315.600 263.280,315.420 263.600,315.200 263.600 C 314.980 263.600,314.800 263.960,314.800 264.400 C 314.800 264.840,314.620 265.200,314.400 265.200 C 314.180 265.200,314.000 265.483,314.000 265.829 C 314.000 266.174,313.743 266.714,313.429 267.029 C 312.782 267.675,310.000 267.814,310.000 267.200 C 310.000 266.963,308.533 266.800,306.400 266.800 C 304.267 266.800,302.800 266.637,302.800 266.400 C 302.800 266.180,302.080 266.000,301.200 266.000 C 300.320 266.000,299.600 265.820,299.600 265.600 C 299.600 265.380,299.060 265.200,298.400 265.200 C 297.740 265.200,297.200 265.020,297.200 264.800 C 297.200 264.580,296.660 264.400,296.000 264.400 C 295.340 264.400,294.800 264.220,294.800 264.000 C 294.800 263.780,294.440 263.600,294.000 263.600 C 293.560 263.600,293.200 263.420,293.200 263.200 C 293.200 262.980,292.840 262.800,292.400 262.800 C 291.960 262.800,291.600 262.620,291.600 262.400 C 291.600 262.180,291.240 262.000,290.800 262.000 C 290.360 262.000,290.000 261.820,290.000 261.600 C 290.000 261.380,289.640 261.200,289.200 261.200 C 288.760 261.200,288.400 261.020,288.400 260.800 C 288.400 260.580,288.040 260.400,287.600 260.400 C 287.160 260.400,286.800 260.220,286.800 260.000 C 286.800 259.780,286.440 259.600,286.000 259.600 C 285.560 259.600,285.200 259.420,285.200 259.200 C 285.200 258.980,284.660 258.800,284.000 258.800 C 283.340 258.800,282.800 258.620,282.800 258.400 C 282.800 258.180,282.440 258.000,282.000 258.000 C 281.560 258.000,281.200 257.820,281.200 257.600 C 281.200 257.380,280.660 257.200,280.000 257.200 C 279.340 257.200,278.800 257.020,278.800 256.800 C 278.800 256.580,278.260 256.400,277.600 256.400 C 276.940 256.400,276.400 256.220,276.400 256.000 C 276.400 255.780,275.860 255.600,275.200 255.600 C 274.540 255.600,274.000 255.420,274.000 255.200 C 274.000 254.980,273.280 254.800,272.400 254.800 C 271.520 254.800,270.800 254.620,270.800 254.400 C 270.800 254.180,270.080 254.000,269.200 254.000 C 268.320 254.000,267.600 253.820,267.600 253.600 C 267.600 253.378,266.533 253.200,265.200 253.200 C 263.867 253.200,262.800 253.022,262.800 252.800 C 262.800 252.544,259.200 252.400,252.800 252.400 C 246.400 252.400,242.800 252.544,242.800 252.800 C 242.800 253.022,241.733 253.200,240.400 253.200 C 239.067 253.200,238.000 253.378,238.000 253.600 C 238.000 253.820,237.280 254.000,236.400 254.000 C 235.520 254.000,234.800 254.180,234.800 254.400 C 234.800 254.620,234.080 254.800,233.200 254.800 C 232.320 254.800,231.600 254.980,231.600 255.200 C 231.600 255.420,231.060 255.600,230.400 255.600 C 229.740 255.600,229.200 255.780,229.200 256.000 C 229.200 256.220,228.660 256.400,228.000 256.400 C 227.340 256.400,226.800 256.580,226.800 256.800 C 226.800 257.020,226.260 257.200,225.600 257.200 C 224.940 257.200,224.400 257.380,224.400 257.600 C 224.400 257.820,223.860 258.000,223.200 258.000 C 222.540 258.000,222.000 258.180,222.000 258.400 C 222.000 258.620,221.460 258.800,220.800 258.800 C 220.140 258.800,219.600 258.980,219.600 259.200 C 219.600 259.420,219.060 259.600,218.400 259.600 C 217.740 259.600,217.200 259.780,217.200 260.000 C 217.200 260.220,216.660 260.400,216.000 260.400 C 215.340 260.400,214.800 260.580,214.800 260.800 C 214.800 261.020,214.260 261.200,213.600 261.200 C 212.940 261.200,212.400 261.380,212.400 261.600 C 212.400 261.820,211.860 262.000,211.200 262.000 C 210.540 262.000,210.000 262.180,210.000 262.400 C 210.000 262.620,209.381 262.800,208.624 262.800 C 207.867 262.800,207.136 262.980,207.000 263.200 C 206.864 263.420,205.604 263.600,204.200 263.600 C 202.796 263.600,201.536 263.780,201.400 264.000 C 201.076 264.524,193.324 264.524,193.000 264.000 C 192.864 263.780,191.593 263.600,190.176 263.600 C 188.725 263.600,187.600 263.425,187.600 263.200 C 187.600 262.980,186.880 262.800,186.000 262.800 C 185.120 262.800,184.400 262.620,184.400 262.400 C 184.400 262.180,183.860 262.000,183.200 262.000 C 182.540 262.000,182.000 261.820,182.000 261.600 C 182.000 261.380,181.460 261.200,180.800 261.200 C 180.140 261.200,179.600 261.020,179.600 260.800 C 179.600 260.580,179.240 260.400,178.800 260.400 C 178.360 260.400,178.000 260.220,178.000 260.000 C 178.000 259.780,177.460 259.600,176.800 259.600 C 176.140 259.600,175.600 259.420,175.600 259.200 C 175.600 258.980,175.240 258.800,174.800 258.800 C 174.360 258.800,174.000 258.620,174.000 258.400 C 174.000 258.180,173.460 258.000,172.800 258.000 C 172.140 258.000,171.600 257.820,171.600 257.600 C 171.600 257.380,171.060 257.200,170.400 257.200 C 169.740 257.200,169.200 257.020,169.200 256.800 C 169.200 256.580,168.660 256.400,168.000 256.400 C 167.340 256.400,166.800 256.220,166.800 256.000 C 166.800 255.780,166.080 255.600,165.200 255.600 C 164.320 255.600,163.600 255.420,163.600 255.200 C 163.600 254.980,162.880 254.800,162.000 254.800 C 161.120 254.800,160.400 254.620,160.400 254.400 C 160.400 254.180,159.421 254.000,158.224 254.000 C 157.027 254.000,155.936 253.820,155.800 253.600 C 155.660 253.373,153.670 253.200,151.200 253.200 C 148.730 253.200,146.740 253.027,146.600 252.800 C 146.278 252.278,142.800 252.278,142.800 252.800 C 142.800 253.043,141.008 253.200,138.224 253.200 C 135.604 253.200,133.542 253.371,133.400 253.600 C 133.264 253.820,132.263 254.000,131.176 254.000 C 130.089 254.000,129.200 254.180,129.200 254.400 C 129.200 254.620,128.480 254.800,127.600 254.800 C 126.720 254.800,126.000 254.980,126.000 255.200 C 126.000 255.420,125.280 255.600,124.400 255.600 C 123.520 255.600,122.800 255.780,122.800 256.000 C 122.800 256.220,122.260 256.400,121.600 256.400 C 120.940 256.400,120.400 256.580,120.400 256.800 C 120.400 257.020,119.860 257.200,119.200 257.200 C 118.540 257.200,118.000 257.380,118.000 257.600 C 118.000 257.820,117.640 258.000,117.200 258.000 C 116.760 258.000,116.400 258.180,116.400 258.400 C 116.400 258.620,115.860 258.800,115.200 258.800 C 114.540 258.800,114.000 258.980,114.000 259.200 C 114.000 259.420,113.640 259.600,113.200 259.600 C 112.760 259.600,112.400 259.780,112.400 260.000 C 112.400 260.220,112.051 260.400,111.624 260.400 C 111.197 260.400,110.736 260.580,110.600 260.800 C 110.464 261.020,109.913 261.200,109.376 261.200 C 108.839 261.200,108.400 261.380,108.400 261.600 C 108.400 261.820,108.040 262.000,107.600 262.000 C 107.160 262.000,106.800 262.180,106.800 262.400 C 106.800 262.620,106.440 262.800,106.000 262.800 C 105.560 262.800,105.200 262.980,105.200 263.200 C 105.200 263.420,104.660 263.600,104.000 263.600 C 103.340 263.600,102.800 263.780,102.800 264.000 C 102.800 264.220,102.440 264.400,102.000 264.400 C 101.560 264.400,101.200 264.580,101.200 264.800 C 101.200 265.020,100.840 265.200,100.400 265.200 C 99.960 265.200,99.600 265.380,99.600 265.600 C 99.600 265.820,99.060 266.000,98.400 266.000 C 97.740 266.000,97.200 266.180,97.200 266.400 C 97.200 266.620,96.660 266.800,96.000 266.800 C 95.340 266.800,94.800 266.980,94.800 267.200 C 94.800 267.420,94.260 267.600,93.600 267.600 C 92.940 267.600,92.400 267.780,92.400 268.000 C 92.400 268.220,91.500 268.400,90.400 268.400 C 89.300 268.400,88.400 268.580,88.400 268.800 C 88.400 269.057,84.400 269.200,77.200 269.200 C 70.000 269.200,66.000 269.343,66.000 269.600 C 66.000 269.820,65.544 270.000,64.987 270.000 C 63.636 270.000,61.200 272.436,61.200 273.787 C 61.200 274.344,61.020 274.800,60.800 274.800 C 60.580 274.800,60.400 275.419,60.400 276.176 C 60.400 276.933,60.580 277.664,60.800 277.800 C 61.020 277.936,61.200 278.397,61.200 278.824 C 61.200 279.251,61.380 279.600,61.600 279.600 C 61.820 279.600,62.000 279.960,62.000 280.400 C 62.000 280.840,62.180 281.200,62.400 281.200 C 62.620 281.200,62.800 281.520,62.800 281.912 C 62.800 282.303,63.160 282.883,63.600 283.200 C 64.040 283.517,64.400 284.097,64.400 284.488 C 64.400 284.880,64.580 285.200,64.800 285.200 C 65.020 285.200,65.200 285.520,65.200 285.912 C 65.200 286.303,65.560 286.883,66.000 287.200 C 66.440 287.517,66.800 288.057,66.800 288.400 C 66.800 288.743,67.160 289.283,67.600 289.600 C 68.040 289.917,68.400 290.425,68.400 290.728 C 68.400 291.031,68.940 291.783,69.600 292.400 C 70.260 293.017,70.800 293.769,70.800 294.072 C 70.800 294.375,71.160 294.883,71.600 295.200 C 72.040 295.517,72.400 295.985,72.400 296.240 C 72.400 296.495,73.120 297.445,74.000 298.352 C 74.880 299.259,75.600 300.192,75.600 300.426 C 75.600 300.660,76.500 301.729,77.600 302.800 C 78.700 303.871,79.600 304.941,79.600 305.177 C 79.600 305.737,94.263 320.400,94.823 320.400 C 95.059 320.400,96.129 321.300,97.200 322.400 C 98.271 323.500,99.340 324.400,99.574 324.400 C 99.808 324.400,100.741 325.120,101.648 326.000 C 102.555 326.880,103.505 327.600,103.760 327.600 C 104.015 327.600,104.483 327.960,104.800 328.400 C 105.117 328.840,105.625 329.200,105.928 329.200 C 106.231 329.200,106.983 329.740,107.600 330.400 C 108.217 331.060,108.969 331.600,109.272 331.600 C 109.575 331.600,110.083 331.960,110.400 332.400 C 110.717 332.840,111.257 333.200,111.600 333.200 C 111.943 333.200,112.483 333.560,112.800 334.000 C 113.117 334.440,113.697 334.800,114.088 334.800 C 114.480 334.800,114.800 334.980,114.800 335.200 C 114.800 335.420,115.120 335.600,115.512 335.600 C 115.903 335.600,116.483 335.960,116.800 336.400 C 117.117 336.840,117.697 337.200,118.088 337.200 C 118.480 337.200,118.800 337.380,118.800 337.600 C 118.800 337.820,119.120 338.000,119.512 338.000 C 119.903 338.000,120.483 338.360,120.800 338.800 C 121.117 339.240,121.697 339.600,122.088 339.600 C 122.480 339.600,122.800 339.780,122.800 340.000 C 122.800 340.220,123.160 340.400,123.600 340.400 C 124.040 340.400,124.400 340.580,124.400 340.800 C 124.400 341.020,124.760 341.200,125.200 341.200 C 125.640 341.200,126.000 341.380,126.000 341.600 C 126.000 341.820,126.360 342.000,126.800 342.000 C 127.240 342.000,127.600 342.180,127.600 342.400 C 127.600 342.620,127.960 342.800,128.400 342.800 C 128.840 342.800,129.200 342.980,129.200 343.200 C 129.200 343.420,129.560 343.600,130.000 343.600 C 130.440 343.600,130.800 343.780,130.800 344.000 C 130.800 344.220,131.160 344.400,131.600 344.400 C 132.040 344.400,132.400 344.580,132.400 344.800 C 132.400 345.020,132.760 345.200,133.200 345.200 C 133.640 345.200,134.000 345.380,134.000 345.600 C 134.000 345.820,134.360 346.000,134.800 346.000 C 135.240 346.000,135.600 346.180,135.600 346.400 C 135.600 346.620,136.140 346.800,136.800 346.800 C 137.460 346.800,138.000 346.980,138.000 347.200 C 138.000 347.420,138.360 347.600,138.800 347.600 C 139.240 347.600,139.600 347.780,139.600 348.000 C 139.600 348.220,140.140 348.400,140.800 348.400 C 141.460 348.400,142.000 348.580,142.000 348.800 C 142.000 349.020,142.360 349.200,142.800 349.200 C 143.240 349.200,143.600 349.380,143.600 349.600 C 143.600 349.820,144.140 350.000,144.800 350.000 C 145.460 350.000,146.000 350.180,146.000 350.400 C 146.000 350.620,146.540 350.800,147.200 350.800 C 147.860 350.800,148.400 350.980,148.400 351.200 C 148.400 351.420,148.940 351.600,149.600 351.600 C 150.260 351.600,150.800 351.780,150.800 352.000 C 150.800 352.220,151.340 352.400,152.000 352.400 C 152.660 352.400,153.200 352.580,153.200 352.800 C 153.200 353.020,153.920 353.200,154.800 353.200 C 155.680 353.200,156.400 353.380,156.400 353.600 C 156.400 353.820,156.940 354.000,157.600 354.000 C 158.260 354.000,158.800 354.180,158.800 354.400 C 158.800 354.620,159.520 354.800,160.400 354.800 C 161.280 354.800,162.000 354.980,162.000 355.200 C 162.000 355.420,162.709 355.600,163.576 355.600 C 164.443 355.600,165.264 355.780,165.400 356.000 C 165.536 356.220,166.447 356.400,167.424 356.400 C 168.401 356.400,169.200 356.580,169.200 356.800 C 169.200 357.020,170.089 357.200,171.176 357.200 C 172.263 357.200,173.264 357.380,173.400 357.600 C 173.536 357.820,174.807 358.000,176.224 358.000 C 177.675 358.000,178.800 358.175,178.800 358.400 C 178.800 358.637,180.259 358.800,182.376 358.800 C 184.343 358.800,186.064 358.980,186.200 359.200 C 186.538 359.746,213.462 359.746,213.800 359.200 C 213.936 358.980,215.657 358.800,217.624 358.800 C 219.741 358.800,221.200 358.637,221.200 358.400 C 221.200 358.175,222.325 358.000,223.776 358.000 C 225.193 358.000,226.464 357.820,226.600 357.600 C 226.736 357.380,227.737 357.200,228.824 357.200 C 229.911 357.200,230.800 357.020,230.800 356.800 C 230.800 356.580,231.599 356.400,232.576 356.400 C 233.553 356.400,234.464 356.220,234.600 356.000 C 234.736 355.780,235.557 355.600,236.424 355.600 C 237.291 355.600,238.000 355.420,238.000 355.200 C 238.000 354.980,238.720 354.800,239.600 354.800 C 240.480 354.800,241.200 354.620,241.200 354.400 C 241.200 354.180,241.740 354.000,242.400 354.000 C 243.060 354.000,243.600 353.820,243.600 353.600 C 243.600 353.380,244.320 353.200,245.200 353.200 C 246.080 353.200,246.800 353.020,246.800 352.800 C 246.800 352.580,247.340 352.400,248.000 352.400 C 248.660 352.400,249.200 352.220,249.200 352.000 C 249.200 351.780,249.740 351.600,250.400 351.600 C 251.060 351.600,251.600 351.420,251.600 351.200 C 251.600 350.980,252.140 350.800,252.800 350.800 C 253.460 350.800,254.000 350.620,254.000 350.400 C 254.000 350.180,254.540 350.000,255.200 350.000 C 255.860 350.000,256.400 349.820,256.400 349.600 C 256.400 349.380,256.760 349.200,257.200 349.200 C 257.640 349.200,258.000 349.020,258.000 348.800 C 258.000 348.580,258.540 348.400,259.200 348.400 C 259.860 348.400,260.400 348.220,260.400 348.000 C 260.400 347.780,260.760 347.600,261.200 347.600 C 261.640 347.600,262.000 347.420,262.000 347.200 C 262.000 346.980,262.540 346.800,263.200 346.800 C 263.860 346.800,264.400 346.620,264.400 346.400 C 264.400 346.180,264.760 346.000,265.200 346.000 C 265.640 346.000,266.000 345.820,266.000 345.600 C 266.000 345.380,266.360 345.200,266.800 345.200 C 267.240 345.200,267.600 345.020,267.600 344.800 C 267.600 344.580,267.960 344.400,268.400 344.400 C 268.840 344.400,269.200 344.220,269.200 344.000 C 269.200 343.780,269.560 343.600,270.000 343.600 C 270.440 343.600,270.800 343.420,270.800 343.200 C 270.800 342.980,271.160 342.800,271.600 342.800 C 272.040 342.800,272.400 342.620,272.400 342.400 C 272.400 342.180,272.760 342.000,273.200 342.000 C 273.640 342.000,274.000 341.820,274.000 341.600 C 274.000 341.380,274.360 341.200,274.800 341.200 C 275.240 341.200,275.600 341.020,275.600 340.800 C 275.600 340.580,275.960 340.400,276.400 340.400 C 276.840 340.400,277.200 340.220,277.200 340.000 C 277.200 339.780,277.520 339.600,277.912 339.600 C 278.303 339.600,278.883 339.240,279.200 338.800 C 279.517 338.360,280.097 338.000,280.488 338.000 C 280.880 338.000,281.200 337.820,281.200 337.600 C 281.200 337.380,281.520 337.200,281.912 337.200 C 282.303 337.200,282.883 336.840,283.200 336.400 C 283.517 335.960,284.097 335.600,284.488 335.600 C 284.880 335.600,285.200 335.420,285.200 335.200 C 285.200 334.980,285.520 334.800,285.912 334.800 C 286.303 334.800,286.883 334.440,287.200 334.000 C 287.517 333.560,288.057 333.200,288.400 333.200 C 288.743 333.200,289.283 332.840,289.600 332.400 C 289.917 331.960,290.425 331.600,290.728 331.600 C 291.031 331.600,291.783 331.060,292.400 330.400 C 293.017 329.740,293.720 329.200,293.964 329.200 C 294.208 329.200,294.972 328.660,295.663 328.000 C 296.354 327.340,297.090 326.800,297.299 326.800 C 297.508 326.800,298.183 326.260,298.800 325.600 C 299.417 324.940,300.130 324.400,300.386 324.400 C 300.642 324.400,301.729 323.500,302.800 322.400 C 303.871 321.300,304.941 320.400,305.177 320.400 C 305.737 320.400,320.400 305.737,320.400 305.177 C 320.400 304.941,321.300 303.871,322.400 302.800 C 323.500 301.729,324.400 300.642,324.400 300.386 C 324.400 300.130,324.940 299.417,325.600 298.800 C 326.260 298.183,326.800 297.508,326.800 297.299 C 326.800 297.090,327.340 296.354,328.000 295.663 C 328.660 294.972,329.200 294.208,329.200 293.964 C 329.200 293.720,329.740 293.017,330.400 292.400 C 331.060 291.783,331.600 291.031,331.600 290.728 C 331.600 290.425,331.960 289.917,332.400 289.600 C 332.840 289.283,333.200 288.743,333.200 288.400 C 333.200 288.057,333.560 287.517,334.000 287.200 C 334.440 286.883,334.800 286.303,334.800 285.912 C 334.800 285.520,334.980 285.200,335.200 285.200 C 335.420 285.200,335.600 284.880,335.600 284.488 C 335.600 284.097,335.960 283.517,336.400 283.200 C 336.840 282.883,337.200 282.303,337.200 281.912 C 337.200 281.520,337.380 281.200,337.600 281.200 C 337.820 281.200,338.000 280.880,338.000 280.488 C 338.000 280.097,338.360 279.517,338.800 279.200 C 339.240 278.883,339.600 278.303,339.600 277.912 C 339.600 277.520,339.780 277.200,340.000 277.200 C 340.220 277.200,340.400 276.840,340.400 276.400 C 340.400 275.960,340.580 275.600,340.800 275.600 C 341.020 275.600,341.200 275.240,341.200 274.800 C 341.200 274.360,341.380 274.000,341.600 274.000 C 341.820 274.000,342.000 273.640,342.000 273.200 C 342.000 272.760,342.180 272.400,342.400 272.400 C 342.620 272.400,342.800 272.040,342.800 271.600 C 342.800 271.160,342.980 270.800,343.200 270.800 C 343.420 270.800,343.600 270.440,343.600 270.000 C 343.600 269.560,343.780 269.200,344.000 269.200 C 344.220 269.200,344.400 268.840,344.400 268.400 C 344.400 267.960,344.580 267.600,344.800 267.600 C 345.020 267.600,345.200 267.240,345.200 266.800 C 345.200 266.360,345.380 266.000,345.600 266.000 C 345.820 266.000,346.000 265.640,346.000 265.200 C 346.000 264.760,346.180 264.400,346.400 264.400 C 346.620 264.400,346.800 263.860,346.800 263.200 C 346.800 262.540,346.980 262.000,347.200 262.000 C 347.420 262.000,347.600 261.640,347.600 261.200 C 347.600 260.760,347.780 260.400,348.000 260.400 C 348.220 260.400,348.400 260.051,348.400 259.624 C 348.400 259.197,348.580 258.736,348.800 258.600 C 349.020 258.464,349.200 257.913,349.200 257.376 C 349.200 256.839,349.380 256.400,349.600 256.400 C 349.820 256.400,350.000 255.860,350.000 255.200 C 350.000 254.540,350.180 254.000,350.400 254.000 C 350.620 254.000,350.800 253.460,350.800 252.800 C 350.800 252.140,350.980 251.600,351.200 251.600 C 351.420 251.600,351.600 251.060,351.600 250.400 C 351.600 249.740,351.780 249.200,352.000 249.200 C 352.220 249.200,352.400 248.660,352.400 248.000 C 352.400 247.340,352.580 246.800,352.800 246.800 C 353.020 246.800,353.200 246.271,353.200 245.624 C 353.200 244.977,353.380 244.336,353.600 244.200 C 353.820 244.064,354.000 243.333,354.000 242.576 C 354.000 241.819,354.180 241.200,354.400 241.200 C 354.620 241.200,354.800 240.480,354.800 239.600 C 354.800 238.720,354.980 238.000,355.200 238.000 C 355.420 238.000,355.600 237.280,355.600 236.400 C 355.600 235.520,355.780 234.800,356.000 234.800 C 356.220 234.800,356.400 233.900,356.400 232.800 C 356.400 231.700,356.580 230.800,356.800 230.800 C 357.020 230.800,357.200 229.911,357.200 228.824 C 357.200 227.737,357.380 226.736,357.600 226.600 C 357.820 226.464,358.000 225.193,358.000 223.776 C 358.000 222.325,358.175 221.200,358.400 221.200 C 358.638 221.200,358.800 219.675,358.800 217.424 C 358.800 215.337,358.979 213.537,359.200 213.400 C 359.746 213.062,359.746 186.538,359.200 186.200 C 358.980 186.064,358.800 184.343,358.800 182.376 C 358.800 180.259,358.637 178.800,358.400 178.800 C 358.175 178.800,358.000 177.675,358.000 176.224 C 358.000 174.807,357.820 173.536,357.600 173.400 C 357.380 173.264,357.200 172.263,357.200 171.176 C 357.200 170.089,357.020 169.200,356.800 169.200 C 356.580 169.200,356.400 168.401,356.400 167.424 C 356.400 166.447,356.220 165.536,356.000 165.400 C 355.780 165.264,355.600 164.443,355.600 163.576 C 355.600 162.709,355.420 162.000,355.200 162.000 C 354.980 162.000,354.800 161.280,354.800 160.400 C 354.800 159.520,354.620 158.800,354.400 158.800 C 354.180 158.800,354.000 158.181,354.000 157.424 C 354.000 156.667,353.820 155.936,353.600 155.800 C 353.380 155.664,353.200 155.023,353.200 154.376 C 353.200 153.729,353.020 153.200,352.800 153.200 C 352.580 153.200,352.400 152.660,352.400 152.000 C 352.400 151.340,352.220 150.800,352.000 150.800 C 351.780 150.800,351.600 150.260,351.600 149.600 C 351.600 148.940,351.420 148.400,351.200 148.400 C 350.980 148.400,350.800 147.860,350.800 147.200 C 350.800 146.540,350.620 146.000,350.400 146.000 C 350.180 146.000,350.000 145.460,350.000 144.800 C 350.000 144.140,349.820 143.600,349.600 143.600 C 349.380 143.600,349.200 143.161,349.200 142.624 C 349.200 142.087,349.020 141.536,348.800 141.400 C 348.580 141.264,348.400 140.803,348.400 140.376 C 348.400 139.949,348.220 139.600,348.000 139.600 C 347.780 139.600,347.600 139.240,347.600 138.800 C 347.600 138.360,347.420 138.000,347.200 138.000 C 346.980 138.000,346.800 137.460,346.800 136.800 C 346.800 136.140,346.620 135.600,346.400 135.600 C 346.180 135.600,346.000 135.240,346.000 134.800 C 346.000 134.360,345.820 134.000,345.600 134.000 C 345.380 134.000,345.200 133.640,345.200 133.200 C 345.200 132.760,345.020 132.400,344.800 132.400 C 344.580 132.400,344.400 132.040,344.400 131.600 C 344.400 131.160,344.220 130.800,344.000 130.800 C 343.780 130.800,343.600 130.440,343.600 130.000 C 343.600 129.560,343.420 129.200,343.200 129.200 C 342.980 129.200,342.800 128.840,342.800 128.400 C 342.800 127.960,342.620 127.600,342.400 127.600 C 342.180 127.600,342.000 127.240,342.000 126.800 C 342.000 126.360,341.820 126.000,341.600 126.000 C 341.380 126.000,341.200 125.640,341.200 125.200 C 341.200 124.760,341.020 124.400,340.800 124.400 C 340.580 124.400,340.400 124.040,340.400 123.600 C 340.400 123.160,340.220 122.800,340.000 122.800 C 339.780 122.800,339.600 122.480,339.600 122.088 C 339.600 121.697,339.240 121.117,338.800 120.800 C 338.360 120.483,338.000 119.903,338.000 119.512 C 338.000 119.120,337.820 118.800,337.600 118.800 C 337.380 118.800,337.200 118.480,337.200 118.088 C 337.200 117.697,336.840 117.117,336.400 116.800 C 335.960 116.483,335.600 115.903,335.600 115.512 C 335.600 115.120,335.420 114.800,335.200 114.800 C 334.980 114.800,334.800 114.480,334.800 114.088 C 334.800 113.697,334.440 113.117,334.000 112.800 C 333.560 112.483,333.200 111.943,333.200 111.600 C 333.200 111.257,332.840 110.717,332.400 110.400 C 331.960 110.083,331.600 109.575,331.600 109.272 C 331.600 108.969,331.060 108.217,330.400 107.600 C 329.740 106.983,329.200 106.231,329.200 105.928 C 329.200 105.625,328.840 105.117,328.400 104.800 C 327.960 104.483,327.600 104.015,327.600 103.760 C 327.600 103.505,326.880 102.555,326.000 101.648 C 325.120 100.741,324.400 99.808,324.400 99.574 C 324.400 99.340,323.500 98.271,322.400 97.200 C 321.300 96.129,320.400 95.059,320.400 94.823 C 320.400 94.263,305.737 79.600,305.177 79.600 C 304.941 79.600,303.871 78.700,302.800 77.600 C 301.729 76.500,300.660 75.600,300.426 75.600 C 300.192 75.600,299.259 74.880,298.352 74.000 C 297.445 73.120,296.495 72.400,296.240 72.400 C 295.985 72.400,295.517 72.040,295.200 71.600 C 294.883 71.160,294.375 70.800,294.072 70.800 C 293.769 70.800,293.017 70.260,292.400 69.600 C 291.783 68.940,291.031 68.400,290.728 68.400 C 290.425 68.400,289.917 68.040,289.600 67.600 C 289.283 67.160,288.743 66.800,288.400 66.800 C 288.057 66.800,287.517 66.440,287.200 66.000 C 286.883 65.560,286.303 65.200,285.912 65.200 C 285.520 65.200,285.200 65.020,285.200 64.800 C 285.200 64.580,284.880 64.400,284.488 64.400 C 284.097 64.400,283.517 64.040,283.200 63.600 C 282.883 63.160,282.303 62.800,281.912 62.800 C 281.520 62.800,281.200 62.620,281.200 62.400 C 281.200 62.180,280.880 62.000,280.488 62.000 C 280.097 62.000,279.517 61.640,279.200 61.200 C 278.883 60.760,278.303 60.400,277.912 60.400 C 277.520 60.400,277.200 60.220,277.200 60.000 C 277.200 59.780,276.840 59.600,276.400 59.600 C 275.960 59.600,275.600 59.420,275.600 59.200 C 275.600 58.980,275.240 58.800,274.800 58.800 C 274.360 58.800,274.000 58.620,274.000 58.400 C 274.000 58.180,273.640 58.000,273.200 58.000 C 272.760 58.000,272.400 57.820,272.400 57.600 C 272.400 57.380,272.040 57.200,271.600 57.200 C 271.160 57.200,270.800 57.020,270.800 56.800 C 270.800 56.580,270.440 56.400,270.000 56.400 C 269.560 56.400,269.200 56.220,269.200 56.000 C 269.200 55.780,268.840 55.600,268.400 55.600 C 267.960 55.600,267.600 55.420,267.600 55.200 C 267.600 54.980,267.240 54.800,266.800 54.800 C 266.360 54.800,266.000 54.620,266.000 54.400 C 266.000 54.180,265.640 54.000,265.200 54.000 C 264.760 54.000,264.400 53.820,264.400 53.600 C 264.400 53.380,263.860 53.200,263.200 53.200 C 262.540 53.200,262.000 53.020,262.000 52.800 C 262.000 52.580,261.640 52.400,261.200 52.400 C 260.760 52.400,260.400 52.220,260.400 52.000 C 260.400 51.780,260.051 51.600,259.624 51.600 C 259.197 51.600,258.736 51.420,258.600 51.200 C 258.464 50.980,257.913 50.800,257.376 50.800 C 256.839 50.800,256.400 50.620,256.400 50.400 C 256.400 50.180,255.860 50.000,255.200 50.000 C 254.540 50.000,254.000 49.820,254.000 49.600 C 254.000 49.380,253.460 49.200,252.800 49.200 C 252.140 49.200,251.600 49.020,251.600 48.800 C 251.600 48.580,251.060 48.400,250.400 48.400 C 249.740 48.400,249.200 48.220,249.200 48.000 C 249.200 47.780,248.660 47.600,248.000 47.600 C 247.340 47.600,246.800 47.420,246.800 47.200 C 246.800 46.980,246.271 46.800,245.624 46.800 C 244.977 46.800,244.336 46.620,244.200 46.400 C 244.064 46.180,243.333 46.000,242.576 46.000 C 241.819 46.000,241.200 45.820,241.200 45.600 C 241.200 45.380,240.480 45.200,239.600 45.200 C 238.720 45.200,238.000 45.020,238.000 44.800 C 238.000 44.580,237.291 44.400,236.424 44.400 C 235.557 44.400,234.736 44.220,234.600 44.000 C 234.464 43.780,233.553 43.600,232.576 43.600 C 231.599 43.600,230.800 43.420,230.800 43.200 C 230.800 42.980,229.911 42.800,228.824 42.800 C 227.737 42.800,226.736 42.620,226.600 42.400 C 226.464 42.180,225.193 42.000,223.776 42.000 C 222.325 42.000,221.200 41.825,221.200 41.600 C 221.200 41.363,219.741 41.200,217.624 41.200 C 215.657 41.200,213.936 41.020,213.800 40.800 C 213.643 40.546,208.604 40.400,200.000 40.400 C 191.396 40.400,186.357 40.546,186.200 40.800 M218.000 47.615 C 230.533 49.301,244.886 52.688,251.800 55.588 C 252.240 55.773,254.130 56.512,256.000 57.230 C 262.883 59.875,270.949 63.781,277.800 67.787 C 282.378 70.465,294.514 78.879,296.000 80.405 C 296.110 80.519,297.190 81.415,298.400 82.398 C 304.146 87.064,312.936 95.854,317.602 101.600 C 318.585 102.810,319.481 103.890,319.595 104.000 C 325.442 109.691,337.750 130.935,342.770 144.000 C 343.488 145.870,344.227 147.760,344.412 148.200 C 347.283 155.044,350.691 169.457,352.450 182.200 C 353.111 186.989,353.120 213.445,352.462 217.600 C 352.200 219.250,351.798 221.950,351.567 223.600 C 351.337 225.250,350.994 227.320,350.807 228.200 C 350.619 229.080,350.245 230.880,349.976 232.200 C 348.850 237.725,345.781 248.537,344.412 251.800 C 344.227 252.240,343.488 254.130,342.770 256.000 C 336.443 272.461,324.737 291.271,313.475 303.070 C 312.178 304.428,310.862 305.905,310.549 306.352 C 309.569 307.751,300.422 315.971,295.250 320.100 C 283.500 329.482,269.423 337.613,256.000 342.770 C 254.130 343.488,252.240 344.232,251.800 344.421 C 249.072 345.598,238.162 348.699,232.400 349.936 C 228.273 350.821,226.444 351.158,223.600 351.555 C 221.950 351.786,219.070 352.195,217.200 352.465 C 212.600 353.128,187.400 353.128,182.800 352.465 C 180.930 352.195,178.050 351.789,176.400 351.561 C 174.750 351.334,172.680 350.997,171.800 350.813 C 170.920 350.629,169.210 350.273,168.000 350.022 C 162.454 348.873,151.028 345.641,148.200 344.421 C 147.760 344.232,145.870 343.488,144.000 342.770 C 130.269 337.495,113.950 327.967,103.208 318.955 C 95.329 312.344,88.590 305.693,82.788 298.800 C 81.585 297.370,80.510 296.110,80.400 296.000 C 78.037 293.637,67.200 277.531,67.200 276.382 C 67.200 276.155,69.844 276.000,73.731 276.000 C 80.537 276.000,87.439 275.510,91.200 274.759 C 93.599 274.280,101.036 272.063,102.000 271.539 C 102.894 271.053,107.992 268.800,108.198 268.800 C 108.296 268.800,109.327 268.370,110.488 267.845 C 115.433 265.608,116.373 265.199,118.432 264.386 C 129.686 259.942,143.321 258.069,153.167 259.613 C 157.642 260.314,160.557 260.860,161.600 261.190 C 162.150 261.365,163.410 261.729,164.400 262.000 C 166.923 262.692,171.122 264.212,175.200 265.909 C 183.302 269.282,188.765 270.382,197.469 270.393 C 203.321 270.400,205.008 270.206,210.200 268.927 C 213.979 267.997,214.651 267.786,220.800 265.611 C 231.621 261.783,232.884 261.394,239.800 259.774 C 253.895 256.473,270.852 259.176,286.603 267.235 C 295.153 271.610,303.133 273.600,312.127 273.600 L 316.762 273.600 317.917 271.900 C 319.785 269.151,323.959 261.333,325.765 257.200 C 326.390 255.770,327.329 253.650,327.851 252.488 C 328.373 251.327,328.800 250.122,328.800 249.812 C 328.800 249.501,328.983 249.134,329.207 248.996 C 330.473 248.213,328.225 248.000,318.676 247.997 C 307.070 247.993,300.927 247.395,294.400 245.632 C 293.630 245.424,292.550 245.137,292.000 244.994 C 291.450 244.850,290.640 244.586,290.200 244.407 C 289.760 244.228,288.770 243.864,288.000 243.600 C 285.862 242.866,285.437 242.676,279.000 239.593 C 271.774 236.132,271.200 235.889,268.500 235.154 C 267.785 234.959,266.525 234.616,265.700 234.392 C 259.882 232.809,251.776 232.410,245.565 233.400 C 239.275 234.403,239.130 234.446,221.800 240.429 C 203.042 246.905,187.917 246.438,168.796 238.792 C 152.105 232.118,137.064 231.726,124.104 237.628 C 123.172 238.053,122.322 238.400,122.216 238.400 C 122.110 238.400,121.028 238.850,119.812 239.400 C 118.595 239.950,116.605 240.850,115.388 241.400 C 114.172 241.950,113.097 242.400,113.000 242.400 C 112.903 242.400,111.870 242.836,110.705 243.369 C 104.549 246.185,98.912 247.944,92.050 249.189 C 89.384 249.673,71.736 250.361,61.368 250.386 C 54.659 250.402,55.192 250.619,54.058 247.400 C 51.656 240.577,49.066 228.797,47.551 217.800 C 46.879 212.921,46.879 187.079,47.551 182.200 C 49.302 169.486,52.716 155.047,55.588 148.200 C 55.773 147.760,56.512 145.870,57.230 144.000 C 72.187 105.071,105.071 72.187,144.000 57.230 C 145.870 56.512,147.760 55.773,148.200 55.588 C 155.255 52.628,171.371 48.862,182.400 47.596 C 189.505 46.780,211.889 46.792,218.000 47.615 M190.000 62.210 C 182.816 62.790,179.923 63.177,173.200 64.455 C 170.469 64.974,164.541 66.354,163.200 66.783 C 162.650 66.959,160.850 67.507,159.200 67.999 C 157.550 68.492,155.840 69.042,155.400 69.221 C 154.960 69.400,153.880 69.776,153.000 70.055 C 152.120 70.335,151.229 70.707,151.020 70.882 C 150.811 71.057,150.411 71.200,150.132 71.200 C 149.852 71.200,148.673 71.627,147.512 72.149 C 146.350 72.671,144.230 73.610,142.800 74.235 C 136.546 76.968,126.930 82.460,121.140 86.605 C 118.401 88.566,114.659 91.339,114.400 91.599 C 114.290 91.710,113.210 92.605,112.000 93.589 C 106.094 98.391,98.391 106.094,93.589 112.000 C 92.605 113.210,91.710 114.290,91.599 114.400 C 91.339 114.659,88.566 118.401,86.605 121.140 C 82.460 126.930,76.968 136.546,74.235 142.800 C 73.610 144.230,72.671 146.350,72.149 147.512 C 71.627 148.673,71.200 149.852,71.200 150.132 C 71.200 150.411,71.057 150.811,70.882 151.020 C 70.707 151.229,70.335 152.120,70.055 153.000 C 69.776 153.880,69.400 154.960,69.221 155.400 C 69.042 155.840,68.492 157.550,67.999 159.200 C 67.507 160.850,66.959 162.650,66.783 163.200 C 60.775 181.983,60.274 208.623,65.496 231.695 C 66.326 235.362,65.561 235.170,77.800 234.782 C 89.986 234.395,95.257 233.513,101.400 230.831 C 101.840 230.639,102.830 230.213,103.600 229.884 C 104.370 229.555,106.040 228.817,107.312 228.243 C 108.583 227.669,109.703 227.200,109.800 227.200 C 109.897 227.200,110.972 226.750,112.188 226.200 C 113.405 225.650,115.345 224.773,116.500 224.252 C 118.340 223.421,123.831 221.497,127.400 220.434 C 128.060 220.237,129.860 219.860,131.400 219.597 C 132.940 219.334,135.064 218.957,136.120 218.759 C 142.184 217.625,155.769 218.632,163.300 220.773 C 164.125 221.008,165.385 221.356,166.100 221.547 C 167.172 221.834,174.774 224.734,177.800 226.010 C 178.240 226.196,179.680 226.697,181.000 227.124 C 183.252 227.852,184.714 228.191,189.920 229.192 C 194.720 230.116,204.819 229.532,210.500 228.004 C 214.947 226.807,215.481 226.641,217.000 225.979 C 217.440 225.787,219.690 225.003,222.000 224.236 C 224.310 223.468,227.280 222.448,228.600 221.968 C 229.920 221.488,231.585 220.939,232.300 220.748 C 233.015 220.557,234.275 220.206,235.100 219.970 C 242.143 217.950,253.992 217.028,260.367 218.003 C 271.507 219.707,275.505 220.938,285.000 225.589 C 297.870 231.893,302.496 232.807,321.510 232.803 L 334.020 232.800 334.444 231.700 C 334.678 231.095,335.033 229.700,335.235 228.600 C 339.119 207.380,339.202 192.438,335.545 173.200 C 335.026 170.469,333.646 164.541,333.217 163.200 C 333.041 162.650,332.493 160.850,332.001 159.200 C 331.508 157.550,330.958 155.840,330.779 155.400 C 330.600 154.960,330.224 153.880,329.945 153.000 C 329.665 152.120,329.293 151.229,329.118 151.020 C 328.943 150.811,328.800 150.411,328.800 150.132 C 328.800 149.852,328.373 148.673,327.851 147.512 C 327.329 146.350,326.390 144.230,325.765 142.800 C 323.032 136.546,317.540 126.930,313.395 121.140 C 311.434 118.401,308.661 114.659,308.401 114.400 C 308.290 114.290,307.395 113.210,306.411 112.000 C 301.609 106.094,293.906 98.391,288.000 93.589 C 286.790 92.605,285.710 91.710,285.600 91.599 C 285.341 91.339,281.599 88.566,278.860 86.605 C 273.070 82.460,263.454 76.968,257.200 74.235 C 255.770 73.610,253.650 72.671,252.488 72.149 C 251.327 71.627,250.148 71.200,249.868 71.200 C 249.589 71.200,249.189 71.057,248.980 70.882 C 248.771 70.707,247.880 70.335,247.000 70.055 C 246.120 69.776,245.040 69.400,244.600 69.221 C 244.160 69.042,242.450 68.492,240.800 67.999 C 239.150 67.507,237.350 66.959,236.800 66.783 C 224.737 62.924,205.016 60.997,190.000 62.210 M212.400 68.800 C 212.400 69.035,213.792 69.200,215.776 69.200 C 217.633 69.200,219.264 69.380,219.400 69.600 C 219.536 69.820,220.717 70.000,222.024 70.000 C 223.341 70.000,224.400 70.178,224.400 70.400 C 224.400 70.620,225.300 70.800,226.400 70.800 C 227.500 70.800,228.400 70.980,228.400 71.200 C 228.400 71.420,229.120 71.600,230.000 71.600 C 230.880 71.600,231.600 71.780,231.600 72.000 C 231.600 72.220,232.320 72.400,233.200 72.400 C 234.080 72.400,234.800 72.580,234.800 72.800 C 234.800 73.020,235.340 73.200,236.000 73.200 C 236.660 73.200,237.200 73.380,237.200 73.600 C 237.200 73.820,237.740 74.000,238.400 74.000 C 239.060 74.000,239.600 74.180,239.600 74.400 C 239.600 74.620,240.140 74.800,240.800 74.800 C 241.460 74.800,242.000 74.980,242.000 75.200 C 242.000 75.420,242.540 75.600,243.200 75.600 C 243.860 75.600,244.400 75.780,244.400 76.000 C 244.400 76.220,244.940 76.400,245.600 76.400 C 246.260 76.400,246.800 76.580,246.800 76.800 C 246.800 77.020,247.160 77.200,247.600 77.200 C 248.040 77.200,248.400 77.380,248.400 77.600 C 248.400 77.820,248.940 78.000,249.600 78.000 C 250.260 78.000,250.800 78.180,250.800 78.400 C 250.800 78.620,251.160 78.800,251.600 78.800 C 252.040 78.800,252.400 78.980,252.400 79.200 C 252.400 79.420,252.760 79.600,253.200 79.600 C 253.640 79.600,254.000 79.780,254.000 80.000 C 254.000 80.220,254.540 80.400,255.200 80.400 C 255.860 80.400,256.400 80.580,256.400 80.800 C 256.400 81.020,256.760 81.200,257.200 81.200 C 257.640 81.200,258.000 81.380,258.000 81.600 C 258.000 81.820,258.360 82.000,258.800 82.000 C 259.240 82.000,259.600 82.180,259.600 82.400 C 259.600 82.620,259.878 82.800,260.217 82.800 C 260.556 82.800,261.220 83.160,261.692 83.600 C 262.164 84.040,262.787 84.400,263.075 84.400 C 263.364 84.400,263.600 84.580,263.600 84.800 C 263.600 85.020,263.960 85.200,264.400 85.200 C 264.840 85.200,265.200 85.380,265.200 85.600 C 265.200 85.820,265.478 86.000,265.817 86.000 C 266.156 86.000,266.820 86.360,267.292 86.800 C 267.764 87.240,268.387 87.600,268.675 87.600 C 268.964 87.600,269.200 87.780,269.200 88.000 C 269.200 88.220,269.520 88.400,269.912 88.400 C 270.303 88.400,270.883 88.760,271.200 89.200 C 271.517 89.640,272.057 90.000,272.400 90.000 C 272.743 90.000,273.283 90.360,273.600 90.800 C 273.917 91.240,274.425 91.600,274.728 91.600 C 275.031 91.600,275.783 92.140,276.400 92.800 C 277.017 93.460,277.737 94.000,278.000 94.000 C 278.263 94.000,278.983 94.540,279.600 95.200 C 280.217 95.860,280.930 96.400,281.186 96.400 C 281.442 96.400,282.529 97.300,283.600 98.400 C 284.671 99.500,285.741 100.400,285.977 100.400 C 286.537 100.400,299.600 113.463,299.600 114.023 C 299.600 114.259,300.500 115.329,301.600 116.400 C 302.700 117.471,303.600 118.558,303.600 118.814 C 303.600 119.070,304.140 119.783,304.800 120.400 C 305.460 121.017,306.000 121.737,306.000 122.000 C 306.000 122.263,306.540 122.983,307.200 123.600 C 307.860 124.217,308.400 124.969,308.400 125.272 C 308.400 125.575,308.760 126.083,309.200 126.400 C 309.640 126.717,310.000 127.257,310.000 127.600 C 310.000 127.943,310.360 128.483,310.800 128.800 C 311.240 129.117,311.600 129.697,311.600 130.088 C 311.600 130.480,311.780 130.800,312.000 130.800 C 312.220 130.800,312.400 131.036,312.400 131.325 C 312.400 131.613,312.760 132.236,313.200 132.708 C 313.640 133.180,314.000 133.844,314.000 134.183 C 314.000 134.522,314.180 134.800,314.400 134.800 C 314.620 134.800,314.800 135.160,314.800 135.600 C 314.800 136.040,314.980 136.400,315.200 136.400 C 315.420 136.400,315.600 136.636,315.600 136.925 C 315.600 137.213,315.960 137.836,316.400 138.308 C 316.840 138.780,317.200 139.444,317.200 139.783 C 317.200 140.122,317.380 140.400,317.600 140.400 C 317.820 140.400,318.000 140.760,318.000 141.200 C 318.000 141.640,318.180 142.000,318.400 142.000 C 318.620 142.000,318.800 142.360,318.800 142.800 C 318.800 143.240,318.980 143.600,319.200 143.600 C 319.420 143.600,319.600 144.140,319.600 144.800 C 319.600 145.460,319.780 146.000,320.000 146.000 C 320.220 146.000,320.400 146.360,320.400 146.800 C 320.400 147.240,320.580 147.600,320.800 147.600 C 321.020 147.600,321.200 147.960,321.200 148.400 C 321.200 148.840,321.380 149.200,321.600 149.200 C 321.820 149.200,322.000 149.740,322.000 150.400 C 322.000 151.060,322.180 151.600,322.400 151.600 C 322.620 151.600,322.800 151.960,322.800 152.400 C 322.800 152.840,322.980 153.200,323.200 153.200 C 323.420 153.200,323.600 153.740,323.600 154.400 C 323.600 155.060,323.780 155.600,324.000 155.600 C 324.220 155.600,324.400 156.140,324.400 156.800 C 324.400 157.460,324.580 158.000,324.800 158.000 C 325.020 158.000,325.200 158.540,325.200 159.200 C 325.200 159.860,325.380 160.400,325.600 160.400 C 325.820 160.400,326.000 160.940,326.000 161.600 C 326.000 162.260,326.180 162.800,326.400 162.800 C 326.620 162.800,326.800 163.340,326.800 164.000 C 326.800 164.660,326.980 165.200,327.200 165.200 C 327.420 165.200,327.600 165.920,327.600 166.800 C 327.600 167.680,327.780 168.400,328.000 168.400 C 328.220 168.400,328.400 169.120,328.400 170.000 C 328.400 170.880,328.580 171.600,328.800 171.600 C 329.020 171.600,329.200 172.500,329.200 173.600 C 329.200 174.700,329.380 175.600,329.600 175.600 C 329.822 175.600,330.000 176.659,330.000 177.976 C 330.000 179.283,330.180 180.464,330.400 180.600 C 330.620 180.736,330.800 182.367,330.800 184.224 C 330.800 186.208,330.965 187.600,331.200 187.600 C 331.458 187.600,331.600 192.000,331.600 200.000 C 331.600 208.000,331.458 212.400,331.200 212.400 C 330.967 212.400,330.800 213.725,330.800 215.576 C 330.800 217.323,330.620 218.864,330.400 219.000 C 330.180 219.136,330.000 220.407,330.000 221.824 C 330.000 223.275,329.825 224.400,329.600 224.400 C 329.380 224.400,329.200 224.760,329.200 225.200 C 329.200 225.983,328.933 226.000,316.400 226.000 C 308.133 226.000,303.600 225.858,303.600 225.600 C 303.600 225.380,302.891 225.200,302.024 225.200 C 301.157 225.200,300.336 225.020,300.200 224.800 C 300.064 224.580,299.333 224.400,298.576 224.400 C 297.819 224.400,297.200 224.220,297.200 224.000 C 297.200 223.780,296.761 223.600,296.224 223.600 C 295.687 223.600,295.136 223.420,295.000 223.200 C 294.864 222.980,294.403 222.800,293.976 222.800 C 293.549 222.800,293.200 222.620,293.200 222.400 C 293.200 222.180,292.840 222.000,292.400 222.000 C 291.960 222.000,291.600 221.820,291.600 221.600 C 291.600 221.380,291.240 221.200,290.800 221.200 C 290.360 221.200,290.000 221.020,290.000 220.800 C 290.000 220.580,289.640 220.400,289.200 220.400 C 288.760 220.400,288.400 220.220,288.400 220.000 C 288.400 219.780,288.040 219.600,287.600 219.600 C 287.160 219.600,286.800 219.420,286.800 219.200 C 286.800 218.980,286.440 218.800,286.000 218.800 C 285.560 218.800,285.200 218.620,285.200 218.400 C 285.200 218.180,284.840 218.000,284.400 218.000 C 283.960 218.000,283.600 217.820,283.600 217.600 C 283.600 217.380,283.060 217.200,282.400 217.200 C 281.740 217.200,281.200 217.020,281.200 216.800 C 281.200 216.580,280.840 216.400,280.400 216.400 C 279.960 216.400,279.600 216.220,279.600 216.000 C 279.600 215.780,279.060 215.600,278.400 215.600 C 277.740 215.600,277.200 215.420,277.200 215.200 C 277.200 214.980,276.660 214.800,276.000 214.800 C 275.340 214.800,274.800 214.620,274.800 214.400 C 274.800 214.180,274.080 214.000,273.200 214.000 C 272.320 214.000,271.600 213.820,271.600 213.600 C 271.600 213.380,270.801 213.200,269.824 213.200 C 268.847 213.200,267.936 213.020,267.800 212.800 C 267.664 212.580,266.663 212.400,265.576 212.400 C 264.489 212.400,263.600 212.220,263.600 212.000 C 263.600 211.743,259.733 211.600,252.800 211.600 C 245.867 211.600,242.000 211.743,242.000 212.000 C 242.000 212.220,241.111 212.400,240.024 212.400 C 238.937 212.400,237.936 212.580,237.800 212.800 C 237.664 213.020,236.753 213.200,235.776 213.200 C 234.799 213.200,234.000 213.380,234.000 213.600 C 234.000 213.820,233.460 214.000,232.800 214.000 C 232.140 214.000,231.600 214.180,231.600 214.400 C 231.600 214.620,230.880 214.800,230.000 214.800 C 229.120 214.800,228.400 214.980,228.400 215.200 C 228.400 215.420,227.860 215.600,227.200 215.600 C 226.540 215.600,226.000 215.780,226.000 216.000 C 226.000 216.220,225.460 216.400,224.800 216.400 C 224.140 216.400,223.600 216.580,223.600 216.800 C 223.600 217.020,223.240 217.200,222.800 217.200 C 222.360 217.200,222.000 217.380,222.000 217.600 C 222.000 217.820,221.460 218.000,220.800 218.000 C 220.140 218.000,219.600 218.180,219.600 218.400 C 219.600 218.620,219.060 218.800,218.400 218.800 C 217.740 218.800,217.200 218.980,217.200 219.200 C 217.200 219.420,216.660 219.600,216.000 219.600 C 215.340 219.600,214.800 219.780,214.800 220.000 C 214.800 220.220,214.260 220.400,213.600 220.400 C 212.940 220.400,212.400 220.580,212.400 220.800 C 212.400 221.020,211.860 221.200,211.200 221.200 C 210.540 221.200,210.000 221.380,210.000 221.600 C 210.000 221.820,209.280 222.000,208.400 222.000 C 207.520 222.000,206.800 222.180,206.800 222.400 C 206.800 222.633,205.467 222.800,203.600 222.800 C 201.733 222.800,200.400 222.967,200.400 223.200 C 200.400 223.428,199.208 223.600,197.624 223.600 C 196.097 223.600,194.736 223.420,194.600 223.200 C 194.464 222.980,193.024 222.800,191.400 222.800 C 189.776 222.800,188.336 222.620,188.200 222.400 C 188.064 222.180,187.153 222.000,186.176 222.000 C 185.199 222.000,184.400 221.820,184.400 221.600 C 184.400 221.380,183.860 221.200,183.200 221.200 C 182.540 221.200,182.000 221.020,182.000 220.800 C 182.000 220.580,181.640 220.400,181.200 220.400 C 180.760 220.400,180.400 220.220,180.400 220.000 C 180.400 219.780,179.860 219.600,179.200 219.600 C 178.540 219.600,178.000 219.420,178.000 219.200 C 178.000 218.980,177.640 218.800,177.200 218.800 C 176.760 218.800,176.400 218.620,176.400 218.400 C 176.400 218.180,175.860 218.000,175.200 218.000 C 174.540 218.000,174.000 217.820,174.000 217.600 C 174.000 217.380,173.460 217.200,172.800 217.200 C 172.140 217.200,171.600 217.020,171.600 216.800 C 171.600 216.580,171.240 216.400,170.800 216.400 C 170.360 216.400,170.000 216.220,170.000 216.000 C 170.000 215.780,169.471 215.600,168.824 215.600 C 168.177 215.600,167.536 215.420,167.400 215.200 C 167.264 214.980,166.533 214.800,165.776 214.800 C 165.019 214.800,164.400 214.620,164.400 214.400 C 164.400 214.180,163.680 214.000,162.800 214.000 C 161.920 214.000,161.200 213.820,161.200 213.600 C 161.200 213.380,160.221 213.200,159.024 213.200 C 157.827 213.200,156.736 213.020,156.600 212.800 C 156.464 212.580,154.934 212.400,153.200 212.400 C 151.466 212.400,149.936 212.220,149.800 212.000 C 149.657 211.768,147.463 211.600,144.576 211.600 C 141.525 211.600,139.600 211.755,139.600 212.000 C 139.600 212.235,138.208 212.400,136.224 212.400 C 134.367 212.400,132.736 212.580,132.600 212.800 C 132.464 213.020,131.564 213.200,130.600 213.200 C 129.636 213.200,128.736 213.380,128.600 213.600 C 128.464 213.820,127.744 214.000,127.000 214.000 C 126.256 214.000,125.536 214.180,125.400 214.400 C 125.264 214.620,124.623 214.800,123.976 214.800 C 123.329 214.800,122.800 214.980,122.800 215.200 C 122.800 215.420,122.181 215.600,121.424 215.600 C 120.667 215.600,119.936 215.780,119.800 216.000 C 119.664 216.220,119.203 216.400,118.776 216.400 C 118.349 216.400,118.000 216.580,118.000 216.800 C 118.000 217.020,117.460 217.200,116.800 217.200 C 116.140 217.200,115.600 217.380,115.600 217.600 C 115.600 217.820,115.240 218.000,114.800 218.000 C 114.360 218.000,114.000 218.180,114.000 218.400 C 114.000 218.620,113.460 218.800,112.800 218.800 C 112.140 218.800,111.600 218.980,111.600 219.200 C 111.600 219.420,111.240 219.600,110.800 219.600 C 110.360 219.600,110.000 219.780,110.000 220.000 C 110.000 220.220,109.640 220.400,109.200 220.400 C 108.760 220.400,108.400 220.580,108.400 220.800 C 108.400 221.020,108.040 221.200,107.600 221.200 C 107.160 221.200,106.800 221.380,106.800 221.600 C 106.800 221.820,106.260 222.000,105.600 222.000 C 104.940 222.000,104.400 222.180,104.400 222.400 C 104.400 222.620,104.040 222.800,103.600 222.800 C 103.160 222.800,102.800 222.980,102.800 223.200 C 102.800 223.420,102.440 223.600,102.000 223.600 C 101.560 223.600,101.200 223.780,101.200 224.000 C 101.200 224.220,100.660 224.400,100.000 224.400 C 99.340 224.400,98.800 224.580,98.800 224.800 C 98.800 225.020,98.440 225.200,98.000 225.200 C 97.560 225.200,97.200 225.380,97.200 225.600 C 97.200 225.820,96.660 226.000,96.000 226.000 C 95.340 226.000,94.800 226.180,94.800 226.400 C 94.800 226.620,94.181 226.800,93.424 226.800 C 92.667 226.800,91.936 226.980,91.800 227.200 C 91.664 227.420,90.699 227.600,89.656 227.600 C 88.613 227.600,87.576 227.784,87.351 228.009 C 87.093 228.267,84.012 228.377,78.971 228.309 L 71.000 228.200 70.876 226.200 C 70.808 225.100,70.583 224.029,70.376 223.820 C 70.169 223.611,70.000 222.497,70.000 221.344 C 70.000 220.191,69.820 219.136,69.600 219.000 C 69.380 218.864,69.200 217.323,69.200 215.576 C 69.200 213.725,69.033 212.400,68.800 212.400 C 68.542 212.400,68.400 208.000,68.400 200.000 C 68.400 192.000,68.542 187.600,68.800 187.600 C 69.035 187.600,69.200 186.208,69.200 184.224 C 69.200 182.367,69.380 180.736,69.600 180.600 C 69.820 180.464,70.000 179.283,70.000 177.976 C 70.000 176.659,70.178 175.600,70.400 175.600 C 70.620 175.600,70.800 174.700,70.800 173.600 C 70.800 172.500,70.980 171.600,71.200 171.600 C 71.420 171.600,71.600 170.880,71.600 170.000 C 71.600 169.120,71.780 168.400,72.000 168.400 C 72.220 168.400,72.400 167.680,72.400 166.800 C 72.400 165.920,72.580 165.200,72.800 165.200 C 73.020 165.200,73.200 164.660,73.200 164.000 C 73.200 163.340,73.380 162.800,73.600 162.800 C 73.820 162.800,74.000 162.260,74.000 161.600 C 74.000 160.940,74.180 160.400,74.400 160.400 C 74.620 160.400,74.800 159.860,74.800 159.200 C 74.800 158.540,74.980 158.000,75.200 158.000 C 75.420 158.000,75.600 157.460,75.600 156.800 C 75.600 156.140,75.780 155.600,76.000 155.600 C 76.220 155.600,76.400 155.060,76.400 154.400 C 76.400 153.740,76.580 153.200,76.800 153.200 C 77.020 153.200,77.200 152.840,77.200 152.400 C 77.200 151.960,77.380 151.600,77.600 151.600 C 77.820 151.600,78.000 151.060,78.000 150.400 C 78.000 149.740,78.180 149.200,78.400 149.200 C 78.620 149.200,78.800 148.840,78.800 148.400 C 78.800 147.960,78.980 147.600,79.200 147.600 C 79.420 147.600,79.600 147.240,79.600 146.800 C 79.600 146.360,79.780 146.000,80.000 146.000 C 80.220 146.000,80.400 145.460,80.400 144.800 C 80.400 144.140,80.580 143.600,80.800 143.600 C 81.020 143.600,81.200 143.240,81.200 142.800 C 81.200 142.360,81.380 142.000,81.600 142.000 C 81.820 142.000,82.000 141.640,82.000 141.200 C 82.000 140.760,82.180 140.400,82.400 140.400 C 82.620 140.400,82.800 140.122,82.800 139.783 C 82.800 139.444,83.160 138.780,83.600 138.308 C 84.040 137.836,84.400 137.213,84.400 136.925 C 84.400 136.636,84.580 136.400,84.800 136.400 C 85.020 136.400,85.200 136.040,85.200 135.600 C 85.200 135.160,85.380 134.800,85.600 134.800 C 85.820 134.800,86.000 134.522,86.000 134.183 C 86.000 133.844,86.360 133.180,86.800 132.708 C 87.240 132.236,87.600 131.613,87.600 131.325 C 87.600 131.036,87.780 130.800,88.000 130.800 C 88.220 130.800,88.400 130.480,88.400 130.088 C 88.400 129.697,88.760 129.117,89.200 128.800 C 89.640 128.483,90.000 127.943,90.000 127.600 C 90.000 127.257,90.360 126.717,90.800 126.400 C 91.240 126.083,91.600 125.575,91.600 125.272 C 91.600 124.969,92.140 124.217,92.800 123.600 C 93.460 122.983,94.000 122.263,94.000 122.000 C 94.000 121.737,94.540 121.017,95.200 120.400 C 95.860 119.783,96.400 119.070,96.400 118.814 C 96.400 118.558,97.300 117.471,98.400 116.400 C 99.500 115.329,100.400 114.259,100.400 114.023 C 100.400 113.463,113.463 100.400,114.023 100.400 C 114.259 100.400,115.329 99.500,116.400 98.400 C 117.471 97.300,118.558 96.400,118.814 96.400 C 119.070 96.400,119.783 95.860,120.400 95.200 C 121.017 94.540,121.737 94.000,122.000 94.000 C 122.263 94.000,122.983 93.460,123.600 92.800 C 124.217 92.140,124.969 91.600,125.272 91.600 C 125.575 91.600,126.083 91.240,126.400 90.800 C 126.717 90.360,127.257 90.000,127.600 90.000 C 127.943 90.000,128.483 89.640,128.800 89.200 C 129.117 88.760,129.697 88.400,130.088 88.400 C 130.480 88.400,130.800 88.220,130.800 88.000 C 130.800 87.780,131.036 87.600,131.325 87.600 C 131.613 87.600,132.236 87.240,132.708 86.800 C 133.180 86.360,133.844 86.000,134.183 86.000 C 134.522 86.000,134.800 85.820,134.800 85.600 C 134.800 85.380,135.160 85.200,135.600 85.200 C 136.040 85.200,136.400 85.020,136.400 84.800 C 136.400 84.580,136.636 84.400,136.925 84.400 C 137.213 84.400,137.836 84.040,138.308 83.600 C 138.780 83.160,139.444 82.800,139.783 82.800 C 140.122 82.800,140.400 82.620,140.400 82.400 C 140.400 82.180,140.760 82.000,141.200 82.000 C 141.640 82.000,142.000 81.820,142.000 81.600 C 142.000 81.380,142.360 81.200,142.800 81.200 C 143.240 81.200,143.600 81.020,143.600 80.800 C 143.600 80.580,144.140 80.400,144.800 80.400 C 145.460 80.400,146.000 80.220,146.000 80.000 C 146.000 79.780,146.360 79.600,146.800 79.600 C 147.240 79.600,147.600 79.420,147.600 79.200 C 147.600 78.980,147.960 78.800,148.400 78.800 C 148.840 78.800,149.200 78.620,149.200 78.400 C 149.200 78.180,149.740 78.000,150.400 78.000 C 151.060 78.000,151.600 77.820,151.600 77.600 C 151.600 77.380,151.960 77.200,152.400 77.200 C 152.840 77.200,153.200 77.020,153.200 76.800 C 153.200 76.580,153.740 76.400,154.400 76.400 C 155.060 76.400,155.600 76.220,155.600 76.000 C 155.600 75.780,156.140 75.600,156.800 75.600 C 157.460 75.600,158.000 75.420,158.000 75.200 C 158.000 74.980,158.540 74.800,159.200 74.800 C 159.860 74.800,160.400 74.620,160.400 74.400 C 160.400 74.180,160.940 74.000,161.600 74.000 C 162.260 74.000,162.800 73.820,162.800 73.600 C 162.800 73.380,163.340 73.200,164.000 73.200 C 164.660 73.200,165.200 73.020,165.200 72.800 C 165.200 72.580,165.920 72.400,166.800 72.400 C 167.680 72.400,168.400 72.220,168.400 72.000 C 168.400 71.780,169.120 71.600,170.000 71.600 C 170.880 71.600,171.600 71.420,171.600 71.200 C 171.600 70.980,172.500 70.800,173.600 70.800 C 174.700 70.800,175.600 70.620,175.600 70.400 C 175.600 70.178,176.659 70.000,177.976 70.000 C 179.283 70.000,180.464 69.820,180.600 69.600 C 180.736 69.380,182.367 69.200,184.224 69.200 C 186.208 69.200,187.600 69.035,187.600 68.800 C 187.600 68.542,192.000 68.400,200.000 68.400 C 208.000 68.400,212.400 68.542,212.400 68.800 M246.000 274.209 C 244.130 274.481,241.970 274.834,241.200 274.994 C 239.729 275.299,225.977 279.774,224.600 280.396 C 215.411 284.546,197.462 286.880,187.767 285.187 C 180.354 283.892,176.072 282.656,168.400 279.600 C 153.046 273.483,141.403 272.751,128.000 277.061 C 126.103 277.671,125.736 277.817,122.704 279.160 C 121.662 279.622,120.722 280.000,120.616 280.000 C 120.510 280.000,119.473 280.430,118.312 280.955 C 115.523 282.217,112.485 283.563,111.000 284.196 C 110.340 284.477,108.990 285.064,108.000 285.500 C 106.059 286.355,102.373 287.627,99.800 288.330 C 96.554 289.217,95.200 289.667,95.200 289.860 C 95.200 290.644,107.027 302.400,107.815 302.400 C 108.143 302.400,108.723 302.223,109.105 302.006 C 110.018 301.489,115.164 299.200,115.414 299.200 C 115.521 299.200,116.462 298.822,117.504 298.360 C 120.439 297.060,120.836 296.906,123.400 296.072 C 126.935 294.922,130.769 294.057,136.046 293.220 C 141.564 292.344,153.469 292.855,159.200 294.212 C 159.750 294.343,161.010 294.642,162.000 294.877 C 164.782 295.538,168.999 296.966,173.604 298.808 C 185.549 303.584,196.890 305.287,205.269 303.561 C 209.960 302.596,214.142 301.463,217.875 300.147 C 243.895 290.976,253.145 289.985,270.800 294.476 C 274.473 295.411,276.478 296.061,276.980 296.482 C 277.189 296.657,277.615 296.800,277.926 296.800 C 278.237 296.800,281.447 298.253,285.059 300.029 L 291.627 303.258 294.408 300.793 C 296.699 298.761,300.241 295.063,304.901 289.834 C 305.772 288.856,305.328 288.511,302.800 288.205 C 296.143 287.399,288.511 285.048,281.400 281.613 C 270.120 276.164,267.927 275.432,259.200 274.200 C 254.334 273.513,250.767 273.515,246.000 274.209 M146.800 280.800 C 146.800 281.037,148.267 281.200,150.400 281.200 C 152.533 281.200,154.000 281.363,154.000 281.600 C 154.000 281.820,154.720 282.000,155.600 282.000 C 156.480 282.000,157.200 282.180,157.200 282.400 C 157.200 282.620,157.740 282.800,158.400 282.800 C 159.060 282.800,159.600 282.980,159.600 283.200 C 159.600 283.420,160.140 283.600,160.800 283.600 C 161.460 283.600,162.000 283.780,162.000 284.000 C 162.000 284.220,162.540 284.400,163.200 284.400 C 163.860 284.400,164.400 284.580,164.400 284.800 C 164.400 285.020,164.760 285.200,165.200 285.200 C 165.640 285.200,166.000 285.380,166.000 285.600 C 166.000 285.820,166.540 286.000,167.200 286.000 C 167.860 286.000,168.400 286.180,168.400 286.400 C 168.400 286.620,168.760 286.800,169.200 286.800 C 169.640 286.800,170.000 286.980,170.000 287.200 C 170.000 287.420,170.540 287.600,171.200 287.600 C 171.860 287.600,172.400 287.780,172.400 288.000 C 172.400 288.220,172.940 288.400,173.600 288.400 C 174.260 288.400,174.800 288.580,174.800 288.800 C 174.800 289.020,175.520 289.200,176.400 289.200 C 177.280 289.200,178.000 289.380,178.000 289.600 C 178.000 289.820,178.720 290.000,179.600 290.000 C 180.480 290.000,181.200 290.180,181.200 290.400 C 181.200 290.620,182.100 290.800,183.200 290.800 C 184.300 290.800,185.200 290.980,185.200 291.200 C 185.200 291.433,186.533 291.600,188.400 291.600 C 190.267 291.600,191.600 291.767,191.600 292.000 C 191.600 292.248,193.733 292.400,197.200 292.400 C 200.667 292.400,202.800 292.248,202.800 292.000 C 202.800 291.765,204.192 291.600,206.176 291.600 C 208.033 291.600,209.664 291.420,209.800 291.200 C 209.936 290.980,210.746 290.800,211.600 290.800 C 212.454 290.800,213.264 290.620,213.400 290.400 C 213.536 290.180,214.346 290.000,215.200 290.000 C 216.054 290.000,216.864 289.820,217.000 289.600 C 217.136 289.380,217.777 289.200,218.424 289.200 C 219.071 289.200,219.600 289.020,219.600 288.800 C 219.600 288.580,220.140 288.400,220.800 288.400 C 221.460 288.400,222.000 288.220,222.000 288.000 C 222.000 287.780,222.540 287.600,223.200 287.600 C 223.860 287.600,224.400 287.420,224.400 287.200 C 224.400 286.980,224.940 286.800,225.600 286.800 C 226.260 286.800,226.800 286.620,226.800 286.400 C 226.800 286.180,227.340 286.000,228.000 286.000 C 228.660 286.000,229.200 285.820,229.200 285.600 C 229.200 285.380,229.740 285.200,230.400 285.200 C 231.060 285.200,231.600 285.020,231.600 284.800 C 231.600 284.580,232.140 284.400,232.800 284.400 C 233.460 284.400,234.000 284.220,234.000 284.000 C 234.000 283.780,234.540 283.600,235.200 283.600 C 235.860 283.600,236.400 283.420,236.400 283.200 C 236.400 282.980,236.940 282.800,237.600 282.800 C 238.260 282.800,238.800 282.620,238.800 282.400 C 238.800 282.180,239.340 282.000,240.000 282.000 C 240.660 282.000,241.200 281.820,241.200 281.600 C 241.200 281.380,241.999 281.200,242.976 281.200 C 243.953 281.200,244.864 281.020,245.000 280.800 C 245.151 280.556,248.196 280.400,252.800 280.400 C 257.404 280.400,260.449 280.556,260.600 280.800 C 260.736 281.020,261.647 281.200,262.624 281.200 C 263.601 281.200,264.400 281.380,264.400 281.600 C 264.400 281.820,265.120 282.000,266.000 282.000 C 266.880 282.000,267.600 282.180,267.600 282.400 C 267.600 282.620,267.960 282.800,268.400 282.800 C 268.840 282.800,269.200 282.980,269.200 283.200 C 269.200 283.420,269.740 283.600,270.400 283.600 C 271.060 283.600,271.600 283.780,271.600 284.000 C 271.600 284.220,271.960 284.400,272.400 284.400 C 272.840 284.400,273.200 284.580,273.200 284.800 C 273.200 285.020,273.560 285.200,274.000 285.200 C 274.440 285.200,274.800 285.380,274.800 285.600 C 274.800 285.820,275.160 286.000,275.600 286.000 C 276.040 286.000,276.400 286.180,276.400 286.400 C 276.400 286.620,276.760 286.800,277.200 286.800 C 277.640 286.800,278.000 286.980,278.000 287.200 C 278.000 287.420,278.360 287.600,278.800 287.600 C 279.240 287.600,279.600 287.780,279.600 288.000 C 279.600 288.220,279.960 288.400,280.400 288.400 C 280.840 288.400,281.200 288.580,281.200 288.800 C 281.200 289.020,281.639 289.200,282.176 289.200 C 282.713 289.200,283.264 289.380,283.400 289.600 C 283.536 289.820,283.997 290.000,284.424 290.000 C 284.851 290.000,285.200 290.180,285.200 290.400 C 285.200 290.620,285.740 290.800,286.400 290.800 C 287.060 290.800,287.600 290.980,287.600 291.200 C 287.600 291.420,288.140 291.600,288.800 291.600 C 289.460 291.600,290.000 291.780,290.000 292.000 C 290.000 292.220,290.720 292.400,291.600 292.400 C 292.480 292.400,293.200 292.496,293.200 292.613 C 293.200 293.173,290.240 295.720,290.095 295.285 C 290.006 295.018,289.588 294.800,289.167 294.800 C 288.745 294.800,288.400 294.620,288.400 294.400 C 288.400 294.180,288.040 294.000,287.600 294.000 C 287.160 294.000,286.800 293.820,286.800 293.600 C 286.800 293.380,286.440 293.200,286.000 293.200 C 285.560 293.200,285.200 293.020,285.200 292.800 C 285.200 292.580,284.840 292.400,284.400 292.400 C 283.960 292.400,283.600 292.220,283.600 292.000 C 283.600 291.780,283.060 291.600,282.400 291.600 C 281.740 291.600,281.200 291.420,281.200 291.200 C 281.200 290.980,280.840 290.800,280.400 290.800 C 279.960 290.800,279.600 290.620,279.600 290.400 C 279.600 290.180,279.060 290.000,278.400 290.000 C 277.740 290.000,277.200 289.820,277.200 289.600 C 277.200 289.380,276.480 289.200,275.600 289.200 C 274.720 289.200,274.000 289.020,274.000 288.800 C 274.000 288.580,273.471 288.400,272.824 288.400 C 272.177 288.400,271.536 288.220,271.400 288.000 C 271.264 287.780,270.353 287.600,269.376 287.600 C 268.399 287.600,267.600 287.420,267.600 287.200 C 267.600 286.980,266.700 286.800,265.600 286.800 C 264.500 286.800,263.600 286.620,263.600 286.400 C 263.600 286.143,259.808 286.000,253.024 286.000 C 246.404 286.000,242.355 286.150,242.200 286.400 C 242.064 286.620,241.063 286.800,239.976 286.800 C 238.889 286.800,238.000 286.980,238.000 287.200 C 238.000 287.420,237.280 287.600,236.400 287.600 C 235.520 287.600,234.800 287.780,234.800 288.000 C 234.800 288.220,234.080 288.400,233.200 288.400 C 232.320 288.400,231.600 288.580,231.600 288.800 C 231.600 289.020,231.058 289.200,230.395 289.200 C 229.732 289.200,228.787 289.408,228.295 289.662 C 226.369 290.658,225.983 290.800,225.205 290.800 C 224.762 290.800,224.400 290.980,224.400 291.200 C 224.400 291.420,223.860 291.600,223.200 291.600 C 222.540 291.600,222.000 291.780,222.000 292.000 C 222.000 292.220,221.460 292.400,220.800 292.400 C 220.140 292.400,219.600 292.580,219.600 292.800 C 219.600 293.020,219.060 293.200,218.400 293.200 C 217.740 293.200,217.200 293.380,217.200 293.600 C 217.200 293.820,216.660 294.000,216.000 294.000 C 215.340 294.000,214.800 294.180,214.800 294.400 C 214.800 294.620,214.260 294.800,213.600 294.800 C 212.940 294.800,212.400 294.980,212.400 295.200 C 212.400 295.420,211.860 295.600,211.200 295.600 C 210.540 295.600,210.000 295.780,210.000 296.000 C 210.000 296.220,209.280 296.400,208.400 296.400 C 207.520 296.400,206.800 296.580,206.800 296.800 C 206.800 297.031,205.541 297.200,203.824 297.200 C 202.187 297.200,200.736 297.380,200.600 297.600 C 200.464 297.820,198.934 298.000,197.200 298.000 C 195.466 298.000,193.936 297.820,193.800 297.600 C 193.664 297.380,192.213 297.200,190.576 297.200 C 188.859 297.200,187.600 297.031,187.600 296.800 C 187.600 296.580,186.880 296.400,186.000 296.400 C 185.120 296.400,184.400 296.220,184.400 296.000 C 184.400 295.780,183.860 295.600,183.200 295.600 C 182.540 295.600,182.000 295.420,182.000 295.200 C 182.000 294.980,181.561 294.800,181.024 294.800 C 180.487 294.800,179.936 294.620,179.800 294.400 C 179.664 294.180,179.203 294.000,178.776 294.000 C 178.349 294.000,178.000 293.820,178.000 293.600 C 178.000 293.380,177.460 293.200,176.800 293.200 C 176.140 293.200,175.600 293.020,175.600 292.800 C 175.600 292.580,175.240 292.400,174.800 292.400 C 174.360 292.400,174.000 292.220,174.000 292.000 C 174.000 291.780,173.460 291.600,172.800 291.600 C 172.140 291.600,171.600 291.420,171.600 291.200 C 171.600 290.980,171.251 290.800,170.824 290.800 C 170.397 290.800,169.936 290.620,169.800 290.400 C 169.664 290.180,168.933 290.000,168.176 290.000 C 167.419 290.000,166.800 289.820,166.800 289.600 C 166.800 289.380,166.271 289.200,165.624 289.200 C 164.977 289.200,164.336 289.020,164.200 288.800 C 164.064 288.580,163.344 288.400,162.600 288.400 C 161.856 288.400,161.136 288.220,161.000 288.000 C 160.864 287.780,159.773 287.600,158.576 287.600 C 157.379 287.600,156.400 287.420,156.400 287.200 C 156.400 286.962,154.875 286.800,152.624 286.800 C 150.537 286.800,148.737 286.621,148.600 286.400 C 148.464 286.180,146.754 286.000,144.800 286.000 C 142.846 286.000,141.136 286.180,141.000 286.400 C 140.863 286.621,139.063 286.800,136.976 286.800 C 134.725 286.800,133.200 286.962,133.200 287.200 C 133.200 287.420,132.300 287.600,131.200 287.600 C 130.100 287.600,129.200 287.780,129.200 288.000 C 129.200 288.220,128.480 288.400,127.600 288.400 C 126.720 288.400,126.000 288.580,126.000 288.800 C 126.000 289.020,125.280 289.200,124.400 289.200 C 123.520 289.200,122.800 289.380,122.800 289.600 C 122.800 289.820,122.260 290.000,121.600 290.000 C 120.940 290.000,120.400 290.180,120.400 290.400 C 120.400 290.620,119.860 290.800,119.200 290.800 C 118.540 290.800,118.000 290.980,118.000 291.200 C 118.000 291.420,117.460 291.600,116.800 291.600 C 116.140 291.600,115.600 291.780,115.600 292.000 C 115.600 292.220,115.240 292.400,114.800 292.400 C 114.360 292.400,114.000 292.580,114.000 292.800 C 114.000 293.020,113.640 293.200,113.200 293.200 C 112.760 293.200,112.400 293.380,112.400 293.600 C 112.400 293.820,111.860 294.000,111.200 294.000 C 110.540 294.000,110.000 294.180,110.000 294.400 C 110.000 295.133,108.776 294.812,107.782 293.818 C 106.521 292.558,106.546 292.400,108.000 292.400 C 108.660 292.400,109.200 292.220,109.200 292.000 C 109.200 291.780,109.560 291.600,110.000 291.600 C 110.440 291.600,110.800 291.420,110.800 291.200 C 110.800 290.980,111.340 290.800,112.000 290.800 C 112.660 290.800,113.200 290.620,113.200 290.400 C 113.200 290.180,113.560 290.000,114.000 290.000 C 114.440 290.000,114.800 289.820,114.800 289.600 C 114.800 289.380,115.160 289.200,115.600 289.200 C 116.040 289.200,116.400 289.020,116.400 288.800 C 116.400 288.580,116.839 288.400,117.376 288.400 C 117.913 288.400,118.464 288.220,118.600 288.000 C 118.736 287.780,119.197 287.600,119.624 287.600 C 120.051 287.600,120.400 287.420,120.400 287.200 C 120.400 286.980,120.760 286.800,121.200 286.800 C 121.640 286.800,122.000 286.620,122.000 286.400 C 122.000 286.180,122.360 286.000,122.800 286.000 C 123.240 286.000,123.600 285.820,123.600 285.600 C 123.600 285.380,124.140 285.200,124.800 285.200 C 125.460 285.200,126.000 285.020,126.000 284.800 C 126.000 284.580,126.360 284.400,126.800 284.400 C 127.240 284.400,127.600 284.220,127.600 284.000 C 127.600 283.780,128.140 283.600,128.800 283.600 C 129.460 283.600,130.000 283.420,130.000 283.200 C 130.000 282.980,130.540 282.800,131.200 282.800 C 131.860 282.800,132.400 282.620,132.400 282.400 C 132.400 282.180,133.120 282.000,134.000 282.000 C 134.880 282.000,135.600 281.820,135.600 281.600 C 135.600 281.363,137.067 281.200,139.200 281.200 C 141.333 281.200,142.800 281.037,142.800 280.800 C 142.800 280.580,143.700 280.400,144.800 280.400 C 145.900 280.400,146.800 280.580,146.800 280.800 M246.200 307.662 C 241.319 308.392,232.343 310.863,229.000 312.398 C 228.287 312.725,217.670 316.238,214.600 317.163 C 213.940 317.362,212.140 317.740,210.600 318.003 C 209.060 318.266,206.936 318.643,205.880 318.841 C 203.255 319.332,191.075 319.295,188.167 318.787 C 180.248 317.403,175.976 316.231,170.400 313.909 C 169.850 313.680,168.995 313.337,168.500 313.146 C 168.005 312.956,167.105 312.596,166.500 312.346 C 159.108 309.299,152.676 308.015,144.800 308.015 C 139.880 308.015,135.431 308.539,131.600 309.569 C 130.830 309.777,129.750 310.066,129.200 310.213 C 126.653 310.893,121.616 313.042,121.730 313.400 C 122.135 314.677,135.865 322.734,142.800 325.765 C 144.230 326.390,146.350 327.329,147.512 327.851 C 148.673 328.373,149.801 328.800,150.017 328.800 C 150.234 328.800,150.723 328.975,151.105 329.189 C 151.688 329.515,158.721 331.868,163.000 333.169 C 184.461 339.694,215.140 339.691,237.000 333.163 C 240.772 332.036,248.301 329.521,248.895 329.189 C 249.277 328.975,249.766 328.800,249.983 328.800 C 250.199 328.800,251.372 328.350,252.588 327.800 C 253.805 327.250,255.835 326.344,257.100 325.787 C 264.898 322.352,278.318 314.438,277.791 313.585 C 275.569 309.990,255.629 306.251,246.200 307.662 M148.400 314.400 C 148.400 314.631,149.659 314.800,151.376 314.800 C 153.013 314.800,154.464 314.980,154.600 315.200 C 154.736 315.420,155.557 315.600,156.424 315.600 C 157.291 315.600,158.000 315.780,158.000 316.000 C 158.000 316.220,158.540 316.400,159.200 316.400 C 159.860 316.400,160.400 316.580,160.400 316.800 C 160.400 317.020,160.760 317.200,161.200 317.200 C 161.640 317.200,162.000 317.380,162.000 317.600 C 162.000 317.820,162.540 318.000,163.200 318.000 C 163.860 318.000,164.400 318.180,164.400 318.400 C 164.400 318.620,164.760 318.800,165.200 318.800 C 165.640 318.800,166.000 318.980,166.000 319.200 C 166.000 319.420,166.540 319.600,167.200 319.600 C 167.860 319.600,168.400 319.780,168.400 320.000 C 168.400 320.220,168.749 320.400,169.176 320.400 C 169.603 320.400,170.064 320.580,170.200 320.800 C 170.336 321.020,170.887 321.200,171.424 321.200 C 171.961 321.200,172.400 321.380,172.400 321.600 C 172.400 321.820,172.940 322.000,173.600 322.000 C 174.260 322.000,174.800 322.180,174.800 322.400 C 174.800 322.620,175.520 322.800,176.400 322.800 C 177.280 322.800,178.000 322.980,178.000 323.200 C 178.000 323.420,178.720 323.600,179.600 323.600 C 180.480 323.600,181.200 323.780,181.200 324.000 C 181.200 324.220,182.089 324.400,183.176 324.400 C 184.263 324.400,185.264 324.580,185.400 324.800 C 185.536 325.020,187.246 325.200,189.200 325.200 C 191.154 325.200,192.864 325.380,193.000 325.600 C 193.140 325.827,195.137 326.000,197.624 326.000 C 200.275 326.000,202.000 325.842,202.000 325.600 C 202.000 325.363,203.467 325.200,205.600 325.200 C 207.733 325.200,209.200 325.037,209.200 324.800 C 209.200 324.580,210.100 324.400,211.200 324.400 C 212.300 324.400,213.200 324.220,213.200 324.000 C 213.200 323.780,213.920 323.600,214.800 323.600 C 215.680 323.600,216.400 323.420,216.400 323.200 C 216.400 322.980,217.120 322.800,218.000 322.800 C 218.880 322.800,219.600 322.620,219.600 322.400 C 219.600 322.180,220.140 322.000,220.800 322.000 C 221.460 322.000,222.000 321.820,222.000 321.600 C 222.000 321.380,222.540 321.200,223.200 321.200 C 223.860 321.200,224.400 321.020,224.400 320.800 C 224.400 320.580,224.940 320.400,225.600 320.400 C 226.260 320.400,226.800 320.220,226.800 320.000 C 226.800 319.780,227.340 319.600,228.000 319.600 C 228.660 319.600,229.200 319.420,229.200 319.200 C 229.200 318.980,229.740 318.800,230.400 318.800 C 231.060 318.800,231.600 318.620,231.600 318.400 C 231.600 318.180,232.039 318.000,232.576 318.000 C 233.113 318.000,233.664 317.820,233.800 317.600 C 233.936 317.380,234.397 317.200,234.824 317.200 C 235.251 317.200,235.600 317.020,235.600 316.800 C 235.600 316.580,236.140 316.400,236.800 316.400 C 237.460 316.400,238.000 316.220,238.000 316.000 C 238.000 315.780,238.540 315.600,239.200 315.600 C 239.860 315.600,240.400 315.420,240.400 315.200 C 240.400 314.980,241.300 314.800,242.400 314.800 C 243.500 314.800,244.400 314.620,244.400 314.400 C 244.400 314.146,247.467 314.000,252.800 314.000 C 258.133 314.000,261.200 314.146,261.200 314.400 C 261.200 314.620,261.740 314.800,262.400 314.800 C 263.060 314.800,263.600 314.980,263.600 315.200 C 263.600 315.420,263.364 315.600,263.075 315.600 C 262.787 315.600,262.164 315.960,261.692 316.400 C 261.220 316.840,260.556 317.200,260.217 317.200 C 259.878 317.200,259.600 317.380,259.600 317.600 C 259.600 317.820,259.240 318.000,258.800 318.000 C 258.360 318.000,258.000 318.180,258.000 318.400 C 258.000 318.620,257.561 318.800,257.024 318.800 C 256.487 318.800,255.936 318.980,255.800 319.200 C 255.664 319.420,255.203 319.600,254.776 319.600 C 254.349 319.600,254.000 319.780,254.000 320.000 C 254.000 320.220,253.640 320.400,253.200 320.400 C 252.760 320.400,252.400 320.580,252.400 320.800 C 252.400 321.020,252.040 321.200,251.600 321.200 C 251.160 321.200,250.800 321.380,250.800 321.600 C 250.800 321.820,250.260 322.000,249.600 322.000 C 248.940 322.000,248.400 322.180,248.400 322.400 C 248.400 322.620,248.040 322.800,247.600 322.800 C 247.160 322.800,246.800 322.980,246.800 323.200 C 246.800 323.420,246.260 323.600,245.600 323.600 C 244.940 323.600,244.400 323.780,244.400 324.000 C 244.400 324.220,243.860 324.400,243.200 324.400 C 242.540 324.400,242.000 324.580,242.000 324.800 C 242.000 325.020,241.460 325.200,240.800 325.200 C 240.140 325.200,239.600 325.380,239.600 325.600 C 239.600 325.820,239.060 326.000,238.400 326.000 C 237.740 326.000,237.200 326.180,237.200 326.400 C 237.200 326.620,236.660 326.800,236.000 326.800 C 235.340 326.800,234.800 326.980,234.800 327.200 C 234.800 327.420,234.080 327.600,233.200 327.600 C 232.320 327.600,231.600 327.780,231.600 328.000 C 231.600 328.220,230.891 328.400,230.024 328.400 C 229.157 328.400,228.336 328.580,228.200 328.800 C 228.064 329.020,227.074 329.200,226.000 329.200 C 224.926 329.200,223.936 329.380,223.800 329.600 C 223.664 329.820,222.584 330.000,221.400 330.000 C 220.216 330.000,219.136 330.180,219.000 330.400 C 218.864 330.620,217.323 330.800,215.576 330.800 C 213.725 330.800,212.400 330.967,212.400 331.200 C 212.400 331.458,208.000 331.600,200.000 331.600 C 192.000 331.600,187.600 331.458,187.600 331.200 C 187.600 330.967,186.275 330.800,184.424 330.800 C 182.677 330.800,181.136 330.620,181.000 330.400 C 180.864 330.180,179.784 330.000,178.600 330.000 C 177.416 330.000,176.336 329.820,176.200 329.600 C 176.064 329.380,175.074 329.200,174.000 329.200 C 172.926 329.200,171.936 329.020,171.800 328.800 C 171.664 328.580,170.843 328.400,169.976 328.400 C 169.109 328.400,168.400 328.220,168.400 328.000 C 168.400 327.780,167.680 327.600,166.800 327.600 C 165.920 327.600,165.200 327.420,165.200 327.200 C 165.200 326.980,164.660 326.800,164.000 326.800 C 163.340 326.800,162.800 326.620,162.800 326.400 C 162.800 326.180,162.260 326.000,161.600 326.000 C 160.940 326.000,160.400 325.820,160.400 325.600 C 160.400 325.380,159.860 325.200,159.200 325.200 C 158.540 325.200,158.000 325.020,158.000 324.800 C 158.000 324.580,157.460 324.400,156.800 324.400 C 156.140 324.400,155.600 324.220,155.600 324.000 C 155.600 323.780,155.060 323.600,154.400 323.600 C 153.740 323.600,153.200 323.420,153.200 323.200 C 153.200 322.980,152.840 322.800,152.400 322.800 C 151.960 322.800,151.600 322.620,151.600 322.400 C 151.600 322.180,151.060 322.000,150.400 322.000 C 149.740 322.000,149.200 321.820,149.200 321.600 C 149.200 321.380,148.840 321.200,148.400 321.200 C 147.960 321.200,147.600 321.020,147.600 320.800 C 147.600 320.580,147.240 320.400,146.800 320.400 C 146.360 320.400,146.000 320.220,146.000 320.000 C 146.000 319.780,145.651 319.600,145.224 319.600 C 144.797 319.600,144.336 319.420,144.200 319.200 C 144.064 318.980,143.513 318.800,142.976 318.800 C 142.439 318.800,142.000 318.620,142.000 318.400 C 142.000 318.180,141.640 318.000,141.200 318.000 C 140.760 318.000,140.400 317.820,140.400 317.600 C 140.400 317.380,140.080 317.200,139.688 317.200 C 139.297 317.200,138.717 316.840,138.400 316.400 C 138.083 315.960,137.503 315.600,137.112 315.600 C 136.720 315.600,136.400 315.420,136.400 315.200 C 136.400 314.978,137.459 314.800,138.776 314.800 C 140.083 314.800,141.264 314.620,141.400 314.400 C 141.536 314.180,143.167 314.000,145.024 314.000 C 147.008 314.000,148.400 314.165,148.400 314.400"/>
  </g>
</svg>
