<svg id="splitsvg" version="1.1" xmlns="http://www.w3.org/2000/svg" width="1380" height="400"><g id="svgg"><path id="path0" d="M186.2 40.8c-.136.22-1.857.4-3.824.4-2.117 0-3.576.163-3.576.4 0 .225-1.125.4-2.576.4-1.417 0-2.688.18-2.824.4-.136.22-1.137.4-2.224.4s-1.976.18-1.976.4-.8.4-1.776.4c-.977 0-1.888.18-2.024.4-.136.22-.957.4-1.824.4s-1.576.18-1.576.4-.72.4-1.6.4-1.6.18-1.6.4-.62.4-1.376.4c-.757 0-1.488.18-1.624.4-.136.22-.777.4-1.424.4s-1.176.18-1.176.4-.54.4-1.2.4-1.2.18-1.2.4-.54.4-1.2.4-1.2.18-1.2.4-.54.4-1.2.4-1.2.18-1.2.4-.54.4-1.2.4-1.2.18-1.2.4-.44.4-.976.4c-.537 0-1.088.18-1.224.4-.136.22-.597.4-1.024.4-.427 0-.776.18-.776.4s-.36.4-.8.4-.8.18-.8.4-.54.4-1.2.4-1.2.18-1.2.4-.36.4-.8.4-.8.18-.8.4-.36.4-.8.4-.8.18-.8.4-.36.4-.8.4-.8.18-.8.4-.36.4-.8.4-.8.18-.8.4-.36.4-.8.4-.8.18-.8.4-.36.4-.8.4-.8.18-.8.4-.36.4-.8.4-.8.18-.8.4-.36.4-.8.4-.8.18-.8.4-.32.4-.712.4c-.39 0-.97.36-1.288.8-.317.44-.897.8-1.288.8-.392 0-.712.18-.712.4s-.32.4-.712.4c-.39 0-.97.36-1.288.8-.317.44-.897.8-1.288.8-.392 0-.712.18-.712.4s-.32.4-.712.4c-.39 0-.97.36-1.288.8-.317.44-.857.8-1.2.8-.343 0-.883.36-1.2.8-.317.44-.825.8-1.128.8-.303 0-1.055.54-1.672 1.2-.617.66-1.32 1.2-1.564 1.2-.244 0-1.008.54-1.7 1.2-.69.66-1.426 1.2-1.635 1.2-.208 0-.883.54-1.5 1.2s-1.33 1.2-1.586 1.2c-.256 0-1.343.9-2.414 2-1.07 1.1-2.14 2-2.377 2-.56 0-15.223 14.663-15.223 15.223 0 .236-.9 1.306-2 2.377-1.1 1.07-2 2.158-2 2.414 0 .256-.54.97-1.2 1.586-.66.617-1.2 1.292-1.2 1.5 0 .21-.54.946-1.2 1.637-.66.69-1.2 1.455-1.2 1.7 0 .243-.54.946-1.2 1.563s-1.2 1.37-1.2 1.672c0 .303-.36.81-.8 1.128-.44.317-.8.857-.8 1.2 0 .343-.36.883-.8 1.2-.44.317-.8.897-.8 1.288 0 .392-.18.712-.4.712s-.4.32-.4.712c0 .39-.36.97-.8 1.288-.44.317-.8.897-.8 1.288 0 .392-.18.712-.4.712s-.4.32-.4.712c0 .39-.36.97-.8 1.288-.44.317-.8.897-.8 1.288 0 .392-.18.712-.4.712s-.4.36-.4.8-.18.8-.4.8-.4.36-.4.8-.18.8-.4.8-.4.36-.4.8-.18.8-.4.8-.4.36-.4.8-.18.8-.4.8-.4.36-.4.8-.18.8-.4.8-.4.36-.4.8-.18.8-.4.8-.4.36-.4.8-.18.8-.4.8-.4.36-.4.8-.18.8-.4.8-.4.54-.4 1.2-.18 1.2-.4 1.2-.4.36-.4.8-.18.8-.4.8-.4.35-.4.776c0 .427-.18.888-.4 1.024-.22.136-.4.687-.4 1.224s-.18.976-.4.976-.4.54-.4 1.2-.18 1.2-.4 1.2-.4.54-.4 1.2-.18 1.2-.4 1.2-.4.54-.4 1.2-.18 1.2-.4 1.2-.4.54-.4 1.2-.18 1.2-.4 1.2-.4.53-.4 1.176c0 .647-.18 1.288-.4 1.424-.22.136-.4.867-.4 1.624 0 .757-.18 1.376-.4 1.376s-.4.72-.4 1.6-.18 1.6-.4 1.6-.4.71-.4 1.576c0 .867-.18 1.688-.4 1.824-.22.136-.4 1.047-.4 2.024 0 .977-.18 1.776-.4 1.776s-.4.89-.4 1.976c0 1.087-.18 2.088-.4 2.224-.22.136-.4 1.407-.4 2.824 0 1.45-.175 2.576-.4 2.576-.237 0-.4 1.46-.4 3.576 0 1.967-.18 3.688-.4 3.824-.546.338-.546 27.262 0 27.6.22.136.4 1.857.4 3.824 0 2.117.163 3.576.4 3.576.222 0 .4 1.06.4 2.376 0 1.307.18 2.488.4 2.624.22.136.4 1.227.4 2.424s.18 2.176.4 2.176.4.8.4 1.776c0 .977.18 1.888.4 2.024.22.136.4.957.4 1.824s.18 1.576.4 1.576.4.72.4 1.6.18 1.6.4 1.6.4.62.4 1.376c0 .757.18 1.488.4 1.624.22.136.4.777.4 1.424s.18 1.176.4 1.176.4.54.4 1.2.18 1.2.4 1.2.4.54.4 1.2.18 1.2.4 1.2.4.36.4.8.18.8.4.8.4.36.4.8c0 .5.267.8.712.8.39 0 .97.36 1.288.8.653.906 37.2 1.3 37.2.4 0-.225 1.125-.4 2.576-.4 1.417 0 2.688-.18 2.824-.4.136-.22.957-.4 1.824-.4s1.576-.18 1.576-.4.72-.4 1.6-.4 1.6-.18 1.6-.4.72-.4 1.6-.4 1.6-.18 1.6-.4.54-.4 1.2-.4 1.2-.18 1.2-.4.35-.4.776-.4c.427 0 .888-.18 1.024-.4.136-.22.687-.4 1.224-.4s.976-.18.976-.4.36-.4.8-.4.8-.18.8-.4.54-.4 1.2-.4 1.2-.18 1.2-.4.36-.4.8-.4.8-.18.8-.4.36-.4.8-.4.8-.18.8-.4.35-.4.776-.4c.427 0 .888-.18 1.024-.4.136-.22.687-.4 1.224-.4s.976-.18.976-.4.36-.4.8-.4.8-.18.8-.4.36-.4.8-.4.8-.18.8-.4.54-.4 1.2-.4 1.2-.18 1.2-.4.36-.4.8-.4.8-.18.8-.4.54-.4 1.2-.4 1.2-.18 1.2-.4.8-.4 1.776-.4c.977 0 1.888-.18 2.024-.4.136-.22 1.497-.4 3.024-.4 1.584 0 2.776-.172 2.776-.4 0-.528 7.073-.528 7.4 0 .136.22 1.587.4 3.224.4 1.717 0 2.976.17 2.976.4 0 .22.72.4 1.6.4s1.6.18 1.6.4.54.4 1.2.4 1.2.18 1.2.4.36.4.8.4.8.18.8.4.54.4 1.2.4 1.2.18 1.2.4.36.4.8.4.8.18.8.4.54.4 1.2.4 1.2.18 1.2.4.54.4 1.2.4 1.2.18 1.2.4.36.4.8.4.8.18.8.4.72.4 1.6.4 1.6.18 1.6.4.53.4 1.176.4c.647 0 1.288.18 1.424.4.136.22.856.4 1.6.4s1.464.18 1.6.4c.136.22 1.227.4 2.424.4s2.176.18 2.176.4c0 .24 1.6.4 4 .4s4 .16 4 .4c0 .235 1.392.4 3.376.4 1.857 0 3.488-.18 3.624-.4.136-.22 1.846-.4 3.8-.4s3.664-.18 3.8-.4c.136-.22 1.227-.4 2.424-.4s2.176-.18 2.176-.4.72-.4 1.6-.4 1.6-.18 1.6-.4.72-.4 1.6-.4 1.6-.18 1.6-.4.54-.4 1.2-.4 1.2-.18 1.2-.4.54-.4 1.2-.4 1.2-.18 1.2-.4.54-.4 1.2-.4 1.2-.18 1.2-.4.54-.4 1.2-.4 1.2-.18 1.2-.4.36-.4.8-.4.8-.18.8-.4.54-.4 1.2-.4 1.2-.18 1.2-.4.54-.4 1.2-.4 1.2-.18 1.2-.4.54-.4 1.2-.4 1.2-.18 1.2-.4.54-.4 1.2-.4 1.2-.18 1.2-.4.9-.4 2-.4 2-.18 2-.4c0-.254 3.06-.4 8.376-.4 5.153 0 8.472.154 8.624.4.136.22 1.047.4 2.024.4.977 0 1.776.18 1.776.4s.54.4 1.2.4 1.2.18 1.2.4.54.4 1.2.4 1.2.18 1.2.4.36.4.8.4.8.18.8.4.36.4.8.4.8.18.8.4.36.4.8.4.8.18.8.4.36.4.8.4.8.18.8.4.36.4.8.4.8.18.8.4.36.4.8.4.8.18.8.4.36.4.8.4.8.18.8.4.54.4 1.2.4 1.2.18 1.2.4.54.4 1.2.4 1.2.18 1.2.4.36.4.8.4.8.18.8.4.72.4 1.6.4 1.6.18 1.6.4.62.4 1.376.4c.757 0 1.488.18 1.624.4.136.22.957.4 1.824.4s1.576.18 1.576.4.89.4 1.976.4c1.087 0 2.088.18 2.224.4.153.247 3.67.4 9.224.4h8.976v1.2c0 .66-.18 1.2-.4 1.2s-.4.36-.4.8-.18.8-.4.8-.4.36-.4.8-.18.8-.4.8-.4.32-.4.712c0 .39-.36.97-.8 1.288-.44.317-.8.897-.8 1.288 0 .392-.18.712-.4.712s-.4.36-.4.8-.18.8-.4.8-.4.283-.4.63c0 .344-.257.884-.57 1.2-.648.645-3.43.784-3.43.17 0-.237-1.467-.4-3.6-.4s-3.6-.163-3.6-.4c0-.22-.72-.4-1.6-.4s-1.6-.18-1.6-.4-.54-.4-1.2-.4-1.2-.18-1.2-.4-.54-.4-1.2-.4-1.2-.18-1.2-.4-.36-.4-.8-.4-.8-.18-.8-.4-.36-.4-.8-.4-.8-.18-.8-.4-.36-.4-.8-.4-.8-.18-.8-.4-.36-.4-.8-.4-.8-.18-.8-.4-.36-.4-.8-.4-.8-.18-.8-.4-.36-.4-.8-.4-.8-.18-.8-.4-.54-.4-1.2-.4-1.2-.18-1.2-.4-.36-.4-.8-.4-.8-.18-.8-.4-.54-.4-1.2-.4-1.2-.18-1.2-.4-.54-.4-1.2-.4-1.2-.18-1.2-.4-.54-.4-1.2-.4-1.2-.18-1.2-.4-.72-.4-1.6-.4-1.6-.18-1.6-.4-.72-.4-1.6-.4-1.6-.18-1.6-.4c0-.222-1.067-.4-2.4-.4-1.333 0-2.4-.178-2.4-.4 0-.256-3.6-.4-10-.4s-10 .144-10 .4c0 .222-1.067.4-2.4.4-1.333 0-2.4.178-2.4.4 0 .22-.72.4-1.6.4s-1.6.18-1.6.4-.72.4-1.6.4-1.6.18-1.6.4-.54.4-1.2.4-1.2.18-1.2.4-.54.4-1.2.4-1.2.18-1.2.4-.54.4-1.2.4-1.2.18-1.2.4-.54.4-1.2.4-1.2.18-1.2.4-.54.4-1.2.4-1.2.18-1.2.4-.54.4-1.2.4-1.2.18-1.2.4-.54.4-1.2.4-1.2.18-1.2.4-.54.4-1.2.4-1.2.18-1.2.4-.54.4-1.2.4-1.2.18-1.2.4-.62.4-1.376.4c-.757 0-1.488.18-1.624.4-.136.22-1.396.4-2.8.4-1.404 0-2.664.18-2.8.4-.324.524-8.076.524-8.4 0-.136-.22-1.407-.4-2.824-.4-1.45 0-2.576-.175-2.576-.4 0-.22-.72-.4-1.6-.4s-1.6-.18-1.6-.4-.54-.4-1.2-.4-1.2-.18-1.2-.4-.54-.4-1.2-.4-1.2-.18-1.2-.4-.36-.4-.8-.4-.8-.18-.8-.4-.54-.4-1.2-.4-1.2-.18-1.2-.4-.36-.4-.8-.4-.8-.18-.8-.4-.54-.4-1.2-.4-1.2-.18-1.2-.4-.54-.4-1.2-.4-1.2-.18-1.2-.4-.54-.4-1.2-.4-1.2-.18-1.2-.4-.72-.4-1.6-.4-1.6-.18-1.6-.4-.72-.4-1.6-.4-1.6-.18-1.6-.4-.98-.4-2.176-.4c-1.197 0-2.288-.18-2.424-.4-.14-.227-2.13-.4-4.6-.4-2.47 0-4.46-.173-4.6-.4-.322-.522-3.8-.522-3.8 0 0 .243-1.792.4-4.576.4-2.62 0-4.682.17-4.824.4-.136.22-1.137.4-2.224.4s-1.976.18-1.976.4-.72.4-1.6.4-1.6.18-1.6.4-.72.4-1.6.4-1.6.18-1.6.4-.54.4-1.2.4-1.2.18-1.2.4-.54.4-1.2.4-1.2.18-1.2.4-.36.4-.8.4-.8.18-.8.4-.54.4-1.2.4-1.2.18-1.2.4-.36.4-.8.4-.8.18-.8.4-.35.4-.776.4c-.427 0-.888.18-1.024.4-.136.22-.687.4-1.224.4s-.976.18-.976.4-.36.4-.8.4-.8.18-.8.4-.36.4-.8.4-.8.18-.8.4-.54.4-1.2.4-1.2.18-1.2.4-.36.4-.8.4-.8.18-.8.4-.36.4-.8.4-.8.18-.8.4-.54.4-1.2.4-1.2.18-1.2.4-.54.4-1.2.4-1.2.18-1.2.4-.54.4-1.2.4-1.2.18-1.2.4-.9.4-2 .4-2 .18-2 .4c0 .257-4 .4-11.2.4s-11.2.143-11.2.4c0 .22-.456.4-1.013.4-1.35 0-3.787 2.436-3.787 3.787 0 .557-.18 1.013-.4 1.013s-.4.62-.4 1.376c0 .757.18 1.488.4 1.624.22.136.4.597.4 1.024 0 .427.18.776.4.776s.4.36.4.8.18.8.4.8.4.32.4.712c0 .39.36.97.8 1.288.44.317.8.897.8 1.288 0 .392.18.712.4.712s.4.32.4.712c0 .39.36.97.8 1.288.44.317.8.857.8 1.2 0 .343.36.883.8 1.2.44.317.8.825.8 1.128 0 .303.54 1.055 1.2 1.672.66.617 1.2 1.37 1.2 1.672 0 .303.36.81.8 1.128.44.317.8.785.8 1.04 0 .255.72 1.205 1.6 2.112.88.907 1.6 1.84 1.6 2.074 0 .234.9 1.303 2 2.374 1.1 1.07 2 2.14 2 2.377 0 .56 14.663 15.223 15.223 15.223.236 0 1.306.9 2.377 2 1.07 1.1 2.14 2 2.374 2 .234 0 1.167.72 2.074 1.6.907.88 1.857 1.6 2.112 1.6s.723.36 1.04.8c.317.44.825.8 1.128.8.303 0 1.055.54 1.672 1.2.617.66 1.37 1.2 1.672 1.2.303 0 .81.36 1.128.8.317.44.857.8 1.2.8.343 0 .883.36 1.2.8.317.44.897.8 1.288.8.392 0 .712.18.712.4s.32.4.712.4c.39 0 .97.36 1.288.8.317.44.897.8 1.288.8.392 0 .712.18.712.4s.32.4.712.4c.39 0 .97.36 1.288.8.317.44.897.8 1.288.8.392 0 .712.18.712.4s.36.4.8.4.8.18.8.4.36.4.8.4.8.18.8.4.36.4.8.4.8.18.8.4.36.4.8.4.8.18.8.4.36.4.8.4.8.18.8.4.36.4.8.4.8.18.8.4.36.4.8.4.8.18.8.4.36.4.8.4.8.18.8.4.54.4 1.2.4 1.2.18 1.2.4.36.4.8.4.8.18.8.4.54.4 1.2.4 1.2.18 1.2.4.36.4.8.4.8.18.8.4.54.4 1.2.4 1.2.18 1.2.4.54.4 1.2.4 1.2.18 1.2.4.54.4 1.2.4 1.2.18 1.2.4.54.4 1.2.4 1.2.18 1.2.4.72.4 1.6.4 1.6.18 1.6.4.54.4 1.2.4 1.2.18 1.2.4.72.4 1.6.4 1.6.18 1.6.4.71.4 1.576.4c.867 0 1.688.18 1.824.4.136.22 1.047.4 2.024.4.977 0 1.776.18 1.776.4s.89.4 1.976.4c1.087 0 2.088.18 2.224.4.136.22 1.407.4 2.824.4 1.45 0 2.576.175 2.576.4 0 .237 1.46.4 3.576.4 1.967 0 3.688.18 3.824.4.338.546 27.262.546 27.6 0 .136-.22 1.857-.4 3.824-.4 2.117 0 3.576-.163 3.576-.4 0-.225 1.125-.4 2.576-.4 1.417 0 2.688-.18 2.824-.4.136-.22 1.137-.4 2.224-.4s1.976-.18 1.976-.4.8-.4 1.776-.4c.977 0 1.888-.18 2.024-.4.136-.22.957-.4 1.824-.4s1.576-.18 1.576-.4.72-.4 1.6-.4 1.6-.18 1.6-.4.54-.4 1.2-.4 1.2-.18 1.2-.4.72-.4 1.6-.4 1.6-.18 1.6-.4.54-.4 1.2-.4 1.2-.18 1.2-.4.54-.4 1.2-.4 1.2-.18 1.2-.4.54-.4 1.2-.4 1.2-.18 1.2-.4.54-.4 1.2-.4 1.2-.18 1.2-.4.36-.4.8-.4.8-.18.8-.4.54-.4 1.2-.4 1.2-.18 1.2-.4.36-.4.8-.4.8-.18.8-.4.54-.4 1.2-.4 1.2-.18 1.2-.4.36-.4.8-.4.8-.18.8-.4.36-.4.8-.4.8-.18.8-.4.36-.4.8-.4.8-.18.8-.4.36-.4.8-.4.8-.18.8-.4.36-.4.8-.4.8-.18.8-.4.36-.4.8-.4.8-.18.8-.4.36-.4.8-.4.8-.18.8-.4.36-.4.8-.4.8-.18.8-.4.32-.4.712-.4c.39 0 .97-.36 1.288-.8.317-.44.897-.8 1.288-.8.392 0 .712-.18.712-.4s.32-.4.712-.4c.39 0 .97-.36 1.288-.8.317-.44.897-.8 1.288-.8.392 0 .712-.18.712-.4s.32-.4.712-.4c.39 0 .97-.36 1.288-.8.317-.44.857-.8 1.2-.8.343 0 .883-.36 1.2-.8.317-.44.825-.8 1.128-.8.303 0 1.055-.54 1.672-1.2.617-.66 1.32-1.2 1.564-1.2.244 0 1.008-.54 1.7-1.2.69-.66 1.426-1.2 1.635-1.2.208 0 .883-.54 1.5-1.2s1.33-1.2 1.586-1.2c.256 0 1.343-.9 2.414-2 1.07-1.1 2.14-2 2.377-2 .56 0 15.223-14.663 15.223-15.223 0-.236.9-1.306 2-2.377 1.1-1.07 2-2.158 2-2.414 0-.256.54-.97 1.2-1.586.66-.617 1.2-1.292 1.2-1.5 0-.21.54-.946 1.2-1.637.66-.69 1.2-1.455 1.2-1.7 0-.243.54-.946 1.2-1.563s1.2-1.37 1.2-1.672c0-.303.36-.81.8-1.128.44-.317.8-.857.8-1.2 0-.343.36-.883.8-1.2.44-.317.8-.897.8-1.288 0-.392.18-.712.4-.712s.4-.32.4-.712c0-.39.36-.97.8-1.288.44-.317.8-.897.8-1.288 0-.392.18-.712.4-.712s.4-.32.4-.712c0-.39.36-.97.8-1.288.44-.317.8-.897.8-1.288 0-.392.18-.712.4-.712s.4-.36.4-.8.18-.8.4-.8.4-.36.4-.8.18-.8.4-.8.4-.36.4-.8.18-.8.4-.8.4-.36.4-.8.18-.8.4-.8.4-.36.4-.8.18-.8.4-.8.4-.36.4-.8.18-.8.4-.8.4-.36.4-.8.18-.8.4-.8.4-.36.4-.8.18-.8.4-.8.4-.54.4-1.2.18-1.2.4-1.2.4-.36.4-.8.18-.8.4-.8.4-.35.4-.776c0-.427.18-.888.4-1.024.22-.136.4-.687.4-1.224s.18-.976.4-.976.4-.54.4-1.2.18-1.2.4-1.2.4-.54.4-1.2.18-1.2.4-1.2.4-.54.4-1.2.18-1.2.4-1.2.4-.54.4-1.2.18-1.2.4-1.2.4-.53.4-1.176c0-.647.18-1.288.4-1.424.22-.136.4-.867.4-1.624 0-.757.18-1.376.4-1.376s.4-.72.4-1.6.18-1.6.4-1.6.4-.72.4-1.6.18-1.6.4-1.6.4-.9.4-2 .18-2 .4-2 .4-.89.4-1.976c0-1.087.18-2.088.4-2.224.22-.136.4-1.407.4-2.824 0-1.45.175-2.576.4-2.576.238 0 .4-1.525.4-3.776 0-2.087.18-3.887.4-4.024.546-.338.546-26.862 0-27.2-.22-.136-.4-1.857-.4-3.824 0-2.117-.163-3.576-.4-3.576-.225 0-.4-1.125-.4-2.576 0-1.417-.18-2.688-.4-2.824-.22-.136-.4-1.137-.4-2.224s-.18-1.976-.4-1.976-.4-.8-.4-1.776c0-.977-.18-1.888-.4-2.024-.22-.136-.4-.957-.4-1.824s-.18-1.576-.4-1.576-.4-.72-.4-1.6-.18-1.6-.4-1.6-.4-.62-.4-1.376c0-.757-.18-1.488-.4-1.624-.22-.136-.4-.777-.4-1.424s-.18-1.176-.4-1.176-.4-.54-.4-1.2-.18-1.2-.4-1.2-.4-.54-.4-1.2-.18-1.2-.4-1.2-.4-.54-.4-1.2-.18-1.2-.4-1.2-.4-.54-.4-1.2-.18-1.2-.4-1.2-.4-.44-.4-.976c0-.537-.18-1.088-.4-1.224-.22-.136-.4-.597-.4-1.024 0-.427-.18-.776-.4-.776s-.4-.36-.4-.8-.18-.8-.4-.8-.4-.54-.4-1.2-.18-1.2-.4-1.2-.4-.36-.4-.8-.18-.8-.4-.8-.4-.36-.4-.8-.18-.8-.4-.8-.4-.36-.4-.8-.18-.8-.4-.8-.4-.36-.4-.8-.18-.8-.4-.8-.4-.36-.4-.8-.18-.8-.4-.8-.4-.36-.4-.8-.18-.8-.4-.8-.4-.36-.4-.8-.18-.8-.4-.8-.4-.36-.4-.8-.18-.8-.4-.8-.4-.32-.4-.712c0-.39-.36-.97-.8-1.288-.44-.317-.8-.897-.8-1.288 0-.392-.18-.712-.4-.712s-.4-.32-.4-.712c0-.39-.36-.97-.8-1.288-.44-.317-.8-.897-.8-1.288 0-.392-.18-.712-.4-.712s-.4-.32-.4-.712c0-.39-.36-.97-.8-1.288-.44-.317-.8-.857-.8-1.2 0-.343-.36-.883-.8-1.2-.44-.317-.8-.825-.8-1.128 0-.303-.54-1.055-1.2-1.672-.66-.617-1.2-1.37-1.2-1.672 0-.303-.36-.81-.8-1.128-.44-.317-.8-.785-.8-1.04 0-.255-.72-1.205-1.6-2.112-.88-.907-1.6-1.84-1.6-2.074 0-.234-.9-1.303-2-2.374-1.1-1.07-2-2.14-2-2.377 0-.56-14.663-15.223-15.223-15.223-.236 0-1.306-.9-2.377-2-1.07-1.1-2.14-2-2.374-2-.234 0-1.167-.72-2.074-1.6-.907-.88-1.857-1.6-2.112-1.6s-.723-.36-1.04-.8c-.317-.44-.825-.8-1.128-.8-.303 0-1.055-.54-1.672-1.2-.617-.66-1.37-1.2-1.672-1.2-.303 0-.81-.36-1.128-.8-.317-.44-.857-.8-1.2-.8-.343 0-.883-.36-1.2-.8-.317-.44-.897-.8-1.288-.8-.392 0-.712-.18-.712-.4s-.32-.4-.712-.4c-.39 0-.97-.36-1.288-.8-.317-.44-.897-.8-1.288-.8-.392 0-.712-.18-.712-.4s-.32-.4-.712-.4c-.39 0-.97-.36-1.288-.8-.317-.44-.897-.8-1.288-.8-.392 0-.712-.18-.712-.4s-.36-.4-.8-.4-.8-.18-.8-.4-.36-.4-.8-.4-.8-.18-.8-.4-.36-.4-.8-.4-.8-.18-.8-.4-.36-.4-.8-.4-.8-.18-.8-.4-.36-.4-.8-.4-.8-.18-.8-.4-.36-.4-.8-.4-.8-.18-.8-.4-.36-.4-.8-.4-.8-.18-.8-.4-.36-.4-.8-.4-.8-.18-.8-.4-.54-.4-1.2-.4-1.2-.18-1.2-.4-.36-.4-.8-.4-.8-.18-.8-.4-.35-.4-.776-.4c-.427 0-.888-.18-1.024-.4-.136-.22-.687-.4-1.224-.4s-.976-.18-.976-.4-.54-.4-1.2-.4-1.2-.18-1.2-.4-.54-.4-1.2-.4-1.2-.18-1.2-.4-.54-.4-1.2-.4-1.2-.18-1.2-.4-.54-.4-1.2-.4-1.2-.18-1.2-.4-.53-.4-1.176-.4c-.647 0-1.288-.18-1.424-.4-.136-.22-.867-.4-1.624-.4-.757 0-1.376-.18-1.376-.4s-.72-.4-1.6-.4-1.6-.18-1.6-.4-.71-.4-1.576-.4c-.867 0-1.688-.18-1.824-.4-.136-.22-1.047-.4-2.024-.4-.977 0-1.776-.18-1.776-.4s-.89-.4-1.976-.4c-1.087 0-2.088-.18-2.224-.4-.136-.22-1.407-.4-2.824-.4-1.45 0-2.576-.175-2.576-.4 0-.237-1.46-.4-3.576-.4-1.967 0-3.688-.18-3.824-.4-.157-.254-5.196-.4-13.8-.4s-13.643.146-13.8.4m31.8 6.815c12.533 1.686 26.886 5.073 33.8 7.973.44.185 2.33.924 4.2 1.642 6.883 2.645 14.95 6.55 21.8 10.557 4.578 2.678 16.714 11.092 18.2 12.618.11.114 1.19 1.01 2.4 1.993 5.746 4.666 14.536 13.456 19.202 19.202.983 1.21 1.88 2.29 1.993 2.4 5.847 5.69 18.155 26.935 23.175 40a261.52 261.52 0 0 0 1.642 4.2c2.87 6.844 6.28 21.257 8.038 34 .66 4.79.67 31.245.012 35.4-.262 1.65-.664 4.35-.895 6-.23 1.65-.573 3.72-.76 4.6-.188.88-.562 2.68-.83 4-1.127 5.525-4.196 16.337-5.565 19.6-.185.44-.924 2.33-1.642 4.2-6.327 16.46-18.033 35.27-29.295 47.07-1.297 1.358-2.613 2.835-2.926 3.282-.98 1.4-10.128 9.62-15.3 13.748-11.75 9.382-25.827 17.513-39.25 22.67-1.87.718-3.76 1.462-4.2 1.65-2.728 1.178-13.638 4.28-19.4 5.516-4.127.885-5.956 1.222-8.8 1.62-1.65.23-4.53.64-6.4.91-4.6.662-29.8.662-34.4 0-1.87-.27-4.75-.677-6.4-.905-1.65-.226-3.72-.563-4.6-.747-.88-.184-2.59-.54-3.8-.79-5.546-1.15-16.972-4.382-19.8-5.602-.44-.188-2.33-.932-4.2-1.65-13.73-5.275-30.05-14.803-40.792-23.815-7.88-6.61-14.618-13.262-20.42-20.155-1.203-1.43-2.278-2.69-2.388-2.8-2.363-2.363-13.2-18.47-13.2-19.618 0-.227 2.644-.382 6.53-.382 6.807 0 13.71-.49 17.47-1.24 2.4-.48 9.836-2.697 10.8-3.22.894-.487 5.992-2.74 6.198-2.74.098 0 1.13-.43 2.29-.955 4.945-2.237 5.885-2.646 7.944-3.46 11.254-4.443 24.89-6.316 34.735-4.772 4.475.7 7.39 1.247 8.433 1.577a93 93 0 0 0 2.8.81c2.523.692 6.722 2.212 10.8 3.91 8.102 3.372 13.565 4.472 22.27 4.483 5.85.007 7.538-.187 12.73-1.466 3.78-.93 4.45-1.14 10.6-3.316 10.82-3.827 12.084-4.216 19-5.836 14.095-3.3 31.052-.598 46.803 7.46 8.55 4.376 16.53 6.366 25.524 6.366h4.635l1.155-1.7c1.868-2.75 6.042-10.567 7.848-14.7.625-1.43 1.564-3.55 2.086-4.712.523-1.16.95-2.366.95-2.676 0-.31.183-.678.407-.816 1.266-.783-.982-.996-10.53-1-11.607-.003-17.75-.6-24.277-2.364-.77-.208-1.85-.495-2.4-.638a17.72 17.72 0 0 1-1.8-.587 53.45 53.45 0 0 0-2.2-.807c-2.138-.734-2.563-.924-9-4.007-7.226-3.46-7.8-3.704-10.5-4.44l-2.8-.76c-5.818-1.584-13.924-1.983-20.135-.993-6.29 1.003-6.435 1.046-23.765 7.03-18.758 6.475-33.883 6.008-53.004-1.638-16.69-6.674-31.732-7.066-44.692-1.164-.932.425-1.782.772-1.888.772-.106 0-1.188.45-2.404 1l-4.424 2c-1.216.55-2.29 1-2.388 1-.097 0-1.13.436-2.295.97-6.156 2.815-11.793 4.574-18.655 5.82-2.666.483-20.314 1.17-30.682 1.196-6.71.016-6.176.233-7.31-2.986-2.402-6.823-4.992-18.603-6.507-29.6-.67-4.88-.67-30.72 0-35.6 1.752-12.714 5.166-27.153 8.038-34 .185-.44.924-2.33 1.642-4.2 14.957-38.93 47.84-71.813 86.77-86.77 1.87-.718 3.76-1.457 4.2-1.642 7.055-2.96 23.17-6.726 34.2-7.992 7.105-.816 29.49-.804 35.6.02M190 62.21c-7.184.58-10.077.967-16.8 2.245-2.73.52-8.66 1.9-10 2.328-.55.176-2.35.724-4 1.216-1.65.492-3.36 1.042-3.8 1.22-.44.18-1.52.556-2.4.835-.88.28-1.77.652-1.98.827a1.61 1.61 0 0 1-.888.318c-.28 0-1.46.427-2.62.95-1.162.52-3.282 1.46-4.712 2.085-6.254 2.733-15.87 8.225-21.66 12.37-2.74 1.96-6.48 4.734-6.74 4.994-.11.11-1.19 1.005-2.4 1.99-5.906 4.8-13.61 12.504-18.41 18.41-.985 1.21-1.88 2.29-1.99 2.4-.26.26-3.034 4-4.995 6.74-4.145 5.79-9.637 15.406-12.37 21.66-.625 1.43-1.564 3.55-2.086 4.712-.523 1.16-.95 2.34-.95 2.62 0 .28-.143.68-.318.888-.175.21-.547 1.1-.827 1.98-.28.88-.655 1.96-.834 2.4-.178.44-.728 2.15-1.22 3.8a316.86 316.86 0 0 1-1.217 4c-6.008 18.783-6.51 45.423-1.287 68.495.83 3.667.065 3.475 12.304 3.087 12.186-.387 17.457-1.27 23.6-3.95.44-.193 1.43-.62 2.2-.948.77-.33 2.44-1.067 3.712-1.64 1.27-.575 2.39-1.044 2.488-1.044.097 0 1.172-.45 2.388-1l4.312-1.948c1.84-.83 7.33-2.755 10.9-3.818.66-.197 2.46-.574 4-.837s3.664-.64 4.72-.838c6.064-1.135 19.65-.128 27.18 2.013.825.235 2.085.583 2.8.774 1.072.287 8.674 3.187 11.7 4.463.44.186 1.88.687 3.2 1.114 2.252.728 3.714 1.067 8.92 2.068 4.8.924 14.9.34 20.58-1.188 4.447-1.197 4.98-1.363 6.5-2.025.44-.193 2.69-.977 5-1.744 2.31-.768 5.28-1.788 6.6-2.268 1.32-.48 2.985-1.03 3.7-1.22a202.3 202.3 0 0 0 2.8-.778c7.043-2.02 18.892-2.942 25.267-1.967 11.14 1.704 15.138 2.935 24.633 7.586 12.87 6.303 17.496 7.217 36.51 7.213l12.51-.003.424-1.1c.234-.605.59-2 .79-3.1 3.885-21.22 3.968-36.162.31-55.4-.518-2.73-1.898-8.66-2.327-10-.176-.55-.724-2.35-1.216-4-.492-1.65-1.042-3.36-1.22-3.8-.18-.44-.556-1.52-.835-2.4-.28-.88-.652-1.77-.827-1.98a1.61 1.61 0 0 1-.318-.888c0-.28-.427-1.46-.95-2.62a617.488 617.488 0 0 1-2.085-4.712c-2.733-6.254-8.225-15.87-12.37-21.66-1.96-2.74-4.734-6.48-4.994-6.74-.11-.11-1.005-1.19-1.99-2.4-4.8-5.906-12.504-13.61-18.41-18.41-1.21-.985-2.29-1.88-2.4-1.99-.26-.26-4-3.034-6.74-4.995-5.79-4.145-15.406-9.637-21.66-12.37a617.54 617.54 0 0 1-4.712-2.086c-1.16-.523-2.34-.95-2.62-.95-.28 0-.68-.143-.888-.318-.21-.175-1.1-.547-1.98-.827-.88-.28-1.96-.655-2.4-.834-.44-.178-2.15-.728-3.8-1.22a316.86 316.86 0 0 1-4-1.217c-12.063-3.86-31.784-5.786-46.8-4.573m22.4 6.59c0 .235 1.392.4 3.376.4 1.857 0 3.488.18 3.624.4.136.22 1.317.4 2.624.4 1.317 0 2.376.178 2.376.4 0 .22.9.4 2 .4s2 .18 2 .4.72.4 1.6.4 1.6.18 1.6.4.72.4 1.6.4 1.6.18 1.6.4.54.4 1.2.4 1.2.18 1.2.4.54.4 1.2.4 1.2.18 1.2.4.54.4 1.2.4 1.2.18 1.2.4.54.4 1.2.4 1.2.18 1.2.4.54.4 1.2.4 1.2.18 1.2.4.36.4.8.4.8.18.8.4.54.4 1.2.4 1.2.18 1.2.4.36.4.8.4.8.18.8.4.36.4.8.4.8.18.8.4.54.4 1.2.4 1.2.18 1.2.4.36.4.8.4.8.18.8.4.36.4.8.4.8.18.8.4.278.4.617.4c.34 0 1.003.36 1.475.8s1.095.8 1.383.8c.29 0 .525.18.525.4s.36.4.8.4.8.18.8.4.278.4.617.4c.34 0 1.003.36 1.475.8s1.095.8 1.383.8c.29 0 .525.18.525.4s.32.4.712.4c.39 0 .97.36 1.288.8.317.44.857.8 1.2.8.343 0 .883.36 1.2.8.317.44.825.8 1.128.8.303 0 1.055.54 1.672 1.2.617.66 1.337 1.2 1.6 1.2s.983.54 1.6 1.2c.617.66 1.33 1.2 1.586 1.2.256 0 1.343.9 2.414 2 1.07 1.1 2.14 2 2.377 2 .56 0 13.623 13.063 13.623 13.623 0 .236.9 1.306 2 2.377 1.1 1.07 2 2.158 2 2.414 0 .256.54.97 1.2 1.586.66.617 1.2 1.337 1.2 1.6s.54.983 1.2 1.6c.66.617 1.2 1.37 1.2 1.672 0 .303.36.81.8 1.128.44.317.8.857.8 1.2 0 .343.36.883.8 1.2.44.317.8.897.8 1.288 0 .392.18.712.4.712s.4.236.4.525c0 .288.36.91.8 1.383.44.472.8 1.136.8 1.475 0 .34.18.617.4.617s.4.36.4.8.18.8.4.8.4.236.4.525c0 .288.36.91.8 1.383.44.472.8 1.136.8 1.475 0 .34.18.617.4.617s.4.36.4.8.18.8.4.8.4.36.4.8.18.8.4.8.4.54.4 1.2.18 1.2.4 1.2.4.36.4.8.18.8.4.8.4.36.4.8.18.8.4.8.4.54.4 1.2.18 1.2.4 1.2.4.36.4.8.18.8.4.8.4.54.4 1.2.18 1.2.4 1.2.4.54.4 1.2.18 1.2.4 1.2.4.54.4 1.2.18 1.2.4 1.2.4.54.4 1.2.18 1.2.4 1.2.4.54.4 1.2.18 1.2.4 1.2.4.72.4 1.6.18 1.6.4 1.6.4.72.4 1.6.18 1.6.4 1.6.4.9.4 2 .18 2 .4 2c.222 0 .4 1.06.4 2.376 0 1.307.18 2.488.4 2.624.22.136.4 1.767.4 3.624 0 1.984.165 3.376.4 3.376.258 0 .4 4.4.4 12.4 0 8-.142 12.4-.4 12.4-.233 0-.4 1.325-.4 3.176 0 1.747-.18 3.288-.4 3.424-.22.136-.4 1.407-.4 2.824 0 1.45-.175 2.576-.4 2.576-.22 0-.4.36-.4.8 0 .783-.267.8-12.8.8-8.267 0-12.8-.142-12.8-.4 0-.22-.71-.4-1.576-.4-.867 0-1.688-.18-1.824-.4-.136-.22-.867-.4-1.624-.4-.757 0-1.376-.18-1.376-.4s-.44-.4-.976-.4c-.537 0-1.088-.18-1.224-.4-.136-.22-.597-.4-1.024-.4-.427 0-.776-.18-.776-.4s-.36-.4-.8-.4-.8-.18-.8-.4-.36-.4-.8-.4-.8-.18-.8-.4-.36-.4-.8-.4-.8-.18-.8-.4-.36-.4-.8-.4-.8-.18-.8-.4-.36-.4-.8-.4-.8-.18-.8-.4-.36-.4-.8-.4-.8-.18-.8-.4-.54-.4-1.2-.4-1.2-.18-1.2-.4-.36-.4-.8-.4-.8-.18-.8-.4-.54-.4-1.2-.4-1.2-.18-1.2-.4-.54-.4-1.2-.4-1.2-.18-1.2-.4-.72-.4-1.6-.4-1.6-.18-1.6-.4-.8-.4-1.776-.4c-.977 0-1.888-.18-2.024-.4-.136-.22-1.137-.4-2.224-.4s-1.976-.18-1.976-.4c0-.257-3.867-.4-10.8-.4s-10.8.143-10.8.4c0 .22-.89.4-1.976.4-1.087 0-2.088.18-2.224.4-.136.22-1.047.4-2.024.4-.977 0-1.776.18-1.776.4s-.54.4-1.2.4-1.2.18-1.2.4-.72.4-1.6.4-1.6.18-1.6.4-.54.4-1.2.4-1.2.18-1.2.4-.54.4-1.2.4-1.2.18-1.2.4-.36.4-.8.4-.8.18-.8.4-.54.4-1.2.4-1.2.18-1.2.4-.54.4-1.2.4-1.2.18-1.2.4-.54.4-1.2.4-1.2.18-1.2.4-.54.4-1.2.4-1.2.18-1.2.4-.54.4-1.2.4-1.2.18-1.2.4-.72.4-1.6.4-1.6.18-1.6.4c0 .233-1.333.4-3.2.4-1.867 0-3.2.167-3.2.4 0 .228-1.192.4-2.776.4-1.527 0-2.888-.18-3.024-.4-.136-.22-1.576-.4-3.2-.4-1.624 0-3.064-.18-3.2-.4-.136-.22-1.047-.4-2.024-.4-.977 0-1.776-.18-1.776-.4s-.54-.4-1.2-.4-1.2-.18-1.2-.4-.36-.4-.8-.4-.8-.18-.8-.4-.54-.4-1.2-.4-1.2-.18-1.2-.4-.36-.4-.8-.4-.8-.18-.8-.4-.54-.4-1.2-.4-1.2-.18-1.2-.4-.54-.4-1.2-.4-1.2-.18-1.2-.4-.36-.4-.8-.4-.8-.18-.8-.4-.53-.4-1.176-.4c-.647 0-1.288-.18-1.424-.4-.136-.22-.867-.4-1.624-.4-.757 0-1.376-.18-1.376-.4s-.72-.4-1.6-.4-1.6-.18-1.6-.4-.98-.4-2.176-.4c-1.197 0-2.288-.18-2.424-.4-.136-.22-1.666-.4-3.4-.4-1.734 0-3.264-.18-3.4-.4-.143-.232-2.337-.4-5.224-.4-3.05 0-4.976.155-4.976.4 0 .235-1.392.4-3.376.4-1.857 0-3.488.18-3.624.4-.136.22-1.036.4-2 .4s-1.864.18-2 .4c-.136.22-.856.4-1.6.4s-1.464.18-1.6.4c-.136.22-.777.4-1.424.4s-1.176.18-1.176.4-.62.4-1.376.4c-.757 0-1.488.18-1.624.4-.136.22-.597.4-1.024.4-.427 0-.776.18-.776.4s-.54.4-1.2.4-1.2.18-1.2.4-.36.4-.8.4-.8.18-.8.4-.54.4-1.2.4-1.2.18-1.2.4-.36.4-.8.4-.8.18-.8.4-.36.4-.8.4-.8.18-.8.4-.36.4-.8.4-.8.18-.8.4-.54.4-1.2.4-1.2.18-1.2.4-.36.4-.8.4-.8.18-.8.4-.36.4-.8.4-.8.18-.8.4-.54.4-1.2.4-1.2.18-1.2.4-.36.4-.8.4-.8.18-.8.4-.54.4-1.2.4-1.2.18-1.2.4-.62.4-1.376.4c-.757 0-1.488.18-1.624.4-.136.22-1.1.4-2.144.4-1.043 0-2.08.184-2.305.41-.257.257-3.338.367-8.38.3L71 228.2l-.124-2c-.068-1.1-.293-2.17-.5-2.38-.207-.21-.376-1.323-.376-2.476 0-1.153-.18-2.208-.4-2.344-.22-.136-.4-1.677-.4-3.424 0-1.85-.167-3.176-.4-3.176-.258 0-.4-4.4-.4-12.4 0-8 .142-12.4.4-12.4.235 0 .4-1.392.4-3.376 0-1.857.18-3.488.4-3.624.22-.136.4-1.317.4-2.624 0-1.317.178-2.376.4-2.376.22 0 .4-.9.4-2s.18-2 .4-2 .4-.72.4-1.6.18-1.6.4-1.6.4-.72.4-1.6.18-1.6.4-1.6.4-.54.4-1.2.18-1.2.4-1.2.4-.54.4-1.2.18-1.2.4-1.2.4-.54.4-1.2.18-1.2.4-1.2.4-.54.4-1.2.18-1.2.4-1.2.4-.54.4-1.2.18-1.2.4-1.2.4-.36.4-.8.18-.8.4-.8.4-.54.4-1.2.18-1.2.4-1.2.4-.36.4-.8.18-.8.4-.8.4-.36.4-.8.18-.8.4-.8.4-.54.4-1.2.18-1.2.4-1.2.4-.36.4-.8.18-.8.4-.8.4-.36.4-.8.18-.8.4-.8.4-.278.4-.617c0-.34.36-1.003.8-1.475s.8-1.095.8-1.383c0-.29.18-.525.4-.525s.4-.36.4-.8.18-.8.4-.8.4-.278.4-.617c0-.34.36-1.003.8-1.475s.8-1.095.8-1.383c0-.29.18-.525.4-.525s.4-.32.4-.712c0-.39.36-.97.8-1.288.44-.317.8-.857.8-1.2 0-.343.36-.883.8-1.2.44-.317.8-.825.8-1.128 0-.303.54-1.055 1.2-1.672.66-.617 1.2-1.337 1.2-1.6s.54-.983 1.2-1.6c.66-.617 1.2-1.33 1.2-1.586 0-.256.9-1.343 2-2.414 1.1-1.07 2-2.14 2-2.377 0-.56 13.063-13.623 13.623-13.623.236 0 1.306-.9 2.377-2 1.07-1.1 2.158-2 2.414-2 .256 0 .97-.54 1.586-1.2.617-.66 1.337-1.2 1.6-1.2s.983-.54 1.6-1.2c.617-.66 1.37-1.2 1.672-1.2.303 0 .81-.36 1.128-.8.317-.44.857-.8 1.2-.8.343 0 .883-.36 1.2-.8.317-.44.897-.8 1.288-.8.392 0 .712-.18.712-.4s.236-.4.525-.4c.288 0 .91-.36 1.383-.8.472-.44 1.136-.8 1.475-.8.34 0 .617-.18.617-.4s.36-.4.8-.4.8-.18.8-.4.236-.4.525-.4c.288 0 .91-.36 1.383-.8.472-.44 1.136-.8 1.475-.8.34 0 .617-.18.617-.4s.36-.4.8-.4.8-.18.8-.4.36-.4.8-.4.8-.18.8-.4.54-.4 1.2-.4 1.2-.18 1.2-.4.36-.4.8-.4.8-.18.8-.4.36-.4.8-.4.8-.18.8-.4.54-.4 1.2-.4 1.2-.18 1.2-.4.36-.4.8-.4.8-.18.8-.4.54-.4 1.2-.4 1.2-.18 1.2-.4.54-.4 1.2-.4 1.2-.18 1.2-.4.54-.4 1.2-.4 1.2-.18 1.2-.4.54-.4 1.2-.4 1.2-.18 1.2-.4.54-.4 1.2-.4 1.2-.18 1.2-.4.72-.4 1.6-.4 1.6-.18 1.6-.4.72-.4 1.6-.4 1.6-.18 1.6-.4.9-.4 2-.4 2-.18 2-.4c0-.222 1.06-.4 2.376-.4 1.307 0 2.488-.18 2.624-.4.136-.22 1.767-.4 3.624-.4 1.984 0 3.376-.165 3.376-.4 0-.258 4.4-.4 12.4-.4 8 0 12.4.142 12.4.4M246 274.21c-1.87.27-4.03.624-4.8.784-1.47.305-15.223 4.78-16.6 5.402-9.19 4.15-27.138 6.484-36.833 4.79-7.413-1.294-11.695-2.53-19.367-5.586-15.354-6.117-26.997-6.85-40.4-2.54-1.897.61-2.264.757-5.296 2.1-1.042.462-1.982.84-2.088.84-.106 0-1.143.43-2.304.955a448.874 448.874 0 0 1-7.312 3.24c-.66.282-2.01.87-3 1.305-1.94.855-5.627 2.127-8.2 2.83-3.246.887-4.6 1.337-4.6 1.53 0 .784 11.827 12.54 12.615 12.54.328 0 .908-.177 1.29-.394.913-.517 6.06-2.806 6.31-2.806.106 0 1.047-.378 2.09-.84 2.934-1.3 3.33-1.454 5.895-2.288 3.535-1.15 7.37-2.015 12.646-2.852 5.518-.876 17.423-.365 23.154.992l2.8.665c2.782.66 7 2.09 11.604 3.93 11.945 4.777 23.286 6.48 31.665 4.754 4.69-.964 8.872-2.097 12.605-3.413 26.02-9.17 35.27-10.162 52.925-5.67 3.673.934 5.678 1.584 6.18 2.005.21.175.635.318.946.318.31 0 3.52 1.453 7.133 3.23l6.567 3.228 2.78-2.465c2.292-2.032 5.834-5.73 10.494-10.96.872-.977.428-1.322-2.1-1.628-6.657-.806-14.29-3.157-21.4-6.592-11.28-5.45-13.473-6.18-22.2-7.413-4.866-.687-8.433-.685-13.2.01m-99.2 6.59c0 .237 1.467.4 3.6.4s3.6.163 3.6.4c0 .22.72.4 1.6.4s1.6.18 1.6.4.54.4 1.2.4 1.2.18 1.2.4.54.4 1.2.4 1.2.18 1.2.4.54.4 1.2.4 1.2.18 1.2.4.36.4.8.4.8.18.8.4.54.4 1.2.4 1.2.18 1.2.4.36.4.8.4.8.18.8.4.54.4 1.2.4 1.2.18 1.2.4.54.4 1.2.4 1.2.18 1.2.4.72.4 1.6.4 1.6.18 1.6.4.72.4 1.6.4 1.6.18 1.6.4.9.4 2 .4 2 .18 2 .4c0 .233 1.333.4 3.2.4 1.867 0 3.2.167 3.2.4 0 .248 2.133.4 5.6.4s5.6-.152 5.6-.4c0-.235 1.392-.4 3.376-.4 1.857 0 3.488-.18 3.624-.4.136-.22.946-.4 1.8-.4s1.664-.18 1.8-.4c.136-.22.946-.4 1.8-.4s1.664-.18 1.8-.4c.136-.22.777-.4 1.424-.4s1.176-.18 1.176-.4.54-.4 1.2-.4 1.2-.18 1.2-.4.54-.4 1.2-.4 1.2-.18 1.2-.4.54-.4 1.2-.4 1.2-.18 1.2-.4.54-.4 1.2-.4 1.2-.18 1.2-.4.54-.4 1.2-.4 1.2-.18 1.2-.4.54-.4 1.2-.4 1.2-.18 1.2-.4.54-.4 1.2-.4 1.2-.18 1.2-.4.54-.4 1.2-.4 1.2-.18 1.2-.4.54-.4 1.2-.4 1.2-.18 1.2-.4.8-.4 1.776-.4c.977 0 1.888-.18 2.024-.4.15-.244 3.196-.4 7.8-.4s7.65.156 7.8.4c.136.22 1.047.4 2.024.4.977 0 1.776.18 1.776.4s.72.4 1.6.4 1.6.18 1.6.4.36.4.8.4.8.18.8.4.54.4 1.2.4 1.2.18 1.2.4.36.4.8.4.8.18.8.4.36.4.8.4.8.18.8.4.36.4.8.4.8.18.8.4.36.4.8.4.8.18.8.4.36.4.8.4.8.18.8.4.36.4.8.4.8.18.8.4.44.4.976.4c.537 0 1.088.18 1.224.4.136.22.597.4 1.024.4.427 0 .776.18.776.4s.54.4 1.2.4 1.2.18 1.2.4.54.4 1.2.4 1.2.18 1.2.4.72.4 1.6.4 1.6.096 1.6.213c0 .56-2.96 3.107-3.105 2.672-.09-.267-.507-.485-.928-.485-.422 0-.767-.18-.767-.4s-.36-.4-.8-.4-.8-.18-.8-.4-.36-.4-.8-.4-.8-.18-.8-.4-.36-.4-.8-.4-.8-.18-.8-.4-.54-.4-1.2-.4-1.2-.18-1.2-.4-.36-.4-.8-.4-.8-.18-.8-.4-.54-.4-1.2-.4-1.2-.18-1.2-.4-.72-.4-1.6-.4-1.6-.18-1.6-.4-.53-.4-1.176-.4c-.647 0-1.288-.18-1.424-.4-.136-.22-1.047-.4-2.024-.4-.977 0-1.776-.18-1.776-.4s-.9-.4-2-.4-2-.18-2-.4c0-.257-3.792-.4-10.576-.4-6.62 0-10.67.15-10.824.4-.136.22-1.137.4-2.224.4s-1.976.18-1.976.4-.72.4-1.6.4-1.6.18-1.6.4-.72.4-1.6.4-1.6.18-1.6.4-.542.4-1.205.4c-.663 0-1.608.208-2.1.462-1.926.996-2.312 1.138-3.09 1.138-.443 0-.805.18-.805.4s-.54.4-1.2.4-1.2.18-1.2.4-.54.4-1.2.4-1.2.18-1.2.4-.54.4-1.2.4-1.2.18-1.2.4-.54.4-1.2.4-1.2.18-1.2.4-.54.4-1.2.4-1.2.18-1.2.4-.54.4-1.2.4-1.2.18-1.2.4-.72.4-1.6.4-1.6.18-1.6.4c0 .23-1.26.4-2.976.4-1.637 0-3.088.18-3.224.4-.136.22-1.666.4-3.4.4-1.734 0-3.264-.18-3.4-.4-.136-.22-1.587-.4-3.224-.4-1.717 0-2.976-.17-2.976-.4 0-.22-.72-.4-1.6-.4s-1.6-.18-1.6-.4-.54-.4-1.2-.4-1.2-.18-1.2-.4-.44-.4-.976-.4c-.537 0-1.088-.18-1.224-.4-.136-.22-.597-.4-1.024-.4-.427 0-.776-.18-.776-.4s-.54-.4-1.2-.4-1.2-.18-1.2-.4-.36-.4-.8-.4-.8-.18-.8-.4-.54-.4-1.2-.4-1.2-.18-1.2-.4-.35-.4-.776-.4c-.427 0-.888-.18-1.024-.4-.136-.22-.867-.4-1.624-.4-.757 0-1.376-.18-1.376-.4s-.53-.4-1.176-.4c-.647 0-1.288-.18-1.424-.4-.136-.22-.856-.4-1.6-.4s-1.464-.18-1.6-.4c-.136-.22-1.227-.4-2.424-.4s-2.176-.18-2.176-.4c0-.238-1.525-.4-3.776-.4-2.087 0-3.887-.18-4.024-.4-.136-.22-1.846-.4-3.8-.4s-3.664.18-3.8.4c-.137.22-1.937.4-4.024.4-2.25 0-3.776.162-3.776.4 0 .22-.9.4-2 .4s-2 .18-2 .4-.72.4-1.6.4-1.6.18-1.6.4-.72.4-1.6.4-1.6.18-1.6.4-.54.4-1.2.4-1.2.18-1.2.4-.54.4-1.2.4-1.2.18-1.2.4-.54.4-1.2.4-1.2.18-1.2.4-.36.4-.8.4-.8.18-.8.4-.36.4-.8.4-.8.18-.8.4-.54.4-1.2.4-1.2.18-1.2.4c0 .733-1.224.412-2.218-.582-1.26-1.26-1.236-1.418.218-1.418.66 0 1.2-.18 1.2-.4s.36-.4.8-.4.8-.18.8-.4.54-.4 1.2-.4 1.2-.18 1.2-.4.36-.4.8-.4.8-.18.8-.4.36-.4.8-.4.8-.18.8-.4.44-.4.976-.4c.537 0 1.088-.18 1.224-.4.136-.22.597-.4 1.024-.4.427 0 .776-.18.776-.4s.36-.4.8-.4.8-.18.8-.4.36-.4.8-.4.8-.18.8-.4.54-.4 1.2-.4 1.2-.18 1.2-.4.36-.4.8-.4.8-.18.8-.4.54-.4 1.2-.4 1.2-.18 1.2-.4.54-.4 1.2-.4 1.2-.18 1.2-.4.72-.4 1.6-.4 1.6-.18 1.6-.4c0-.237 1.467-.4 3.6-.4s3.6-.163 3.6-.4c0-.22.9-.4 2-.4s2 .18 2 .4m99.4 26.862c-4.88.73-13.857 3.2-17.2 4.736-.713.327-11.33 3.84-14.4 4.765-.66.2-2.46.577-4 .84-1.54.263-3.664.64-4.72.838-2.625.492-14.805.455-17.713-.053-7.92-1.384-12.19-2.556-17.767-4.878-.55-.23-1.405-.573-1.9-.764-.495-.19-1.395-.55-2-.8-7.392-3.047-13.824-4.33-21.7-4.33-4.92 0-9.37.523-13.2 1.553l-2.4.643c-2.547.68-7.584 2.83-7.47 3.187.405 1.277 14.135 9.334 21.07 12.365 1.43.625 3.55 1.564 4.712 2.086 1.16.523 2.29.95 2.505.95.217 0 .706.175 1.088.39.583.325 7.616 2.678 11.895 3.98 21.46 6.524 52.14 6.52 74-.007 3.772-1.127 11.3-3.642 11.895-3.974.382-.215.87-.39 1.088-.39.216 0 1.39-.45 2.605-1 1.217-.55 3.247-1.456 4.512-2.013 7.798-3.435 21.218-11.35 20.69-12.202-2.22-3.595-22.16-7.334-31.59-5.923m-97.8 6.738c0 .23 1.26.4 2.976.4 1.637 0 3.088.18 3.224.4.136.22.957.4 1.824.4s1.576.18 1.576.4.54.4 1.2.4 1.2.18 1.2.4.36.4.8.4.8.18.8.4.54.4 1.2.4 1.2.18 1.2.4.36.4.8.4.8.18.8.4.54.4 1.2.4 1.2.18 1.2.4.35.4.776.4c.427 0 .888.18 1.024.4.136.22.687.4 1.224.4s.976.18.976.4.54.4 1.2.4 1.2.18 1.2.4.72.4 1.6.4 1.6.18 1.6.4.72.4 1.6.4 1.6.18 1.6.4.89.4 1.976.4c1.087 0 2.088.18 2.224.4.136.22 1.846.4 3.8.4s3.664.18 3.8.4c.14.227 2.137.4 4.624.4 2.65 0 4.376-.158 4.376-.4 0-.237 1.467-.4 3.6-.4s3.6-.163 3.6-.4c0-.22.9-.4 2-.4s2-.18 2-.4.72-.4 1.6-.4 1.6-.18 1.6-.4.72-.4 1.6-.4 1.6-.18 1.6-.4.54-.4 1.2-.4 1.2-.18 1.2-.4.54-.4 1.2-.4 1.2-.18 1.2-.4.54-.4 1.2-.4 1.2-.18 1.2-.4.54-.4 1.2-.4 1.2-.18 1.2-.4.54-.4 1.2-.4 1.2-.18 1.2-.4.44-.4.976-.4c.537 0 1.088-.18 1.224-.4.136-.22.597-.4 1.024-.4.427 0 .776-.18.776-.4s.54-.4 1.2-.4 1.2-.18 1.2-.4.54-.4 1.2-.4 1.2-.18 1.2-.4.9-.4 2-.4 2-.18 2-.4c0-.254 3.067-.4 8.4-.4 5.333 0 8.4.146 8.4.4 0 .22.54.4 1.2.4s1.2.18 1.2.4-.236.4-.525.4c-.288 0-.91.36-1.383.8-.472.44-1.136.8-1.475.8-.34 0-.617.18-.617.4s-.36.4-.8.4-.8.18-.8.4-.44.4-.976.4c-.537 0-1.088.18-1.224.4-.136.22-.597.4-1.024.4-.427 0-.776.18-.776.4s-.36.4-.8.4-.8.18-.8.4-.36.4-.8.4-.8.18-.8.4-.54.4-1.2.4-1.2.18-1.2.4-.36.4-.8.4-.8.18-.8.4-.54.4-1.2.4-1.2.18-1.2.4-.54.4-1.2.4-1.2.18-1.2.4-.54.4-1.2.4-1.2.18-1.2.4-.54.4-1.2.4-1.2.18-1.2.4-.54.4-1.2.4-1.2.18-1.2.4-.72.4-1.6.4-1.6.18-1.6.4-.71.4-1.576.4c-.867 0-1.688.18-1.824.4-.136.22-1.126.4-2.2.4s-2.064.18-2.2.4c-.136.22-1.216.4-2.4.4-1.184 0-2.264.18-2.4.4-.136.22-1.677.4-3.424.4-1.85 0-3.176.167-3.176.4 0 .258-4.4.4-12.4.4-8 0-12.4-.142-12.4-.4 0-.233-1.325-.4-3.176-.4-1.747 0-3.288-.18-3.424-.4-.136-.22-1.216-.4-2.4-.4-1.184 0-2.264-.18-2.4-.4-.136-.22-1.126-.4-2.2-.4s-2.064-.18-2.2-.4c-.136-.22-.957-.4-1.824-.4s-1.576-.18-1.576-.4-.72-.4-1.6-.4-1.6-.18-1.6-.4-.54-.4-1.2-.4-1.2-.18-1.2-.4-.54-.4-1.2-.4-1.2-.18-1.2-.4-.54-.4-1.2-.4-1.2-.18-1.2-.4-.54-.4-1.2-.4-1.2-.18-1.2-.4-.54-.4-1.2-.4-1.2-.18-1.2-.4-.36-.4-.8-.4-.8-.18-.8-.4-.54-.4-1.2-.4-1.2-.18-1.2-.4-.36-.4-.8-.4-.8-.18-.8-.4-.36-.4-.8-.4-.8-.18-.8-.4-.35-.4-.776-.4c-.427 0-.888-.18-1.024-.4-.136-.22-.687-.4-1.224-.4s-.976-.18-.976-.4-.36-.4-.8-.4-.8-.18-.8-.4-.32-.4-.712-.4c-.39 0-.97-.36-1.288-.8-.317-.44-.897-.8-1.288-.8-.392 0-.712-.18-.712-.4 0-.222 1.06-.4 2.376-.4 1.307 0 2.488-.18 2.624-.4.136-.22 1.767-.4 3.624-.4 1.984 0 3.376.165 3.376.4" fill="#7d7d7d"/></g></svg>