<svg version="1.0" xmlns="http://www.w3.org/2000/svg"
 width="512.000000pt" height="512.000000pt" viewBox="0 0 512.000000 512.000000"
 preserveAspectRatio="xMidYMid meet">

<g transform="translate(0.000000,512.000000) scale(0.100000,-0.100000)" stroke="none">
<path d="M3845 4871 c-11 -5 -41 -11 -67 -15 -42 -6 -52 -13 -78 -51 -16 -24
-30 -49 -30 -56 0 -7 -11 -2 -25 11 -47 44 -152 42 -295 -5 -234 -77 -491
-147 -557 -152 l-73 -6 0 46 c0 37 -5 49 -26 66 -23 18 -41 21 -117 21 -155 0
-222 -50 -214 -162 l3 -57 -37 -15 c-39 -16 -169 -50 -231 -60 -21 -4 -40 -11
-42 -15 -7 -10 39 -276 53 -314 30 -79 137 -75 216 9 38 40 63 43 94 10 l23
-24 -34 -10 c-363 -116 -527 -161 -581 -162 -14 0 -17 5 -12 20 9 27 -22 76
-57 91 -69 29 -258 -64 -258 -127 0 -12 12 -37 27 -54 28 -34 28 -34 -29 -65
-43 -23 -188 -62 -262 -70 l-68 -7 25 34 c33 43 49 106 41 160 -9 58 -76 128
-123 128 -23 0 -31 5 -31 18 0 9 34 85 75 167 82 166 99 228 71 269 -21 33
-20 36 9 36 39 0 90 54 139 149 l45 88 -29 47 c-16 25 -34 46 -40 46 -5 0 -32
-8 -59 -19 -49 -18 -50 -18 -68 1 -36 40 -154 -6 -203 -78 -33 -47 -95 -94
-166 -125 -65 -29 -199 -169 -219 -229 -16 -47 -50 -87 -93 -109 -13 -7 -43
-43 -67 -80 -27 -42 -55 -73 -72 -80 -53 -22 -198 -315 -277 -560 -104 -322
-147 -696 -115 -996 5 -49 10 -99 11 -110 2 -54 51 -292 79 -390 269 -938
1052 -1641 2019 -1812 177 -31 520 -43 703 -24 929 98 1731 691 2095 1551 194
458 248 967 157 1465 -14 72 -32 155 -41 185 -98 326 -195 537 -356 778 -71
106 -102 131 -138 112 -16 -8 -28 2 -85 70 -37 44 -71 95 -76 114 -20 71 -154
186 -219 186 -16 0 -64 31 -134 85 -110 85 -133 95 -181 76z m174 -132 c65
-50 125 -89 132 -88 50 10 179 -93 179 -142 0 -18 92 -144 173 -235 l18 -22
-78 -26 c-87 -29 -123 -50 -123 -71 0 -8 18 -35 41 -61 29 -33 39 -54 37 -72
-6 -55 -124 -86 -182 -48 -17 11 -31 33 -38 62 -15 56 -45 84 -89 86 -49 2
-73 -8 -175 -68 -50 -30 -128 -70 -175 -90 l-84 -36 -49 54 c-70 77 -164 195
-181 229 -14 26 -14 32 0 60 16 30 16 30 79 24 63 -7 101 2 118 29 17 24 7 92
-20 141 -51 93 -135 120 -217 70 -50 -31 -76 -31 -112 -1 -28 24 -80 112 -72
121 9 8 235 77 288 86 77 15 111 6 139 -36 43 -68 114 -91 185 -62 73 31 73
73 -1 127 l-47 35 55 11 c30 7 61 12 67 13 7 0 66 -40 132 -90z m-2914 21
c-34 -36 -20 -39 45 -9 46 21 130 34 130 20 0 -5 -17 -34 -37 -65 -35 -52 -40
-56 -76 -56 -49 0 -96 -28 -131 -79 -30 -43 -33 -94 -5 -99 8 -1 32 8 52 22
67 46 61 2 -25 -171 -61 -121 -62 -122 -102 -129 -23 -3 -79 -17 -125 -31 -46
-13 -90 -23 -98 -21 -10 2 -4 19 21 58 53 83 45 122 -21 105 -38 -9 -100 -77
-114 -125 -17 -55 -40 -73 -104 -78 -30 -2 -55 -2 -55 2 0 20 93 147 116 158
36 17 117 116 110 134 -10 25 148 194 181 194 5 0 35 16 68 35 32 20 60 34 62
31 2 -2 -13 -24 -34 -48 -21 -24 -49 -58 -63 -76 -14 -17 -38 -34 -55 -38
l-30 -7 28 36 c31 40 33 49 12 41 -15 -6 -70 -93 -62 -100 2 -3 17 0 32 6 15
6 30 9 32 6 3 -2 -9 -23 -26 -47 -36 -49 -39 -63 -11 -56 21 5 29 -16 10 -28
-13 -8 -13 -25 0 -25 10 0 50 58 50 73 0 4 -9 7 -20 7 -11 0 -20 3 -20 8 0 4
36 54 80 112 134 176 124 161 103 153 -14 -6 -13 -1 7 26 36 47 80 91 93 91 6
0 -2 -13 -18 -30z m1518 -76 c35 -6 37 -8 37 -46 0 -28 7 -46 25 -63 38 -39
111 -34 298 20 86 25 158 45 160 45 3 0 19 -25 36 -55 34 -60 88 -103 143
-111 34 -6 95 15 140 48 27 19 63 -5 97 -64 57 -98 42 -123 -70 -123 -77 0
-83 -1 -102 -28 -46 -60 -29 -95 145 -304 37 -45 68 -84 68 -87 0 -3 -71 -28
-157 -57 -178 -58 -288 -74 -312 -45 -12 14 -11 24 3 67 22 70 20 86 -11 106
-22 14 -48 18 -133 18 -98 0 -110 -2 -170 -32 -135 -66 -167 -122 -110 -186
21 -24 47 -41 73 -47 74 -19 77 -21 77 -40 0 -35 -54 -66 -162 -93 -99 -25
-398 -80 -403 -75 -9 11 -47 203 -57 288 -12 102 -12 103 11 121 18 15 40 19
93 19 159 0 221 90 149 216 -37 64 -67 84 -127 84 -39 0 -51 -5 -81 -35 -49
-49 -74 -65 -100 -65 -29 0 -38 19 -52 115 -7 44 -14 87 -17 96 -3 12 16 20
88 37 51 13 119 33 150 46 59 24 126 72 127 92 1 5 -12 23 -29 39 -37 35 -38
50 -4 71 41 27 112 38 177 28z m-1863 -426 c0 -7 -14 -33 -30 -58 -35 -53 -40
-100 -11 -100 11 0 62 11 113 25 120 32 142 33 135 3 -18 -76 -19 -99 -2 -124
16 -25 21 -26 80 -22 58 5 64 4 69 -16 10 -38 6 -97 -9 -126 -26 -51 -51 -61
-131 -54 -69 6 -71 6 -108 -26 -79 -70 -122 -207 -111 -356 l7 -91 -71 -11
c-104 -18 -216 -16 -235 4 -23 22 -20 43 14 116 26 56 29 68 19 96 -13 37 -44
49 -91 36 -49 -14 -67 -48 -77 -149 -8 -82 -11 -91 -40 -117 -37 -33 -52 -34
-110 -8 -24 11 -50 20 -58 20 -9 0 -12 7 -9 18 9 34 46 182 46 186 0 3 7 3 15
0 11 -5 22 9 40 49 31 66 66 201 54 205 -13 5 36 126 89 221 l47 83 54 -6 c91
-11 161 35 190 126 7 21 26 49 42 63 32 26 79 34 79 13z m3914 -110 c47 -76
57 -99 52 -125 -3 -23 1 -36 16 -50 21 -18 21 -18 15 7 -6 24 -6 24 10 5 23
-30 82 -159 76 -168 -5 -9 37 -140 43 -134 3 2 0 16 -6 31 -13 35 -12 56 1 33
20 -35 89 -242 74 -222 -15 19 -16 19 -13 -5 3 -21 -3 -27 -38 -38 -53 -17
-93 -59 -101 -105 -4 -28 1 -49 25 -96 40 -76 48 -126 29 -173 -17 -40 -64
-71 -100 -66 -19 3 -23 11 -30 73 -9 86 -48 172 -82 181 -32 8 -66 -13 -178
-111 -157 -136 -304 -237 -311 -213 -3 7 -7 38 -9 68 -6 69 -38 163 -89 261
-44 86 -61 106 -106 118 -43 13 -73 -6 -99 -61 -24 -51 -78 -88 -128 -88 -50
0 -113 95 -122 185 -7 71 15 95 87 95 28 0 66 7 85 14 33 14 35 17 35 65 0 70
-25 137 -75 202 l-43 57 67 26 c37 14 118 56 180 92 78 46 126 68 157 72 43 5
44 4 44 -25 0 -76 101 -151 185 -139 60 10 105 47 105 90 0 33 -16 62 -58 108
-14 15 -24 29 -21 31 5 5 223 76 224 74 8 -19 138 -207 142 -204 2 3 -26 50
-62 105 -59 89 -72 122 -47 122 4 0 34 -42 66 -92z m-1574 -193 c10 -11 9 -24
-4 -62 -22 -64 -20 -88 9 -111 60 -47 157 -38 393 39 l153 50 20 -23 c36 -43
78 -121 90 -172 11 -44 10 -51 -7 -63 -10 -7 -39 -13 -64 -13 -97 0 -140 -37
-140 -123 0 -82 57 -199 116 -238 75 -49 201 3 231 96 8 26 15 30 44 30 33 0
36 -3 86 -100 51 -99 80 -197 85 -285 l3 -45 -145 -67 c-154 -71 -329 -138
-360 -138 -19 0 -19 1 0 33 31 54 43 115 29 149 -26 63 -111 74 -254 33 -119
-35 -188 -70 -235 -121 -73 -79 -66 -127 25 -189 66 -45 80 -78 48 -107 -34
-31 -210 -115 -274 -131 -57 -14 -181 -29 -335 -40 l-51 -4 -6 91 c-9 129 -37
212 -92 274 -58 65 -114 92 -188 92 -69 0 -115 -21 -146 -66 -38 -56 -91 -42
-131 35 -7 13 -14 58 -17 100 -6 99 13 140 74 159 36 12 53 11 113 -1 112 -23
192 9 209 83 9 42 -9 153 -44 269 -14 46 -24 86 -22 88 2 1 56 12 120 23 155
26 323 65 375 85 46 19 88 62 98 101 10 39 -18 70 -78 88 -149 44 -126 113 57
172 83 27 196 32 215 9z m-2850 -239 c0 -3 -11 -41 -25 -85 -24 -76 -36 -93
-49 -72 -9 14 46 161 61 161 7 0 13 -2 13 -4z m205 -220 c15 -23 15 -27 -8
-73 -14 -26 -28 -62 -31 -80 -20 -90 76 -124 267 -93 43 7 81 10 85 6 4 -4 7
-69 7 -144 0 -195 -25 -244 -102 -202 -51 27 -77 25 -113 -7 -78 -71 -58 -301
28 -334 21 -8 33 -5 68 21 55 39 72 38 90 -7 19 -45 43 -239 44 -350 l0 -82
-36 -7 c-77 -14 -254 23 -324 70 -63 42 -73 62 -61 137 11 71 4 120 -26 171
-22 38 -86 78 -124 78 -44 0 -52 -20 -47 -120 6 -103 0 -109 -56 -60 -35 32
-40 45 -57 170 -21 150 7 620 39 652 9 9 22 7 57 -10 59 -29 77 -28 116 5 47
40 69 95 69 180 0 63 3 74 22 87 34 24 75 20 93 -8z m1833 -154 c18 -70 34
-150 35 -177 2 -49 1 -51 -36 -69 -35 -16 -45 -17 -97 -6 -115 24 -188 3 -237
-70 -19 -28 -23 -46 -23 -115 0 -124 37 -207 107 -240 47 -23 85 -12 128 37
68 74 152 75 234 2 69 -62 93 -123 99 -251 l5 -101 -49 -6 c-142 -17 -330 -51
-428 -76 -124 -32 -271 -83 -300 -105 -34 -26 -23 -62 39 -125 40 -40 56 -63
52 -75 -14 -36 -215 -94 -328 -95 -99 0 -140 58 -79 112 23 20 30 35 30 64 0
31 -7 44 -43 78 -48 47 -100 66 -176 66 -53 0 -330 -26 -367 -35 -21 -5 -22
-1 -28 108 -22 362 -71 465 -181 377 -30 -24 -41 -28 -57 -19 -62 33 -63 206
-2 246 24 15 28 15 75 -8 46 -21 53 -22 76 -9 15 8 35 31 45 52 24 46 40 189
31 289 -7 89 -14 82 112 98 134 16 272 23 325 16 l51 -7 -40 -43 c-63 -68 -66
-121 -12 -175 110 -111 451 -12 451 130 0 34 -30 89 -52 96 -20 6 -20 7 4 30
29 30 157 64 388 104 238 41 209 53 248 -98z m2695 95 c6 4 8 0 4 -9 -3 -9 5
-58 18 -109 36 -148 38 -160 17 -157 -23 4 -26 -43 -14 -170 11 -106 28 -156
49 -147 12 4 13 -14 9 -103 -6 -147 -6 -147 -59 -253 -49 -97 -69 -173 -60
-221 13 -67 -41 -168 -89 -168 -19 0 -19 4 -13 63 3 34 9 70 11 80 12 41 -27
11 -94 -72 -40 -49 -110 -121 -156 -160 l-83 -71 -41 38 c-50 46 -77 105 -93
198 -23 135 2 176 112 182 62 4 72 7 94 33 31 38 45 88 45 164 0 125 -37 185
-113 185 -49 0 -71 -18 -106 -87 -33 -66 -80 -81 -125 -40 -14 12 -46 71 -71
131 -50 120 -64 166 -47 166 22 0 192 123 297 216 135 118 149 127 174 119 23
-7 45 -71 56 -164 13 -96 59 -119 132 -65 63 48 70 168 15 275 -28 54 -29 59
-14 81 9 13 23 28 32 35 23 19 95 41 98 31 2 -4 9 -5 15 -1z m77 -437 c3 -83
1 -110 -10 -110 -27 0 -44 214 -17 223 15 5 25 -36 27 -113z m-1479 -90 c26
-14 24 -41 -6 -100 -33 -65 -33 -107 0 -122 44 -20 233 42 476 155 l77 36 27
-77 c15 -42 44 -113 66 -157 41 -87 62 -105 122 -105 43 0 73 22 98 73 12 23
28 50 37 60 20 23 77 22 101 -2 35 -35 41 -162 10 -227 -13 -27 -19 -29 -88
-35 -69 -5 -76 -8 -106 -41 -53 -57 -58 -171 -13 -316 14 -47 30 -74 61 -103
l41 -41 -24 -19 c-260 -206 -392 -279 -507 -279 -43 0 -46 10 -23 62 10 24 22
62 26 85 6 36 3 45 -21 69 -25 25 -31 26 -84 21 -127 -14 -329 -104 -394 -176
-67 -74 -60 -125 22 -163 28 -12 50 -27 48 -33 -5 -16 -116 -72 -197 -99 -133
-43 -260 -64 -501 -79 l-66 -4 -32 61 c-42 83 -43 147 -2 203 66 92 140 120
262 102 123 -19 171 26 173 161 2 128 -41 208 -124 230 -75 20 -124 6 -192
-57 -33 -30 -87 -68 -121 -84 -58 -27 -62 -28 -80 -11 -58 53 -87 155 -87 313
l0 86 113 7 c182 11 334 46 454 106 128 63 163 96 163 153 0 51 -18 75 -87
117 -31 18 -53 39 -53 49 0 28 80 98 144 126 64 28 194 63 239 64 16 1 37 -4
48 -9z m-3290 -388 c49 -28 62 -64 54 -150 -8 -89 2 -122 48 -170 63 -67 191
-112 317 -112 l65 0 0 -92 c0 -176 59 -291 159 -317 52 -13 114 -2 136 24 48
58 170 -72 170 -182 0 -78 -57 -90 -179 -37 -29 13 -64 24 -78 24 -37 0 -72
-29 -84 -69 -9 -30 -7 -47 11 -101 12 -36 32 -85 46 -109 13 -24 22 -46 20
-48 -6 -6 -165 37 -204 55 -29 14 -37 25 -47 65 -20 79 -173 221 -219 204 -24
-9 -20 -34 15 -94 32 -58 26 -59 -38 -3 -59 51 -213 318 -213 368 0 10 -11 49
-25 88 -14 38 -23 57 -20 42 3 -14 8 -34 12 -45 3 -10 3 -15 -1 -12 -3 3 -20
44 -36 90 -17 47 -24 76 -15 65 23 -31 18 -11 -15 53 -27 52 -65 192 -85 311
l-7 45 39 -37 c41 -40 70 -48 80 -22 3 8 0 49 -7 89 -10 61 -10 77 0 90 15 18
58 13 101 -13z m4753 -85 c-36 -257 -105 -478 -231 -739 -71 -147 -93 -177
-43 -60 33 79 38 115 15 110 -32 -7 -125 -84 -135 -112 -5 -16 -10 -31 -10
-34 0 -3 23 16 50 42 28 26 54 44 59 41 19 -11 -40 -150 -76 -178 -27 -21 -66
-91 -56 -101 4 -3 18 4 32 16 35 32 -64 -108 -155 -219 -42 -51 -80 -91 -84
-88 -4 2 -49 -21 -101 -51 -123 -73 -149 -86 -149 -76 0 4 39 55 86 112 89
107 144 192 144 223 0 25 -15 21 -78 -22 -116 -78 -156 -89 -172 -45 -19 50
15 129 65 150 19 8 47 14 62 14 152 0 273 178 275 404 l0 79 118 116 c65 64
128 131 142 149 l24 33 0 -73 c-1 -63 1 -73 17 -76 26 -5 75 44 100 98 15 33
21 68 22 130 1 70 6 96 29 145 26 58 53 105 60 105 1 0 -3 -42 -10 -93z
m-2544 -224 c1 -216 73 -373 170 -373 50 0 140 48 206 110 60 57 102 69 158
46 50 -21 79 -85 79 -178 0 -109 -4 -112 -160 -112 -126 -1 -131 -2 -178 -31
-28 -17 -65 -54 -88 -87 -34 -48 -41 -67 -45 -115 -3 -49 1 -67 27 -118 17
-33 27 -62 23 -66 -4 -3 -47 -12 -97 -19 -144 -20 -392 -86 -464 -122 -71 -36
-97 -68 -80 -100 6 -11 33 -35 60 -55 59 -42 55 -54 -30 -80 -82 -26 -313 -25
-360 0 -31 17 -33 21 -26 55 3 20 8 58 11 84 6 44 4 47 -24 62 -20 11 -89 18
-238 26 -115 6 -249 15 -299 20 -49 5 -98 10 -108 10 -21 0 -92 138 -102 201
-6 34 -3 44 16 65 32 34 53 38 98 15 53 -28 129 -44 169 -36 98 18 80 187 -31
299 -56 56 -103 68 -143 37 -61 -48 -154 -32 -190 33 -32 57 -48 145 -41 228
3 39 10 74 14 79 11 10 310 41 403 42 77 1 107 -9 148 -46 30 -27 28 -37 -13
-76 -83 -78 -3 -195 134 -194 67 0 255 44 311 73 82 42 82 91 -1 171 -51 49
-58 60 -43 65 11 3 55 19 99 36 131 50 278 84 525 121 14 3 44 5 68 6 l42 1 0
-77z m2005 -434 c-1 -120 -31 -203 -94 -262 -41 -38 -55 -45 -106 -52 -98 -12
-158 -52 -190 -127 -18 -44 -20 -119 -3 -136 27 -27 96 -4 191 65 26 20 51 33
54 30 9 -10 -42 -88 -107 -162 -34 -38 -81 -97 -105 -130 -41 -57 -52 -64
-162 -118 -65 -31 -133 -60 -152 -63 l-34 -7 23 32 c18 24 21 34 12 43 -18 18
-116 -4 -208 -47 -112 -51 -148 -90 -106 -114 35 -20 -28 -45 -223 -86 -66
-14 -130 -27 -141 -30 -18 -4 -24 3 -38 38 -9 23 -30 59 -47 80 -25 31 -37 37
-68 37 -48 0 -135 -23 -226 -59 -136 -55 -194 -49 -228 21 -41 84 12 114 241
137 114 12 164 32 206 82 21 24 26 40 24 68 -3 34 -8 39 -74 73 -69 36 -154
114 -154 141 0 10 34 17 137 26 233 20 407 63 544 131 118 60 130 100 44 149
-63 35 -68 54 -30 99 53 63 297 166 378 160 37 -3 42 -6 45 -29 2 -14 -6 -50
-17 -80 -41 -106 -19 -137 84 -123 118 15 205 63 395 212 63 50 120 90 125 88
6 -2 10 -39 10 -87z m156 -322 c-10 -9 -11 -8 -5 6 3 10 9 15 12 12 3 -3 0
-11 -7 -18z m-4051 -33 c56 -44 71 -67 85 -127 13 -59 90 -107 228 -141 83
-21 90 -24 125 -68 20 -26 81 -97 135 -159 53 -62 96 -114 94 -116 -2 -2 -20
4 -40 12 -42 17 -47 18 -66 6 -12 -8 -10 -16 12 -45 34 -44 176 -139 241 -160
45 -16 50 -16 75 1 14 10 31 16 38 15 6 -1 61 -35 121 -75 60 -39 131 -85 157
-100 26 -15 46 -30 43 -32 -2 -2 -51 1 -108 6 -91 10 -117 17 -195 54 -49 24
-108 51 -130 60 -66 26 -267 150 -251 153 9 2 16 9 16 16 0 17 -101 105 -153
134 -23 13 -35 18 -26 10 61 -51 140 -130 136 -135 -10 -10 -93 45 -140 92
-25 25 -50 45 -56 45 -32 0 -322 308 -421 446 -34 49 -34 49 -7 31 38 -25 61
-20 44 9 -41 72 -48 87 -43 100 9 23 24 17 86 -32z m2138 -228 c32 -59 58 -82
144 -126 85 -43 96 -65 52 -111 -33 -35 -62 -44 -179 -59 -149 -19 -221 -38
-255 -70 -33 -31 -37 -54 -16 -104 39 -93 132 -102 330 -31 140 50 166 53 188
28 15 -17 71 -123 66 -123 -2 0 -55 -18 -118 -40 -109 -38 -285 -80 -397 -95
-62 -8 -96 -29 -73 -45 8 -5 32 -10 52 -10 20 0 39 -4 42 -9 7 -11 -63 -27
-157 -37 -63 -6 -67 -6 -67 14 0 11 -6 24 -12 29 -7 4 -107 10 -223 13 l-210
5 -165 107 c-91 58 -179 113 -197 122 -40 20 -77 21 -93 1 -7 -8 -19 -15 -27
-15 -28 0 -131 62 -185 110 -50 46 -51 49 -27 50 14 0 40 -5 58 -11 18 -6 35
-9 38 -5 10 9 -41 79 -134 183 -49 54 -99 113 -112 132 l-24 34 44 -7 c107
-16 255 -26 386 -26 78 0 154 -5 168 -10 23 -9 26 -14 21 -38 -4 -15 -9 -48
-13 -73 -5 -41 -3 -48 22 -68 53 -41 125 -54 274 -48 147 5 220 22 246 59 20
29 -1 65 -55 98 -83 51 -39 83 206 149 155 42 284 69 344 70 32 1 37 -3 58
-43z m1613 -135 c-60 -84 -321 -299 -429 -354 -60 -30 -62 -31 -62 -17 0 21
75 80 121 95 53 18 84 48 112 110 16 34 37 51 145 116 70 42 128 77 130 78 2
0 -6 -12 -17 -28z m-301 -204 c-15 -33 -27 -47 -41 -47 -33 0 -91 -35 -141
-85 -47 -46 -63 -80 -33 -69 40 16 6 -10 -74 -55 -192 -108 -524 -235 -606
-232 -90 3 -101 25 -18 36 114 14 223 58 223 91 0 21 -48 18 -137 -11 -124
-39 -154 -30 -114 36 12 19 21 41 21 50 0 19 4 20 169 54 140 29 165 36 218
64 55 27 61 40 32 62 -24 19 -24 20 -5 34 26 19 160 71 209 80 42 8 48 -2 17
-30 -27 -25 -25 -45 4 -45 23 0 194 67 261 102 17 9 31 15 33 14 1 -2 -7 -24
-18 -49z m-980 -305 c0 -10 -7 -27 -15 -38 -19 -25 -19 -60 1 -68 27 -11 56
-7 151 20 95 27 116 27 93 -1 -14 -17 -55 -29 -170 -49 -88 -16 -116 -30 -90
-46 8 -5 25 -10 38 -10 12 0 22 -4 22 -9 0 -16 -202 -43 -292 -40 -47 2 -82 1
-76 -2 5 -3 -31 -12 -80 -19 -111 -16 -364 -1 -426 25 -22 9 -89 20 -152 25
-93 7 -140 17 -162 35 -1 1 0 9 3 17 5 13 33 15 193 12 174 -3 187 -5 194 -23
9 -25 60 -35 141 -28 40 4 56 2 46 -4 -9 -7 -2 -8 24 -3 26 4 37 3 37 -6 0 -7
-7 -10 -15 -7 -8 4 -17 2 -21 -4 -10 -16 -1 -18 39 -10 29 7 37 6 37 -5 0 -10
12 -14 40 -14 22 0 40 2 40 5 0 5 -82 29 -92 27 -5 -1 -8 2 -8 8 0 17 77 12
84 -5 3 -8 18 -15 33 -15 l28 0 -30 20 c-21 14 -48 20 -90 21 l-60 0 48 15
c45 14 60 36 26 41 -51 6 -90 15 -87 19 2 2 56 13 119 23 103 18 315 73 379
100 37 15 50 13 50 -7z m-1262 -128 c43 -6 52 -10 52 -26 0 -21 0 -21 -95 13
-54 19 -41 23 43 13z m362 -104 c20 -6 21 -8 5 -8 -11 0 -33 4 -50 8 -27 7
-27 8 -5 8 14 0 36 -4 50 -8z"/>
<path d="M3892 4594 c-97 -40 -79 -161 43 -291 56 -59 97 -70 129 -34 17 19
17 19 -1 15 -10 -3 -31 4 -46 16 -31 24 -167 226 -167 247 0 16 12 17 32 1 23
-20 131 -149 167 -201 l31 -46 45 30 c56 38 57 60 9 123 -42 56 -38 72 6 27
34 -34 38 -35 60 -21 12 8 7 18 -32 57 -45 45 -48 46 -66 30 -25 -23 -28 -22
-73 14 -50 39 -96 51 -137 33z m99 -51 c107 -97 175 -198 133 -198 -6 0 -44
41 -86 90 -41 50 -87 101 -102 114 -14 14 -26 28 -26 33 0 20 32 4 81 -39z"/>
<path d="M2620 4424 c0 -3 9 -17 20 -32 11 -14 17 -29 13 -33 -13 -12 -83 -28
-98 -23 -24 10 -38 -6 -22 -24 8 -10 24 -36 36 -59 17 -33 27 -43 46 -43 31 0
31 3 0 56 -30 51 -33 49 93 85 100 28 105 24 99 -67 -5 -62 -41 -159 -75 -198
-9 -11 -2 -8 17 8 75 61 108 130 112 230 2 68 2 70 -25 79 -19 6 -36 4 -60 -7
-49 -23 -75 -20 -86 9 -7 19 -17 25 -40 25 -16 0 -30 -3 -30 -6z"/>
<path d="M2980 4328 c0 -36 -26 -86 -69 -132 -20 -22 -22 -26 -6 -18 11 5 31
22 44 36 14 14 28 26 32 26 4 0 15 -21 25 -47 19 -53 32 -73 45 -73 16 0 10
31 -18 92 -24 53 -25 64 -14 92 19 48 18 51 -11 54 -26 3 -28 0 -28 -30z"/>
<path d="M682 3968 c-15 -20 -84 -199 -78 -205 14 -14 111 114 126 165 7 27 5
34 -10 42 -24 13 -25 13 -38 -2z m9 -76 c-17 -34 -51 -73 -51 -59 0 22 42 97
55 97 13 0 13 -5 -4 -38z"/>
<path d="M397 3829 c-19 -22 -37 -51 -39 -63 -5 -23 -3 -23 61 -19 59 4 69 8
99 39 18 19 34 34 37 34 12 0 3 -25 -20 -52 -36 -42 -33 -86 7 -101 23 -8 78
38 78 66 -1 21 -2 21 -23 -5 -23 -28 -67 -38 -67 -16 0 6 9 21 19 32 21 22 40
116 24 116 -5 0 -22 -13 -37 -29 -19 -20 -40 -30 -67 -33 -21 -2 -39 -2 -39 0
0 2 7 16 15 31 13 27 11 41 -6 41 -4 0 -23 -18 -42 -41z m20 -26 c-25 -26 -40
-10 -15 16 15 17 23 20 26 12 2 -7 -3 -20 -11 -28z"/>
<path d="M4516 3884 c-40 -40 -5 -157 74 -247 22 -25 40 -50 40 -56 0 -23 -49
-61 -78 -61 -45 0 -127 65 -199 158 -20 26 14 -54 41 -97 31 -48 109 -119 151
-137 61 -25 106 9 120 93 14 88 -36 288 -86 342 -24 25 -42 27 -63 5z m72
-101 c23 -34 44 -93 33 -93 -18 0 -71 72 -71 95 0 33 14 32 38 -2z"/>
<path d="M4890 3665 c0 -5 5 -17 10 -25 5 -8 10 -10 10 -5 0 6 -5 17 -10 25
-5 8 -10 11 -10 5z"/>
<path d="M4916 3600 c3 -14 11 -32 16 -40 6 -10 7 -7 2 10 -3 14 -11 32 -16
40 -6 10 -7 7 -2 -10z"/>
<path d="M3308 3557 c-48 -10 -65 -27 -28 -27 11 0 23 -7 27 -16 8 -21 -18
-324 -28 -324 -15 0 -119 125 -119 143 0 46 33 159 53 177 29 28 17 33 -33 15
-23 -8 -51 -15 -61 -15 -11 0 -19 -4 -19 -10 0 -5 9 -10 20 -10 28 0 34 -20
25 -87 l-7 -57 -51 53 -51 54 22 18 c34 27 15 28 -65 5 -75 -21 -94 -36 -47
-36 26 0 59 -30 141 -127 l35 -42 -12 -58 c-7 -32 -14 -64 -16 -72 -5 -16 -34
15 -163 171 l-72 87 22 22 c11 11 18 23 16 26 -4 4 -93 -20 -167 -45 -9 -3 -4
-7 15 -12 49 -11 56 -17 195 -185 73 -88 138 -161 145 -163 7 -2 16 22 24 65
7 37 18 85 25 106 l11 38 68 -81 c38 -44 72 -80 76 -80 4 0 19 100 33 222 23
201 27 223 48 240 20 16 20 18 4 17 -11 -1 -40 -6 -66 -12z"/>
<path d="M246 3164 c-22 -57 7 -111 64 -120 46 -7 80 -38 62 -56 -8 -8 -30 -6
-84 10 -66 19 -80 18 -79 -5 0 -4 17 -12 38 -18 29 -8 37 -16 36 -31 -1 -10
-3 -49 -4 -85 -3 -109 15 -133 61 -84 28 30 43 17 34 -30 -13 -64 -54 -82 -92
-42 -29 31 -42 73 -52 172 -8 77 -9 76 -6 -35 4 -121 16 -170 54 -203 28 -25
70 -18 95 15 24 33 29 126 8 176 -16 38 -24 40 -49 7 -25 -32 -32 -23 -32 39
0 77 8 84 73 63 29 -9 62 -17 71 -17 27 0 15 33 -14 40 -20 5 -26 14 -32 49
-10 57 -30 77 -83 85 -51 8 -70 26 -61 61 7 28 2 34 -8 9z"/>
<path d="M1432 2905 c-73 -20 -103 -37 -144 -83 -45 -50 -62 -101 -55 -164 11
-93 65 -158 151 -183 52 -16 56 -31 9 -38 -21 -4 -52 -9 -69 -13 -25 -5 -37
-1 -54 16 l-23 23 7 -49 c4 -27 11 -53 16 -58 9 -9 170 12 191 24 9 6 8 19 -1
58 -12 43 -18 52 -53 67 -54 24 -91 102 -91 196 -1 56 3 72 27 108 72 108 207
99 271 -19 49 -91 46 -187 -8 -248 -29 -34 -32 -42 -28 -89 2 -29 7 -53 10
-53 29 2 213 36 214 40 2 16 -15 110 -21 110 -3 0 -11 -10 -16 -22 -8 -18 -26
-27 -80 -40 -49 -12 -73 -14 -80 -6 -7 7 -4 14 9 22 94 56 135 138 116 236
-24 128 -158 202 -298 165z"/>
<path d="M4880 2959 c0 -7 6 -20 14 -28 8 -9 19 -59 25 -115 10 -93 9 -101
-11 -128 -29 -42 -116 -108 -150 -115 -35 -7 -36 -21 -2 -29 18 -5 31 -1 48
15 12 11 25 21 29 21 4 0 8 -39 8 -87 l2 -88 9 100 c7 82 14 107 35 138 14 20
30 37 34 37 5 0 10 -57 10 -127 2 -108 3 -119 9 -68 8 62 -5 383 -18 445 -7
33 -42 57 -42 29z"/>
<path d="M4810 2887 c0 -7 -9 -30 -20 -52 -24 -47 -25 -86 -5 -125 34 -66 95
-15 95 80 0 50 -3 60 -30 83 -34 30 -40 33 -40 14z m51 -75 c8 -42 -2 -82 -24
-96 -22 -14 -36 1 -44 47 -11 73 53 120 68 49z"/>
<path d="M3733 2486 c-57 -22 -103 -43 -103 -46 0 -4 16 -4 35 -2 29 4 36 0
46 -22 11 -23 4 -43 -71 -203 -87 -188 -97 -205 -104 -182 -15 53 -66 288 -66
307 0 15 10 29 30 40 37 21 39 33 3 22 -73 -22 -207 -70 -212 -76 -3 -4 10 -4
31 0 26 5 40 2 51 -9 17 -17 97 -338 97 -390 0 -29 -6 -39 -32 -55 -48 -29
-20 -25 94 15 111 39 134 52 75 41 -32 -6 -38 -4 -47 16 -9 20 2 51 81 213
l92 190 33 -150 c19 -82 33 -159 31 -170 -1 -10 -17 -30 -36 -42 -50 -34 -22
-28 90 18 100 42 122 56 71 44 -18 -4 -33 -1 -39 7 -6 7 -23 72 -37 143 -15
72 -34 152 -42 179 -22 76 -19 97 18 128 42 35 34 34 -89 -16z"/>
<path d="M267 2103 c-11 -10 -7 -55 7 -95 8 -21 10 -38 5 -38 -14 0 -10 -17 8
-35 9 -9 35 -74 58 -145 23 -70 50 -138 60 -151 14 -19 16 -20 9 -4 -18 45
-92 270 -90 273 4 4 149 -49 157 -57 4 -3 10 -22 14 -41 l7 -35 -25 23 c-14
13 -33 22 -44 20 -30 -5 -27 -45 7 -99 30 -46 59 -64 89 -57 8 2 19 -14 27
-37 8 -22 24 -49 36 -60 l21 -20 -8 20 c-19 46 -83 232 -89 258 -6 26 -5 27
20 21 22 -6 25 -4 22 12 -2 11 -13 20 -26 22 -12 2 -29 13 -37 25 -76 109
-111 151 -146 177 -41 29 -69 37 -82 23z m71 -47 c42 -22 153 -149 141 -161
-2 -2 -42 11 -88 29 -82 31 -85 34 -99 75 -22 66 -7 85 46 57z m160 -292 c28
-19 28 -36 1 -60 -21 -19 -21 -18 -40 5 -41 51 -13 92 39 55z"/>
<path d="M200 1975 c0 -5 5 -17 10 -25 5 -8 10 -10 10 -5 0 6 -5 17 -10 25 -5
8 -10 11 -10 5z"/>
<path d="M4767 1841 c-23 -22 -55 -63 -71 -92 l-29 -53 39 24 c91 54 131 89
134 116 6 57 -15 58 -73 5z m53 -8 c0 -9 -74 -63 -86 -63 -4 0 7 16 26 35 31
32 60 46 60 28z"/>
<path d="M1589 1778 c0 -2 -2 -14 -4 -28 -2 -14 -14 -52 -27 -85 -20 -48 -29
-60 -47 -59 -33 1 -20 -18 32 -44 26 -12 47 -29 47 -36 0 -15 -52 -66 -68 -66
-17 0 -15 -11 9 -36 l21 -22 35 20 c29 18 36 19 44 7 13 -21 29 -80 29 -110 0
-30 34 -78 46 -66 12 11 -28 159 -48 179 -17 17 -16 19 21 38 34 17 41 18 51
5 17 -20 42 -19 38 1 -4 20 -43 49 -78 60 -24 6 -24 6 -7 -13 17 -19 16 -20
-34 -36 -28 -10 -56 -17 -61 -17 -9 0 27 46 105 135 l38 43 -23 16 c-24 17
-63 22 -53 6 6 -10 -15 -65 -38 -94 -14 -19 -16 -19 -41 -3 -27 18 -27 18 -9
48 10 17 33 49 52 70 28 33 31 42 20 55 -12 14 -48 38 -50 32z"/>
<path d="M1800 1725 c0 -40 -13 -74 -53 -133 -33 -49 -29 -67 8 -32 45 42 59
16 86 -165 13 -84 33 -135 54 -135 8 0 15 6 15 14 0 15 115 36 200 36 53 0 64
12 29 31 -16 8 -32 8 -65 -1 -25 -7 -46 -11 -49 -9 -2 3 -7 23 -11 46 l-6 41
41 7 c70 12 50 31 -26 26 -29 -2 -33 0 -33 23 0 14 0 29 0 34 0 4 13 11 30 15
45 12 38 31 -10 24 -33 -4 -40 -2 -40 12 0 9 -5 22 -11 28 -8 8 1 15 32 25 56
19 67 43 15 35 -41 -7 -44 0 -16 36 20 26 20 26 1 36 -42 23 -56 14 -57 -36
-2 -54 -24 -78 -80 -89 -60 -11 -63 9 -14 67 l44 52 -28 23 c-39 34 -56 31
-56 -11z m115 -157 c13 -39 9 -52 -17 -62 -33 -12 -34 -11 -43 37 -7 36 -7 37
24 37 17 0 34 -6 36 -12z m27 -98 c0 -11 1 -25 2 -32 2 -19 -55 -33 -65 -17
-17 27 -10 57 14 62 42 8 47 7 49 -13z m24 -105 l10 -45 -33 -6 c-41 -8 -42
-6 -50 39 -5 31 -2 36 23 45 16 6 31 11 34 11 3 1 10 -19 16 -44z"/>
<path d="M1710 1399 c0 -13 58 -69 71 -69 5 0 9 9 9 20 0 13 -14 27 -40 40
-24 12 -40 16 -40 9z"/>
<path d="M1581 1345 c-9 -25 -9 -40 -1 -55 18 -34 30 -22 30 29 0 61 -12 72
-29 26z"/>
<path d="M3621 1354 c-28 -35 -31 -81 -8 -97 7 -4 46 -5 89 -1 71 5 76 4 83
-15 6 -20 -7 -142 -26 -239 -6 -30 -8 -56 -6 -59 11 -10 45 17 55 44 14 35 42
249 42 320 0 66 -16 75 -109 61 -44 -7 -67 -6 -74 1 -16 16 -23 14 -46 -15z"/>
<path d="M780 1057 c0 -17 57 -85 83 -99 12 -6 2 8 -22 32 -30 29 -40 45 -31
48 33 11 132 -77 135 -120 1 -12 11 -25 22 -29 20 -7 21 -5 12 24 -12 41 -82
111 -136 137 -50 23 -63 25 -63 7z"/>
<path d="M1883 774 c-17 -8 -16 -39 1 -53 11 -9 14 -8 12 6 -1 14 9 19 49 25
53 7 189 -6 232 -23 14 -5 28 -7 30 -5 3 3 -26 14 -64 26 -66 21 -234 36 -260
24z"/>
<path d="M1998 729 c10 -13 9 -19 -3 -29 -12 -10 -24 -11 -52 -2 -27 8 -33 8
-24 -1 6 -6 35 -11 64 -12 59 0 69 16 27 44 -23 14 -24 14 -12 0z"/>
<path d="M2305 668 c74 -57 96 -106 56 -128 -32 -16 -118 -12 -161 9 -22 11
-40 15 -40 11 0 -5 -7 -16 -16 -24 -20 -21 -122 -21 -170 -1 -48 20 -31 -3 20
-26 52 -23 158 -26 176 -4 7 8 10 21 7 29 -5 11 5 10 36 -7 57 -30 191 -32
212 -3 12 16 12 23 0 46 -17 33 -74 84 -118 105 l-32 16 30 -23z"/>
<path d="M1923 603 c-7 -2 -13 -12 -12 -21 0 -11 2 -12 6 -4 6 16 93 15 115
-2 10 -7 15 -16 11 -19 -3 -4 -1 -7 5 -7 23 0 11 30 -18 45 -28 14 -82 19
-107 8z"/>
<path d="M3760 704 c-49 -21 -81 -54 -74 -76 3 -11 -4 -27 -20 -43 -14 -14
-20 -25 -14 -25 13 0 78 67 78 80 0 5 -7 7 -15 4 -31 -12 -13 13 24 34 25 14
42 19 46 12 8 -13 25 -3 25 16 0 17 -6 17 -50 -2z"/>
<path d="M3760 638 c-15 -21 -17 -28 -6 -19 16 13 41 51 33 51 -2 0 -14 -15
-27 -32z"/>
<path d="M3572 590 c-43 -10 -55 -22 -14 -14 36 7 40 -1 15 -28 -15 -17 -15
-18 15 -7 18 6 32 17 32 25 0 8 0 17 1 21 1 11 -12 12 -49 3z"/>
<path d="M3445 525 l-20 -20 28 -3 c28 -3 77 20 77 37 0 16 -65 6 -85 -14z
m50 -5 c-3 -5 -16 -10 -28 -10 -18 0 -19 2 -7 10 20 13 43 13 35 0z"/>
</g>
</svg>
